SplineFontDB: 3.0
FontName: FiraCodemScript-Bold
FullName: Fira Code mScript Bold
FamilyName: Fira Code mScript
Weight: Bold
Copyright: Copyright (c) 2015 by Nikita Prokopov
Version: 1.205
ItalicAngle: 0
UnderlinePosition: -100
UnderlineWidth: 50
Ascent: 800
Descent: 200
InvalidEm: 0
sfntRevision: 0x0001347a
LayerCount: 2
Layer: 0 1 "Back" 1
Layer: 1 1 "Fore" 0
XUID: [1021 102 -1850447114 14763]
StyleMap: 0x0020
FSType: 0
OS2Version: 4
OS2_WeightWidthSlopeOnly: 0
OS2_UseTypoMetrics: 1
CreationTime: 1519723474
ModificationTime: 1530244016
PfmFamily: 49
TTFWeight: 700
TTFWidth: 5
LineGap: 0
VLineGap: 0
Panose: 2 11 8 9 5 0 0 2 0 4
OS2TypoAscent: 935
OS2TypoAOffset: 0
OS2TypoDescent: -265
OS2TypoDOffset: 0
OS2TypoLinegap: 0
OS2WinAscent: 935
OS2WinAOffset: 0
OS2WinDescent: 265
OS2WinDOffset: 0
HheadAscent: 935
HheadAOffset: 0
HheadDescent: -265
HheadDOffset: 0
OS2SubXSize: 650
OS2SubYSize: 600
OS2SubXOff: 0
OS2SubYOff: 75
OS2SupXSize: 650
OS2SupYSize: 600
OS2SupXOff: 0
OS2SupYOff: 350
OS2StrikeYSize: 50
OS2StrikeYPos: 318
OS2CapHeight: 693
OS2XHeight: 531
OS2Vendor: 'CTDB'
OS2CodePages: 6000009f.00000000
OS2UnicodeRanges: 40000287.02003801.00000000.00000000
Lookup: 1 0 0 "'aalt' Access All Alternates lookup 0" { "'aalt' Access All Alternates lookup 0 subtable"  } ['aalt' ('DFLT' <'dflt' > 'cyrl' <'dflt' > 'grek' <'dflt' > 'latn' <'AFK ' 'AZE ' 'CAT ' 'CRT ' 'KAZ ' 'MOL ' 'PLK ' 'ROM ' 'TAT ' 'TRK ' 'dflt' > 'zinh' <'dflt' > 'zyyy' <'dflt' > ) ]
Lookup: 3 0 0 "'aalt' Access All Alternates lookup 1" { "'aalt' Access All Alternates lookup 1 subtable"  } ['aalt' ('DFLT' <'dflt' > 'cyrl' <'dflt' > 'grek' <'dflt' > 'latn' <'AFK ' 'AZE ' 'CAT ' 'CRT ' 'KAZ ' 'MOL ' 'PLK ' 'ROM ' 'TAT ' 'TRK ' 'dflt' > 'zinh' <'dflt' > 'zyyy' <'dflt' > ) ]

StartChar: .notdef
Encoding: 1114112 -1 0
Width: 600
Flags: W
LayerCount: 2
Fore
SplineSet
90 1050 m 1,0,-1
 510 1050 l 1,1,-1
 510 -350 l 1,2,-1
 90 -350 l 1,3,-1
 90 1050 l 1,0,-1
456 -298 m 1,4,-1
 456 998 l 1,5,-1
 145 998 l 1,6,-1
 145 -298 l 1,7,-1
 456 -298 l 1,4,-1
299.5 155.5 m 128,-1,9
 292 149 292 149 282 149 c 256,10,11
 272 149 272 149 264.5 155.5 c 128,-1,12
 257 162 257 162 257 173 c 2,13,-1
 257 257 l 1,14,15
 310 260 310 260 329 276.5 c 128,-1,16
 348 293 348 293 348 334 c 0,17,18
 348 367 348 367 335 385 c 128,-1,19
 322 403 322 403 287 403 c 0,20,21
 258 403 258 403 235 392 c 0,22,23
 228 389 228 389 222 389 c 0,24,25
 211 389 211 389 204.5 395.5 c 128,-1,26
 198 402 198 402 198 412 c 0,27,28
 198 431 198 431 227.5 441 c 128,-1,29
 257 451 257 451 291 451 c 0,30,31
 351 451 351 451 376.5 419 c 128,-1,32
 402 387 402 387 402 336 c 0,33,34
 402 283 402 283 379.5 254 c 128,-1,35
 357 225 357 225 307 218 c 1,36,-1
 307 173 l 2,37,8
 307 162 307 162 299.5 155.5 c 128,-1,9
257 110 m 128,-1,39
 267 120 267 120 282 120 c 256,40,41
 297 120 297 120 307 110 c 128,-1,42
 317 100 317 100 317 85 c 0,43,44
 317 69 317 69 307 58.5 c 128,-1,45
 297 48 297 48 282 48 c 256,46,47
 267 48 267 48 257 58.5 c 128,-1,48
 247 69 247 69 247 85 c 0,49,38
 247 100 247 100 257 110 c 128,-1,39
EndSplineSet
EndChar

StartChar: A
Encoding: 65 65 4
Width: 600
GlyphClass: 2
Flags: W
AnchorPoint: "Anchor-7" 300 693 basechar 0
AnchorPoint: "Anchor-6" 299 0 basechar 0
LayerCount: 2
Fore
SplineSet
400 150 m 1,0,-1
 197 150 l 1,1,-1
 161 0 l 1,2,-1
 -11 0 l 1,3,-1
 201 693 l 1,4,-1
 400 693 l 1,5,-1
 612 0 l 1,6,-1
 436 0 l 1,7,-1
 400 150 l 1,0,-1
223 268 m 1,8,-1
 373 268 l 1,9,-1
 298 575 l 1,10,-1
 223 268 l 1,8,-1
EndSplineSet
Substitution2: "Single Substitution lookup 159 subtable" ordfeminine
Substitution2: "'aalt' Access All Alternates lookup 0 subtable" ordfeminine
EndChar

StartChar: Aogonek
Encoding: 260 260 11
Width: 600
GlyphClass: 2
Flags: W
AnchorPoint: "Anchor-7" 300 693 basechar 0
AnchorPoint: "Anchor-6" 299 0 basechar 0
LayerCount: 2
Fore
SplineSet
443 -49 m 128,-1,1
 418 -76 418 -76 418 -110 c 0,2,3
 418 -134 418 -134 433.5 -146.5 c 128,-1,4
 449 -159 449 -159 476 -159 c 0,5,6
 500 -159 500 -159 530 -152 c 1,7,-1
 518 -245 l 1,8,9
 489 -253 489 -253 459 -253 c 0,10,11
 393 -253 393 -253 350.5 -220.5 c 128,-1,12
 308 -188 308 -188 308 -130 c 0,13,14
 308 -75 308 -75 339.5 -39.5 c 128,-1,15
 371 -4 371 -4 431 22 c 1,16,-1
 400 150 l 1,17,-1
 197 150 l 1,18,-1
 161 0 l 1,19,-1
 -11 0 l 1,20,-1
 201 693 l 1,21,-1
 400 693 l 1,22,-1
 612 0 l 1,23,-1
 533 0 l 1,24,0
 468 -22 468 -22 443 -49 c 128,-1,1
223 268 m 1,25,-1
 373 268 l 1,26,-1
 298 575 l 1,27,-1
 223 268 l 1,25,-1
EndSplineSet
EndChar

StartChar: AE
Encoding: 198 198 14
Width: 600
GlyphClass: 2
Flags: W
AnchorPoint: "Anchor-7" 350 693 basechar 0
AnchorPoint: "Anchor-6" 300 0 basechar 0
LayerCount: 2
Fore
SplineSet
313 153 m 1,0,-1
 173 153 l 1,1,-1
 145 0 l 1,2,-1
 -12 0 l 1,3,-1
 163 693 l 1,4,-1
 565 693 l 1,5,-1
 548 582 l 1,6,-1
 366 582 l 1,7,-1
 399 406 l 1,8,-1
 556 406 l 1,9,-1
 556 296 l 1,10,-1
 419 296 l 1,11,-1
 455 111 l 1,12,-1
 603 111 l 1,13,-1
 603 0 l 1,14,-1
 338 0 l 1,15,-1
 313 153 l 1,0,-1
191 265 m 1,16,-1
 296 265 l 1,17,-1
 245 583 l 1,18,-1
 191 265 l 1,16,-1
EndSplineSet
EndChar

StartChar: B
Encoding: 66 66 16
Width: 600
GlyphClass: 2
Flags: W
AnchorPoint: "Anchor-7" 300 693 basechar 0
AnchorPoint: "Anchor-6" 300 0 basechar 0
LayerCount: 2
Fore
SplineSet
492.5 46 m 128,-1,1
 414 0 414 0 286 0 c 2,2,-1
 56 0 l 1,3,-1
 56 693 l 1,4,-1
 276 693 l 2,5,6
 395 693 395 693 468 651.5 c 128,-1,7
 541 610 541 610 541 516 c 0,8,9
 541 457 541 457 505 419 c 128,-1,10
 469 381 469 381 414 367 c 1,11,12
 480 356 480 356 525.5 317.5 c 128,-1,13
 571 279 571 279 571 203 c 0,14,0
 571 92 571 92 492.5 46 c 128,-1,1
350.5 558.5 m 128,-1,16
 325 577 325 577 270 577 c 2,17,-1
 220 577 l 1,18,-1
 220 416 l 1,19,-1
 276 416 l 2,20,21
 328 416 328 416 352 435.5 c 128,-1,22
 376 455 376 455 376 499 c 0,23,15
 376 540 376 540 350.5 558.5 c 128,-1,16
372.5 284 m 128,-1,25
 343 306 343 306 287 306 c 2,26,-1
 220 306 l 1,27,-1
 220 120 l 1,28,-1
 280 120 l 2,29,30
 337 120 337 120 369.5 139 c 128,-1,31
 402 158 402 158 402 210 c 256,32,24
 402 262 402 262 372.5 284 c 128,-1,25
EndSplineSet
EndChar

StartChar: C
Encoding: 67 67 17
Width: 600
GlyphClass: 2
Flags: W
AnchorPoint: "Anchor-7" 361 693 basechar 0
AnchorPoint: "Anchor-6" 352 0 basechar 0
LayerCount: 2
Fore
SplineSet
482 692 m 128,-1,1
 534 673 534 673 580 635 c 1,2,-1
 500 538 l 1,3,4
 437 589 437 589 362 589 c 0,5,6
 291 589 291 589 247.5 529 c 128,-1,7
 204 469 204 469 204 348 c 256,8,9
 204 227 204 227 247 168.5 c 128,-1,10
 290 110 290 110 365 110 c 0,11,12
 411 110 411 110 444 126 c 128,-1,13
 477 142 477 142 515 172 c 1,14,-1
 589 77 l 1,15,16
 497 -17 497 -17 356 -17 c 0,17,18
 261 -17 261 -17 188.5 25 c 128,-1,19
 116 67 116 67 75 149.5 c 128,-1,20
 34 232 34 232 34 348 c 0,21,22
 34 461 34 461 76 543 c 128,-1,23
 118 625 118 625 192 668 c 128,-1,24
 266 711 266 711 358 711 c 0,25,0
 430 711 430 711 482 692 c 128,-1,1
EndSplineSet
EndChar

StartChar: Ccedilla
Encoding: 199 199 20
Width: 600
GlyphClass: 2
Flags: W
AnchorPoint: "Anchor-7" 361 693 basechar 0
AnchorPoint: "Anchor-6" 352 0 basechar 0
LayerCount: 2
Fore
SplineSet
382 -16 m 1,1,-1
 382 -48 l 1,2,3
 433 -54 433 -54 459 -80 c 128,-1,4
 485 -106 485 -106 485 -147 c 0,5,6
 485 -198 485 -198 444 -230 c 128,-1,7
 403 -262 403 -262 336 -262 c 0,8,9
 302 -262 302 -262 271.5 -253.5 c 128,-1,10
 241 -245 241 -245 219 -232 c 1,11,-1
 255 -159 l 1,12,13
 289 -176 289 -176 319 -176 c 0,14,15
 372 -176 372 -176 372 -145 c 0,16,17
 372 -126 372 -126 350 -119 c 128,-1,18
 328 -112 328 -112 280 -112 c 1,19,-1
 291 -12 l 1,20,21
 173 9 173 9 103.5 102 c 128,-1,22
 34 195 34 195 34 348 c 0,23,24
 34 461 34 461 76 543 c 128,-1,25
 118 625 118 625 192 668 c 128,-1,26
 266 711 266 711 358 711 c 0,27,28
 430 711 430 711 482 692 c 128,-1,29
 534 673 534 673 580 635 c 1,30,-1
 500 538 l 1,31,32
 437 589 437 589 362 589 c 0,33,34
 291 589 291 589 247.5 529 c 128,-1,35
 204 469 204 469 204 348 c 256,36,37
 204 227 204 227 247 168.5 c 128,-1,38
 290 110 290 110 365 110 c 0,39,40
 411 110 411 110 444 126 c 128,-1,41
 477 142 477 142 515 172 c 1,42,-1
 589 77 l 1,43,0
 506 -8 506 -8 382 -16 c 1,1,-1
EndSplineSet
EndChar

StartChar: D
Encoding: 68 68 23
Width: 600
GlyphClass: 2
Flags: W
AnchorPoint: "Anchor-7" 287 693 basechar 0
AnchorPoint: "Anchor-6" 300 0 basechar 0
LayerCount: 2
Fore
SplineSet
239 0 m 2,1,-1
 52 0 l 1,2,-1
 52 693 l 1,3,-1
 227 693 l 2,4,5
 384 693 384 693 479 619.5 c 128,-1,6
 574 546 574 546 574 350 c 0,7,0
 574 0 574 0 239 0 c 2,1,-1
365 526.5 m 128,-1,9
 325 574 325 574 251 574 c 2,10,-1
 216 574 l 1,11,-1
 216 119 l 1,12,-1
 251 119 l 2,13,14
 326 119 326 119 365.5 170.5 c 128,-1,15
 405 222 405 222 405 350 c 0,16,8
 405 479 405 479 365 526.5 c 128,-1,9
EndSplineSet
EndChar

StartChar: Eth
Encoding: 208 208 24
Width: 600
GlyphClass: 2
Flags: W
AnchorPoint: "Anchor-7" 300 693 basechar 0
AnchorPoint: "Anchor-6" 313 0 basechar 0
LayerCount: 2
Fore
SplineSet
492 619.5 m 128,-1,1
 587 546 587 546 587 350 c 0,2,3
 587 0 587 0 252 0 c 2,4,-1
 65 0 l 1,5,-1
 65 303 l 1,6,-1
 9 303 l 1,7,-1
 9 403 l 1,8,-1
 65 403 l 1,9,-1
 65 693 l 1,10,-1
 240 693 l 2,11,0
 397 693 397 693 492 619.5 c 128,-1,1
378.5 170.5 m 128,-1,13
 418 222 418 222 418 350 c 0,14,15
 418 479 418 479 378 526.5 c 128,-1,16
 338 574 338 574 264 574 c 2,17,-1
 229 574 l 1,18,-1
 229 403 l 1,19,-1
 349 403 l 1,20,-1
 349 303 l 1,21,-1
 229 303 l 1,22,-1
 229 119 l 1,23,-1
 264 119 l 2,24,12
 339 119 339 119 378.5 170.5 c 128,-1,13
EndSplineSet
EndChar

StartChar: E
Encoding: 69 69 27
Width: 600
GlyphClass: 2
Flags: W
AnchorPoint: "Anchor-7" 320 693 basechar 0
AnchorPoint: "Anchor-6" 320 0 basechar 0
LayerCount: 2
Fore
SplineSet
257 576 m 1,0,-1
 257 409 l 1,1,-1
 497 409 l 1,2,-1
 497 295 l 1,3,-1
 257 295 l 1,4,-1
 257 118 l 1,5,-1
 546 118 l 1,6,-1
 546 0 l 1,7,-1
 93 0 l 1,8,-1
 93 693 l 1,9,-1
 546 693 l 1,10,-1
 529 576 l 1,11,-1
 257 576 l 1,0,-1
EndSplineSet
EndChar

StartChar: Eogonek
Encoding: 280 280 36
Width: 600
GlyphClass: 2
Flags: W
AnchorPoint: "Anchor-7" 320 693 basechar 0
AnchorPoint: "Anchor-6" 320 0 basechar 0
LayerCount: 2
Fore
SplineSet
257 118 m 1,0,-1
 546 118 l 1,1,-1
 546 0 l 1,2,-1
 467 0 l 1,3,4
 402 -22 402 -22 377 -49 c 128,-1,5
 352 -76 352 -76 352 -110 c 0,6,7
 352 -134 352 -134 367.5 -146.5 c 128,-1,8
 383 -159 383 -159 410 -159 c 0,9,10
 434 -159 434 -159 464 -152 c 1,11,-1
 452 -245 l 1,12,13
 423 -253 423 -253 393 -253 c 0,14,15
 327 -253 327 -253 284.5 -220.5 c 128,-1,16
 242 -188 242 -188 242 -130 c 0,17,18
 242 -47 242 -47 322 0 c 1,19,-1
 93 0 l 1,20,-1
 93 693 l 1,21,-1
 546 693 l 1,22,-1
 529 576 l 1,23,-1
 257 576 l 1,24,-1
 257 409 l 1,25,-1
 497 409 l 1,26,-1
 497 295 l 1,27,-1
 257 295 l 1,28,-1
 257 118 l 1,0,-1
EndSplineSet
EndChar

StartChar: F
Encoding: 70 70 37
Width: 600
GlyphClass: 2
Flags: W
AnchorPoint: "Anchor-7" 300 693 basechar 0
AnchorPoint: "Anchor-6" 300 0 basechar 0
LayerCount: 2
Fore
SplineSet
273 576 m 1,0,-1
 273 393 l 1,1,-1
 515 393 l 1,2,-1
 515 275 l 1,3,-1
 273 275 l 1,4,-1
 273 0 l 1,5,-1
 108 0 l 1,6,-1
 108 693 l 1,7,-1
 563 693 l 1,8,-1
 547 576 l 1,9,-1
 273 576 l 1,0,-1
EndSplineSet
EndChar

StartChar: G
Encoding: 71 71 38
Width: 600
GlyphClass: 2
Flags: W
AnchorPoint: "Anchor-7" 330 693 basechar 0
AnchorPoint: "Anchor-6" 327 0 basechar 0
LayerCount: 2
Fore
SplineSet
100.5 76.5 m 128,-1,1
 23 170 23 170 23 348 c 0,2,3
 23 463 23 463 65 545 c 128,-1,4
 107 627 107 627 180.5 669 c 128,-1,5
 254 711 254 711 345 711 c 0,6,7
 416 711 416 711 468.5 688.5 c 128,-1,8
 521 666 521 666 565 625 c 1,9,-1
 479 536 l 1,10,11
 446 565 446 565 417.5 578 c 128,-1,12
 389 591 389 591 353 591 c 0,13,14
 278 591 278 591 235 531.5 c 128,-1,15
 192 472 192 472 192 347 c 0,16,17
 192 213 192 213 224 158 c 128,-1,18
 256 103 256 103 327 103 c 0,19,20
 374 103 374 103 413 124 c 1,21,-1
 413 283 l 1,22,-1
 326 283 l 1,23,-1
 310 397 l 1,24,-1
 568 397 l 1,25,-1
 568 53 l 1,26,27
 454 -17 454 -17 326 -17 c 0,28,0
 178 -17 178 -17 100.5 76.5 c 128,-1,1
EndSplineSet
EndChar

StartChar: H
Encoding: 72 72 43
Width: 600
GlyphClass: 2
Flags: W
AnchorPoint: "Anchor-7" 300 693 basechar 0
AnchorPoint: "Anchor-6" 300 0 basechar 0
LayerCount: 2
Fore
SplineSet
384 0 m 1,0,-1
 384 292 l 1,1,-1
 216 292 l 1,2,-1
 216 0 l 1,3,-1
 52 0 l 1,4,-1
 52 693 l 1,5,-1
 216 693 l 1,6,-1
 216 427 l 1,7,-1
 384 427 l 1,8,-1
 384 693 l 1,9,-1
 548 693 l 1,10,-1
 548 0 l 1,11,-1
 384 0 l 1,0,-1
EndSplineSet
EndChar

StartChar: Hbar
Encoding: 294 294 44
Width: 600
Flags: W
LayerCount: 2
Fore
SplineSet
598 592 m 1,0,-1
 598 500 l 1,1,-1
 543 500 l 1,2,-1
 543 0 l 1,3,-1
 379 0 l 1,4,-1
 379 297 l 1,5,-1
 221 297 l 1,6,-1
 221 0 l 1,7,-1
 57 0 l 1,8,-1
 57 500 l 1,9,-1
 2 500 l 1,10,-1
 2 592 l 1,11,-1
 57 592 l 1,12,-1
 57 693 l 1,13,-1
 221 693 l 1,14,-1
 221 592 l 1,15,-1
 379 592 l 1,16,-1
 379 693 l 1,17,-1
 543 693 l 1,18,-1
 543 592 l 1,19,-1
 598 592 l 1,0,-1
379 424 m 1,20,-1
 379 500 l 1,21,-1
 221 500 l 1,22,-1
 221 424 l 1,23,-1
 379 424 l 1,20,-1
EndSplineSet
EndChar

StartChar: I
Encoding: 73 73 46
Width: 600
GlyphClass: 2
Flags: W
AnchorPoint: "Anchor-7" 300 693 basechar 0
AnchorPoint: "Anchor-6" 300 0 basechar 0
LayerCount: 2
Fore
SplineSet
525 693 m 1,0,-1
 525 573 l 1,1,-1
 382 573 l 1,2,-1
 382 121 l 1,3,-1
 525 121 l 1,4,-1
 525 0 l 1,5,-1
 75 0 l 1,6,-1
 75 121 l 1,7,-1
 218 121 l 1,8,-1
 218 573 l 1,9,-1
 75 573 l 1,10,-1
 75 693 l 1,11,-1
 525 693 l 1,0,-1
EndSplineSet
EndChar

StartChar: IJ
Encoding: 306 306 47
Width: 600
Flags: W
LayerCount: 2
Fore
SplineSet
318 -27 m 128,-1,1
 365 2 365 2 381.5 46.5 c 128,-1,2
 398 91 398 91 398 164 c 2,3,-1
 398 592 l 1,4,-1
 232 592 l 1,5,-1
 232 102 l 1,6,-1
 285 102 l 1,7,-1
 285 0 l 1,8,-1
 8 0 l 1,9,-1
 8 102 l 1,10,-1
 81 102 l 1,11,-1
 81 592 l 1,12,-1
 8 592 l 1,13,-1
 8 693 l 1,14,-1
 556 693 l 1,15,-1
 556 170 l 2,16,17
 556 23 556 23 473.5 -64.5 c 128,-1,18
 391 -152 391 -152 200 -183 c 1,19,-1
 181 -72 l 1,20,0
 271 -56 271 -56 318 -27 c 128,-1,1
EndSplineSet
EndChar

StartChar: Iogonek
Encoding: 302 302 55
Width: 600
GlyphClass: 2
Flags: W
AnchorPoint: "Anchor-7" 300 693 basechar 0
AnchorPoint: "Anchor-6" 300 0 basechar 0
LayerCount: 2
Fore
SplineSet
382 573 m 1,0,-1
 382 121 l 1,1,-1
 525 121 l 1,2,-1
 525 0 l 1,3,-1
 382 0 l 1,4,5
 317 -22 317 -22 292 -49 c 128,-1,6
 267 -76 267 -76 267 -110 c 0,7,8
 267 -134 267 -134 282.5 -146.5 c 128,-1,9
 298 -159 298 -159 325 -159 c 0,10,11
 349 -159 349 -159 379 -152 c 1,12,-1
 367 -245 l 1,13,14
 338 -253 338 -253 308 -253 c 0,15,16
 242 -253 242 -253 199.5 -220.5 c 128,-1,17
 157 -188 157 -188 157 -130 c 0,18,19
 157 -47 157 -47 237 0 c 1,20,-1
 75 0 l 1,21,-1
 75 121 l 1,22,-1
 218 121 l 1,23,-1
 218 573 l 1,24,-1
 75 573 l 1,25,-1
 75 693 l 1,26,-1
 525 693 l 1,27,-1
 525 573 l 1,28,-1
 382 573 l 1,0,-1
EndSplineSet
EndChar

StartChar: J
Encoding: 74 74 57
Width: 600
GlyphClass: 2
Flags: W
AnchorPoint: "Anchor-7" 352 693 basechar 0
AnchorPoint: "Anchor-6" 300 0 basechar 0
LayerCount: 2
Fore
SplineSet
527 249 m 2,0,1
 527 127 527 127 453.5 56 c 128,-1,2
 380 -15 380 -15 248 -15 c 0,3,4
 184 -15 184 -15 135.5 1 c 128,-1,5
 87 17 87 17 39 50 c 1,6,-1
 101 151 l 1,7,8
 137 127 137 127 168 117 c 128,-1,9
 199 107 199 107 239 107 c 0,10,11
 294 107 294 107 328.5 142.5 c 128,-1,12
 363 178 363 178 363 248 c 2,13,-1
 363 573 l 1,14,-1
 151 573 l 1,15,-1
 151 693 l 1,16,-1
 527 693 l 1,17,-1
 527 249 l 2,0,1
EndSplineSet
EndChar

StartChar: K
Encoding: 75 75 59
Width: 600
GlyphClass: 2
Flags: W
AnchorPoint: "Anchor-7" 301 693 basechar 0
AnchorPoint: "Anchor-6" 301 0 basechar 0
LayerCount: 2
Fore
SplineSet
223 0 m 1,0,-1
 59 0 l 1,1,-1
 59 693 l 1,2,-1
 223 693 l 1,3,-1
 223 0 l 1,0,-1
228 370 m 1,4,-1
 417 693 l 1,5,-1
 589 693 l 1,6,-1
 393 382 l 1,7,-1
 608 0 l 1,8,-1
 419 0 l 1,9,-1
 228 370 l 1,4,-1
EndSplineSet
EndChar

StartChar: L
Encoding: 76 76 61
Width: 600
GlyphClass: 2
Flags: W
AnchorPoint: "Anchor-7" 175 693 basechar 0
AnchorPoint: "Anchor-6" 317 0 basechar 0
LayerCount: 2
Fore
SplineSet
93 0 m 1,0,-1
 93 693 l 1,1,-1
 257 693 l 1,2,-1
 257 130 l 1,3,-1
 557 130 l 1,4,-1
 541 0 l 1,5,-1
 93 0 l 1,0,-1
EndSplineSet
EndChar

StartChar: Lslash
Encoding: 321 321 66
Width: 600
GlyphClass: 2
Flags: W
AnchorPoint: "Anchor-7" 190 693 basechar 0
AnchorPoint: "Anchor-6" 332 0 basechar 0
LayerCount: 2
Fore
SplineSet
272 130 m 1,0,-1
 572 130 l 1,1,-1
 556 0 l 1,2,-1
 108 0 l 1,3,-1
 108 230 l 1,4,-1
 62 201 l 1,5,-1
 9 288 l 1,6,-1
 108 349 l 1,7,-1
 108 693 l 1,8,-1
 272 693 l 1,9,-1
 272 450 l 1,10,-1
 396 527 l 1,11,-1
 450 442 l 1,12,-1
 272 331 l 1,13,-1
 272 130 l 1,0,-1
EndSplineSet
EndChar

StartChar: M
Encoding: 77 77 67
Width: 600
GlyphClass: 2
Flags: W
AnchorPoint: "Anchor-7" 300 693 basechar 0
AnchorPoint: "Anchor-6" 300 0 basechar 0
LayerCount: 2
Fore
SplineSet
583 0 m 1,0,-1
 439 0 l 1,1,-1
 431 297 l 2,2,3
 430 319 430 319 430 357 c 0,4,5
 430 407 430 407 433 454.5 c 128,-1,6
 436 502 436 502 440 554 c 1,7,-1
 362 118 l 1,8,-1
 238 118 l 1,9,-1
 153 554 l 1,10,11
 164 439 164 439 164 347 c 2,12,-1
 163 294 l 1,13,-1
 158 0 l 1,14,-1
 17 0 l 1,15,-1
 56 693 l 1,16,-1
 225 693 l 1,17,-1
 302 245 l 1,18,-1
 375 693 l 1,19,-1
 544 693 l 1,20,-1
 583 0 l 1,0,-1
EndSplineSet
EndChar

StartChar: N
Encoding: 78 78 68
Width: 600
GlyphClass: 2
Flags: W
AnchorPoint: "Anchor-7" 310 693 basechar 0
AnchorPoint: "Anchor-6" 300 0 basechar 0
LayerCount: 2
Fore
SplineSet
167 557 m 1,0,1
 177 481 177 481 184 410.5 c 128,-1,2
 191 340 191 340 191 261 c 2,3,-1
 191 0 l 1,4,-1
 52 0 l 1,5,-1
 52 693 l 1,6,-1
 257 693 l 1,7,-1
 433 138 l 1,8,9
 409 292 409 292 409 428 c 2,10,-1
 409 693 l 1,11,-1
 548 693 l 1,12,-1
 548 0 l 1,13,-1
 349 0 l 1,14,-1
 167 557 l 1,0,1
EndSplineSet
EndChar

StartChar: Eng
Encoding: 330 330 72
Width: 600
GlyphClass: 2
Flags: W
AnchorPoint: "Anchor-7" 310 693 basechar 0
AnchorPoint: "Anchor-6" 300 0 basechar 0
LayerCount: 2
Fore
SplineSet
548 693 m 1,0,-1
 548 -27 l 2,1,2
 548 -124 548 -124 495.5 -176 c 128,-1,3
 443 -228 443 -228 348 -228 c 0,4,5
 305 -228 305 -228 273 -216.5 c 128,-1,6
 241 -205 241 -205 212 -183 c 1,7,-1
 272 -91 l 1,8,9
 292 -100 292 -100 303.5 -104 c 128,-1,10
 315 -108 315 -108 332 -108 c 0,11,12
 358 -108 358 -108 371 -92.5 c 128,-1,13
 384 -77 384 -77 384 -41 c 2,14,-1
 384 0 l 1,15,-1
 349 0 l 1,16,-1
 167 557 l 1,17,18
 177 481 177 481 184 410.5 c 128,-1,19
 191 340 191 340 191 261 c 2,20,-1
 191 0 l 1,21,-1
 52 0 l 1,22,-1
 52 693 l 1,23,-1
 257 693 l 1,24,-1
 433 138 l 1,25,26
 409 292 409 292 409 428 c 2,27,-1
 409 693 l 1,28,-1
 548 693 l 1,0,-1
EndSplineSet
EndChar

StartChar: O
Encoding: 79 79 74
Width: 600
GlyphClass: 2
Flags: W
AnchorPoint: "Anchor-7" 300 693 basechar 0
AnchorPoint: "Anchor-6" 300 0 basechar 0
LayerCount: 2
Fore
SplineSet
505.5 80.5 m 128,-1,1
 434 -17 434 -17 300 -17 c 0,2,3
 165 -17 165 -17 94 79.5 c 128,-1,4
 23 176 23 176 23 347 c 0,5,6
 23 516 23 516 94.5 613.5 c 128,-1,7
 166 711 166 711 300 711 c 0,8,9
 435 711 435 711 506 614.5 c 128,-1,10
 577 518 577 518 577 347 c 0,11,0
 577 178 577 178 505.5 80.5 c 128,-1,1
383.5 533 m 128,-1,13
 358 591 358 591 300 591 c 256,14,15
 242 591 242 591 216.5 533 c 128,-1,16
 191 475 191 475 191 347 c 256,17,18
 191 219 191 219 216.5 161 c 128,-1,19
 242 103 242 103 300 103 c 0,20,21
 359 103 359 103 384 161 c 128,-1,22
 409 219 409 219 409 347 c 256,23,12
 409 475 409 475 383.5 533 c 128,-1,13
EndSplineSet
Substitution2: "Single Substitution lookup 159 subtable" ordmasculine
Substitution2: "'aalt' Access All Alternates lookup 0 subtable" ordmasculine
EndChar

StartChar: Oslash
Encoding: 216 216 82
Width: 600
GlyphClass: 2
Flags: W
AnchorPoint: "Anchor-7" 300 693 basechar 0
AnchorPoint: "Anchor-6" 300 0 basechar 0
LayerCount: 2
Fore
SplineSet
545.5 535.5 m 128,-1,1
 577 455 577 455 577 347 c 0,2,3
 577 178 577 178 505.5 80.5 c 128,-1,4
 434 -17 434 -17 300 -17 c 0,5,6
 276 -17 276 -17 248 -12 c 1,7,-1
 220 -109 l 1,8,-1
 109 -76 l 1,9,-1
 143 34 l 1,10,11
 85 79 85 79 54 159.5 c 128,-1,12
 23 240 23 240 23 347 c 0,13,14
 23 516 23 516 94.5 613.5 c 128,-1,15
 166 711 166 711 300 711 c 0,16,17
 330 711 330 711 351 707 c 1,18,-1
 380 803 l 1,19,-1
 491 770 l 1,20,-1
 456 661 l 1,21,0
 514 616 514 616 545.5 535.5 c 128,-1,1
212 535.5 m 128,-1,23
 185 477 185 477 185 347 c 0,24,25
 185 224 185 224 208 166 c 1,26,-1
 332 590 l 1,27,28
 319 594 319 594 300 594 c 0,29,22
 239 594 239 594 212 535.5 c 128,-1,23
388.5 158.5 m 128,-1,31
 415 217 415 217 415 347 c 0,32,33
 415 467 415 467 393 526 c 1,34,-1
 270 104 l 1,35,36
 282 100 282 100 300 100 c 0,37,30
 362 100 362 100 388.5 158.5 c 128,-1,31
EndSplineSet
EndChar

StartChar: OE
Encoding: 338 338 85
Width: 600
GlyphClass: 2
Flags: W
AnchorPoint: "Anchor-7" 300 693 basechar 0
AnchorPoint: "Anchor-6" 300 0 basechar 0
LayerCount: 2
Fore
SplineSet
271 706.5 m 128,-1,1
 292 702 292 702 320 693 c 1,2,-1
 596 693 l 1,3,-1
 580 582 l 1,4,-1
 398 582 l 1,5,6
 431 516 431 516 437 406 c 1,7,-1
 558 406 l 1,8,-1
 558 296 l 1,9,-1
 438 296 l 1,10,11
 432 185 432 185 393 111 c 1,12,-1
 597 111 l 1,13,-1
 597 0 l 1,14,-1
 316 0 l 1,15,16
 288 -9 288 -9 268.5 -13 c 128,-1,17
 249 -17 249 -17 225 -17 c 0,18,19
 113 -17 113 -17 61.5 75.5 c 128,-1,20
 10 168 10 168 10 347 c 0,21,22
 10 711 10 711 225 711 c 0,23,0
 250 711 250 711 271 706.5 c 128,-1,1
179.5 574 m 128,-1,25
 163 549 163 549 156 495 c 128,-1,26
 149 441 149 441 149 347 c 0,27,28
 149 210 149 210 166.5 152 c 128,-1,29
 184 94 184 94 226 94 c 0,30,31
 269 94 269 94 286.5 151.5 c 128,-1,32
 304 209 304 209 304 347 c 0,33,34
 304 443 304 443 297 497 c 128,-1,35
 290 551 290 551 273 575 c 128,-1,36
 256 599 256 599 226 599 c 256,37,24
 196 599 196 599 179.5 574 c 128,-1,25
EndSplineSet
EndChar

StartChar: P
Encoding: 80 80 86
Width: 600
GlyphClass: 2
Flags: W
AnchorPoint: "Anchor-7" 300 693 basechar 0
AnchorPoint: "Anchor-6" 300 0 basechar 0
LayerCount: 2
Fore
SplineSet
502.5 290.5 m 128,-1,1
 429 231 429 231 302 231 c 2,2,-1
 226 231 l 1,3,-1
 226 0 l 1,4,-1
 62 0 l 1,5,-1
 62 693 l 1,6,-1
 280 693 l 2,7,8
 424 693 424 693 500 636.5 c 128,-1,9
 576 580 576 580 576 467 c 0,10,0
 576 350 576 350 502.5 290.5 c 128,-1,1
283 576 m 2,12,-1
 226 576 l 1,13,-1
 226 349 l 1,14,-1
 291 349 l 2,15,16
 347 349 347 349 377.5 378 c 128,-1,17
 408 407 408 407 408 467 c 0,18,11
 408 576 408 576 283 576 c 2,12,-1
EndSplineSet
EndChar

StartChar: Thorn
Encoding: 222 222 87
Width: 600
GlyphClass: 2
Flags: W
AnchorPoint: "Anchor-7" 300 693 basechar 0
AnchorPoint: "Anchor-6" 300 0 basechar 0
LayerCount: 2
Fore
SplineSet
224 581 m 1,0,-1
 279 581 l 2,1,2
 422 581 422 581 499 524 c 128,-1,3
 576 467 576 467 576 354 c 0,4,5
 576 234 576 234 504.5 175 c 128,-1,6
 433 116 433 116 301 116 c 2,7,-1
 224 116 l 1,8,-1
 224 0 l 1,9,-1
 59 0 l 1,10,-1
 59 693 l 1,11,-1
 224 693 l 1,12,-1
 224 581 l 1,0,-1
224 464 m 1,13,-1
 224 235 l 1,14,-1
 290 235 l 2,15,16
 347 235 347 235 376.5 262.5 c 128,-1,17
 406 290 406 290 406 353 c 0,18,19
 406 410 406 410 375.5 437 c 128,-1,20
 345 464 345 464 284 464 c 2,21,-1
 224 464 l 1,13,-1
EndSplineSet
EndChar

StartChar: Q
Encoding: 81 81 88
Width: 600
GlyphClass: 2
Flags: W
AnchorPoint: "Anchor-7" 300 693 basechar 0
AnchorPoint: "Anchor-6" 300 0 basechar 0
LayerCount: 2
Fore
SplineSet
429 40 m 1,1,2
 513 26 513 26 559.5 -10 c 128,-1,3
 606 -46 606 -46 634 -127 c 1,4,-1
 500 -173 l 1,5,6
 476 -116 476 -116 451 -82.5 c 128,-1,7
 426 -49 426 -49 387.5 -31.5 c 128,-1,8
 349 -14 349 -14 290 -14 c 0,9,10
 162 -14 162 -14 97 80.5 c 128,-1,11
 32 175 32 175 32 347 c 0,12,13
 32 517 32 517 101 614 c 128,-1,14
 170 711 170 711 303 711 c 0,15,16
 437 711 437 711 505.5 615 c 128,-1,17
 574 519 574 519 574 347 c 0,18,0
 574 114 574 114 429 40 c 1,1,2
395 487.5 m 128,-1,20
 386 540 386 540 364 565 c 128,-1,21
 342 590 342 590 303 590 c 256,22,23
 264 590 264 590 242 564.5 c 128,-1,24
 220 539 220 539 211 486.5 c 128,-1,25
 202 434 202 434 202 347 c 0,26,27
 202 217 202 217 224.5 160 c 128,-1,28
 247 103 247 103 303 103 c 0,29,30
 343 103 343 103 364.5 128.5 c 128,-1,31
 386 154 386 154 395 206.5 c 128,-1,32
 404 259 404 259 404 347 c 256,33,19
 404 435 404 435 395 487.5 c 128,-1,20
EndSplineSet
EndChar

StartChar: R
Encoding: 82 82 89
Width: 600
GlyphClass: 2
Flags: W
AnchorPoint: "Anchor-7" 300 693 basechar 0
AnchorPoint: "Anchor-6" 310 0 basechar 0
LayerCount: 2
Fore
SplineSet
523.5 364.5 m 128,-1,1
 486 317 486 317 423 292 c 1,2,-1
 604 0 l 1,3,-1
 418 0 l 1,4,-1
 268 265 l 1,5,-1
 222 265 l 1,6,-1
 222 0 l 1,7,-1
 58 0 l 1,8,-1
 58 693 l 1,9,-1
 276 693 l 2,10,11
 419 693 419 693 490 641 c 128,-1,12
 561 589 561 589 561 482 c 0,13,0
 561 412 561 412 523.5 364.5 c 128,-1,1
363.5 555 m 128,-1,15
 335 578 335 578 276 578 c 2,16,-1
 222 578 l 1,17,-1
 222 378 l 1,18,-1
 283 378 l 2,19,20
 337 378 337 378 364.5 403 c 128,-1,21
 392 428 392 428 392 482 c 0,22,14
 392 532 392 532 363.5 555 c 128,-1,15
EndSplineSet
EndChar

StartChar: S
Encoding: 83 83 93
Width: 600
GlyphClass: 2
Flags: W
AnchorPoint: "Anchor-7" 310 693 basechar 0
AnchorPoint: "Anchor-6" 300 0 basechar 0
LayerCount: 2
Fore
SplineSet
534 88 m 128,-1,1
 500 38 500 38 436.5 10.5 c 128,-1,2
 373 -17 373 -17 286 -17 c 0,3,4
 114 -17 114 -17 12 83 c 1,5,-1
 95 175 l 1,6,7
 174 105 174 105 282 105 c 0,8,9
 334 105 334 105 365.5 127.5 c 128,-1,10
 397 150 397 150 397 190 c 0,11,12
 397 228 397 228 370.5 249.5 c 128,-1,13
 344 271 344 271 272 293 c 0,14,15
 150 330 150 330 99 380 c 128,-1,16
 48 430 48 430 48 509 c 0,17,18
 48 571 48 571 82.5 617 c 128,-1,19
 117 663 117 663 176.5 687 c 128,-1,20
 236 711 236 711 309 711 c 0,21,22
 462 711 462 711 557 621 c 1,23,-1
 480 532 l 1,24,25
 445 561 445 561 404.5 575.5 c 128,-1,26
 364 590 364 590 321 590 c 0,27,28
 273 590 273 590 245.5 572.5 c 128,-1,29
 218 555 218 555 218 522 c 0,30,31
 218 500 218 500 230.5 485 c 128,-1,32
 243 470 243 470 272 457 c 128,-1,33
 301 444 301 444 359 426 c 0,34,35
 465 394 465 394 516.5 343.5 c 128,-1,36
 568 293 568 293 568 203 c 0,37,0
 568 138 568 138 534 88 c 128,-1,1
EndSplineSet
EndChar

StartChar: Scedilla
Encoding: 350 350 96
Width: 600
GlyphClass: 2
Flags: W
AnchorPoint: "Anchor-7" 310 693 basechar 0
AnchorPoint: "Anchor-6" 300 0 basechar 0
LayerCount: 2
Fore
SplineSet
505 54 m 128,-1,1
 442 -5 442 -5 330 -15 c 1,2,-1
 330 -48 l 1,3,4
 381 -54 381 -54 407 -80 c 128,-1,5
 433 -106 433 -106 433 -147 c 0,6,7
 433 -198 433 -198 392 -230 c 128,-1,8
 351 -262 351 -262 284 -262 c 0,9,10
 250 -262 250 -262 219.5 -253.5 c 128,-1,11
 189 -245 189 -245 167 -232 c 1,12,-1
 203 -159 l 1,13,14
 237 -176 237 -176 267 -176 c 0,15,16
 320 -176 320 -176 320 -145 c 0,17,18
 320 -126 320 -126 298 -119 c 128,-1,19
 276 -112 276 -112 228 -112 c 1,20,-1
 239 -15 l 1,21,22
 100 -3 100 -3 12 83 c 1,23,-1
 95 175 l 1,24,25
 174 105 174 105 282 105 c 0,26,27
 334 105 334 105 365.5 127.5 c 128,-1,28
 397 150 397 150 397 190 c 0,29,30
 397 228 397 228 370.5 249.5 c 128,-1,31
 344 271 344 271 272 293 c 0,32,33
 150 330 150 330 99 380 c 128,-1,34
 48 430 48 430 48 509 c 0,35,36
 48 571 48 571 82.5 617 c 128,-1,37
 117 663 117 663 176.5 687 c 128,-1,38
 236 711 236 711 309 711 c 0,39,40
 462 711 462 711 557 621 c 1,41,-1
 480 532 l 1,42,43
 445 561 445 561 404.5 575.5 c 128,-1,44
 364 590 364 590 321 590 c 0,45,46
 273 590 273 590 245.5 572.5 c 128,-1,47
 218 555 218 555 218 522 c 0,48,49
 218 500 218 500 230.5 485 c 128,-1,50
 243 470 243 470 272 457 c 128,-1,51
 301 444 301 444 359 426 c 0,52,53
 465 394 465 394 516.5 343.5 c 128,-1,54
 568 293 568 293 568 203 c 256,55,0
 568 113 568 113 505 54 c 128,-1,1
EndSplineSet
Substitution2: "'locl' Localized Forms in Latin lookup 16 subtable" Scommaaccent
Substitution2: "'locl' Localized Forms in Latin lookup 15 subtable" Scommaaccent
Substitution2: "'aalt' Access All Alternates lookup 0 subtable" Scommaaccent
EndChar

StartChar: T
Encoding: 84 84 99
Width: 600
GlyphClass: 2
Flags: W
AnchorPoint: "Anchor-7" 299 693 basechar 0
AnchorPoint: "Anchor-6" 299 0 basechar 0
LayerCount: 2
Fore
SplineSet
381 567 m 1,0,-1
 381 0 l 1,1,-1
 217 0 l 1,2,-1
 217 567 l 1,3,-1
 22 567 l 1,4,-1
 22 693 l 1,5,-1
 583 693 l 1,6,-1
 567 567 l 1,7,-1
 381 567 l 1,0,-1
EndSplineSet
EndChar

StartChar: Tbar
Encoding: 358 358 100
Width: 600
GlyphClass: 2
Flags: W
AnchorPoint: "Anchor-7" 299 693 basechar 0
AnchorPoint: "Anchor-6" 299 0 basechar 0
LayerCount: 2
Fore
SplineSet
567 567 m 1,0,-1
 381 567 l 1,1,-1
 381 406 l 1,2,-1
 498 406 l 1,3,-1
 498 314 l 1,4,-1
 381 314 l 1,5,-1
 381 0 l 1,6,-1
 217 0 l 1,7,-1
 217 314 l 1,8,-1
 101 314 l 1,9,-1
 101 406 l 1,10,-1
 217 406 l 1,11,-1
 217 567 l 1,12,-1
 22 567 l 1,13,-1
 22 693 l 1,14,-1
 583 693 l 1,15,-1
 567 567 l 1,0,-1
EndSplineSet
EndChar

StartChar: uni0162
Encoding: 354 354 102
Width: 600
GlyphClass: 2
Flags: W
AnchorPoint: "Anchor-7" 299 693 basechar 0
AnchorPoint: "Anchor-6" 299 0 basechar 0
LayerCount: 2
Fore
SplineSet
347 0 m 1,0,-1
 347 -48 l 1,1,2
 398 -54 398 -54 424 -80 c 128,-1,3
 450 -106 450 -106 450 -147 c 0,4,5
 450 -198 450 -198 409 -230 c 128,-1,6
 368 -262 368 -262 301 -262 c 0,7,8
 267 -262 267 -262 236.5 -253.5 c 128,-1,9
 206 -245 206 -245 184 -232 c 1,10,-1
 220 -159 l 1,11,12
 254 -176 254 -176 284 -176 c 0,13,14
 337 -176 337 -176 337 -145 c 0,15,16
 337 -126 337 -126 315 -119 c 128,-1,17
 293 -112 293 -112 245 -112 c 1,18,-1
 257 0 l 1,19,-1
 217 0 l 1,20,-1
 217 567 l 1,21,-1
 22 567 l 1,22,-1
 22 693 l 1,23,-1
 583 693 l 1,24,-1
 567 567 l 1,25,-1
 381 567 l 1,26,-1
 381 0 l 1,27,-1
 347 0 l 1,0,-1
EndSplineSet
Substitution2: "'locl' Localized Forms in Latin lookup 16 subtable" uni021A
Substitution2: "'locl' Localized Forms in Latin lookup 15 subtable" uni021A
Substitution2: "'aalt' Access All Alternates lookup 0 subtable" uni021A
EndChar

StartChar: U
Encoding: 85 85 104
Width: 600
GlyphClass: 2
Flags: W
AnchorPoint: "Anchor-7" 300 693 basechar 0
AnchorPoint: "Anchor-6" 300 0 basechar 0
LayerCount: 2
Fore
SplineSet
558 232 m 2,0,1
 558 160 558 160 529 103.5 c 128,-1,2
 500 47 500 47 442 15 c 128,-1,3
 384 -17 384 -17 300 -17 c 0,4,5
 174 -17 174 -17 108 50 c 128,-1,6
 42 117 42 117 42 232 c 2,7,-1
 42 693 l 1,8,-1
 207 693 l 1,9,-1
 207 293 l 2,10,11
 207 226 207 226 214 186 c 128,-1,12
 221 146 221 146 241.5 125.5 c 128,-1,13
 262 105 262 105 300 105 c 256,14,15
 338 105 338 105 358.5 125.5 c 128,-1,16
 379 146 379 146 386 186 c 128,-1,17
 393 226 393 226 393 293 c 2,18,-1
 393 693 l 1,19,-1
 558 693 l 1,20,-1
 558 232 l 2,0,1
EndSplineSet
EndChar

StartChar: Uogonek
Encoding: 370 370 112
Width: 600
GlyphClass: 2
Flags: W
AnchorPoint: "Anchor-7" 300 693 basechar 0
AnchorPoint: "Anchor-6" 300 0 basechar 0
LayerCount: 2
Fore
SplineSet
558 693 m 1,0,-1
 558 232 l 2,1,2
 558 143 558 143 515 80 c 128,-1,3
 472 17 472 17 389 -6 c 1,4,5
 333 -27 333 -27 311.5 -52.5 c 128,-1,6
 290 -78 290 -78 290 -110 c 0,7,8
 290 -134 290 -134 305.5 -146.5 c 128,-1,9
 321 -159 321 -159 348 -159 c 0,10,11
 372 -159 372 -159 402 -152 c 1,12,-1
 390 -245 l 1,13,14
 361 -253 361 -253 331 -253 c 0,15,16
 265 -253 265 -253 222.5 -220.5 c 128,-1,17
 180 -188 180 -188 180 -130 c 0,18,19
 180 -56 180 -56 241 -13 c 1,20,21
 143 2 143 2 92.5 67 c 128,-1,22
 42 132 42 132 42 232 c 2,23,-1
 42 693 l 1,24,-1
 207 693 l 1,25,-1
 207 293 l 2,26,27
 207 226 207 226 214 186 c 128,-1,28
 221 146 221 146 241.5 125.5 c 128,-1,29
 262 105 262 105 300 105 c 256,30,31
 338 105 338 105 358.5 125.5 c 128,-1,32
 379 146 379 146 386 186 c 128,-1,33
 393 226 393 226 393 293 c 2,34,-1
 393 693 l 1,35,-1
 558 693 l 1,0,-1
EndSplineSet
EndChar

StartChar: V
Encoding: 86 86 115
Width: 600
GlyphClass: 2
Flags: W
AnchorPoint: "Anchor-7" 300 693 basechar 0
AnchorPoint: "Anchor-6" 300 0 basechar 0
LayerCount: 2
Fore
SplineSet
303 128 m 1,0,-1
 433 693 l 1,1,-1
 601 693 l 1,2,-1
 401 0 l 1,3,-1
 199 0 l 1,4,-1
 0 693 l 1,5,-1
 174 693 l 1,6,-1
 303 128 l 1,0,-1
EndSplineSet
EndChar

StartChar: W
Encoding: 87 87 116
Width: 600
GlyphClass: 2
Flags: W
AnchorPoint: "Anchor-7" 300 693 basechar 0
AnchorPoint: "Anchor-6" 300 0 basechar 0
LayerCount: 2
Fore
SplineSet
603 693 m 1,0,-1
 522 0 l 1,1,-1
 352 0 l 1,2,-1
 301 496 l 1,3,-1
 245 0 l 1,4,-1
 72 0 l 1,5,-1
 -3 693 l 1,6,-1
 150 693 l 1,7,-1
 174 140 l 1,8,-1
 231 613 l 1,9,-1
 373 613 l 1,10,-1
 426 140 l 1,11,-1
 460 693 l 1,12,-1
 603 693 l 1,0,-1
EndSplineSet
EndChar

StartChar: X
Encoding: 88 88 121
Width: 600
GlyphClass: 2
Flags: W
AnchorPoint: "Anchor-7" 300 693 basechar 0
AnchorPoint: "Anchor-6" 300 0 basechar 0
LayerCount: 2
Fore
SplineSet
19 693 m 1,0,-1
 196 693 l 1,1,-1
 300 471 l 1,2,-1
 407 693 l 1,3,-1
 580 693 l 1,4,-1
 396 375 l 1,5,-1
 597 0 l 1,6,-1
 420 0 l 1,7,-1
 298 264 l 1,8,-1
 178 0 l 1,9,-1
 4 0 l 1,10,-1
 200 368 l 1,11,-1
 19 693 l 1,0,-1
EndSplineSet
EndChar

StartChar: Y
Encoding: 89 89 122
Width: 600
GlyphClass: 2
Flags: W
AnchorPoint: "Anchor-7" 300 693 basechar 0
AnchorPoint: "Anchor-6" 300 0 basechar 0
LayerCount: 2
Fore
SplineSet
382 260 m 1,0,-1
 382 0 l 1,1,-1
 218 0 l 1,2,-1
 218 259 l 1,3,-1
 -8 693 l 1,4,-1
 172 693 l 1,5,-1
 303 395 l 1,6,-1
 435 693 l 1,7,-1
 608 693 l 1,8,-1
 382 260 l 1,0,-1
EndSplineSet
EndChar

StartChar: Z
Encoding: 90 90 127
Width: 600
GlyphClass: 2
Flags: W
AnchorPoint: "Anchor-7" 313 693 basechar 0
AnchorPoint: "Anchor-6" 300 0 basechar 0
LayerCount: 2
Fore
SplineSet
232 131 m 1,0,-1
 562 131 l 1,1,-1
 545 0 l 1,2,-1
 39 0 l 1,3,-1
 39 123 l 1,4,-1
 368 566 l 1,5,-1
 75 566 l 1,6,-1
 75 693 l 1,7,-1
 554 693 l 1,8,-1
 554 569 l 1,9,-1
 232 131 l 1,0,-1
EndSplineSet
EndChar

StartChar: a
Encoding: 97 97 136
Width: 600
GlyphClass: 2
Flags: W
AnchorPoint: "Anchor-7" 293 531 basechar 0
AnchorPoint: "Anchor-6" 300 0 basechar 0
LayerCount: 2
Fore
SplineSet
525 110 m 128,-1,1
 533 96 533 96 552 89 c 1,2,-1
 519 -15 l 1,3,4
 471 -10 471 -10 439 6.5 c 128,-1,5
 407 23 407 23 389 55 c 1,6,7
 359 20 359 20 313 1.5 c 128,-1,8
 267 -17 267 -17 215 -17 c 0,9,10
 133 -17 133 -17 84 29.5 c 128,-1,11
 35 76 35 76 35 150 c 0,12,13
 35 236 35 236 103 283.5 c 128,-1,14
 171 331 171 331 294 331 c 2,15,-1
 365 331 l 1,16,-1
 365 350 l 2,17,18
 365 432 365 432 260 432 c 0,19,20
 233 432 233 432 192.5 424.5 c 128,-1,21
 152 417 152 417 114 404 c 1,22,-1
 78 509 l 1,23,24
 129 528 129 528 184.5 538.5 c 128,-1,25
 240 549 240 549 285 549 c 0,26,27
 517 549 517 549 517 361 c 2,28,-1
 517 153 l 2,29,0
 517 124 517 124 525 110 c 128,-1,1
323.5 111.5 m 128,-1,31
 351 127 351 127 365 154 c 1,32,-1
 365 241 l 1,33,-1
 326 241 l 2,34,35
 198 241 198 241 198 161 c 0,36,37
 198 130 198 130 216.5 113 c 128,-1,38
 235 96 235 96 269 96 c 0,39,30
 296 96 296 96 323.5 111.5 c 128,-1,31
EndSplineSet
Substitution2: "Single Substitution lookup 159 subtable" ordfeminine
Substitution2: "'aalt' Access All Alternates lookup 0 subtable" ordfeminine
EndChar

StartChar: aogonek
Encoding: 261 261 143
Width: 600
GlyphClass: 2
Flags: W
AnchorPoint: "Anchor-7" 293 531 basechar 0
AnchorPoint: "Anchor-6" 300 0 basechar 0
LayerCount: 2
Fore
SplineSet
429 -64 m 128,-1,1
 404 -91 404 -91 404 -125 c 0,2,3
 404 -149 404 -149 419.5 -161.5 c 128,-1,4
 435 -174 435 -174 462 -174 c 0,5,6
 486 -174 486 -174 516 -167 c 1,7,-1
 504 -260 l 1,8,9
 475 -268 475 -268 445 -268 c 0,10,11
 379 -268 379 -268 336.5 -235.5 c 128,-1,12
 294 -203 294 -203 294 -145 c 256,13,14
 294 -87 294 -87 329 -50.5 c 128,-1,15
 364 -14 364 -14 430 12 c 1,16,17
 403 29 403 29 389 55 c 1,18,19
 359 20 359 20 313 1.5 c 128,-1,20
 267 -17 267 -17 215 -17 c 0,21,22
 133 -17 133 -17 84 29.5 c 128,-1,23
 35 76 35 76 35 150 c 0,24,25
 35 236 35 236 103 283.5 c 128,-1,26
 171 331 171 331 294 331 c 2,27,-1
 365 331 l 1,28,-1
 365 350 l 2,29,30
 365 432 365 432 260 432 c 0,31,32
 233 432 233 432 192.5 424.5 c 128,-1,33
 152 417 152 417 114 404 c 1,34,-1
 78 509 l 1,35,36
 129 528 129 528 184.5 538.5 c 128,-1,37
 240 549 240 549 285 549 c 0,38,39
 517 549 517 549 517 361 c 2,40,-1
 517 153 l 2,41,42
 517 124 517 124 525 110 c 128,-1,43
 533 96 533 96 552 89 c 1,44,-1
 519 -15 l 1,45,0
 454 -37 454 -37 429 -64 c 128,-1,1
365 241 m 1,46,-1
 326 241 l 2,47,48
 198 241 198 241 198 161 c 0,49,50
 198 130 198 130 216.5 113 c 128,-1,51
 235 96 235 96 269 96 c 0,52,53
 296 96 296 96 323.5 111.5 c 128,-1,54
 351 127 351 127 365 154 c 1,55,-1
 365 241 l 1,46,-1
EndSplineSet
EndChar

StartChar: ae
Encoding: 230 230 146
Width: 600
GlyphClass: 2
Flags: W
AnchorPoint: "Anchor-7" 302 531 basechar 0
AnchorPoint: "Anchor-6" 0 0 basechar 0
LayerCount: 2
Fore
SplineSet
559.5 480.5 m 128,-1,1
 600 412 600 412 600 276 c 0,2,3
 600 250 600 250 597 226 c 1,4,-1
 356 226 l 1,5,6
 369 87 369 87 453 87 c 0,7,8
 476 87 476 87 496.5 95 c 128,-1,9
 517 103 517 103 540 119 c 1,10,-1
 600 40 l 1,11,12
 533 -17 533 -17 444 -17 c 0,13,14
 338 -17 338 -17 284 67 c 1,15,16
 254 22 254 22 223 2.5 c 128,-1,17
 192 -17 192 -17 143 -17 c 0,18,19
 74 -17 74 -17 34 30 c 128,-1,20
 -6 77 -6 77 -6 152 c 0,21,22
 -6 238 -6 238 44 282.5 c 128,-1,23
 94 327 94 327 196 327 c 2,24,-1
 237 327 l 1,25,-1
 237 350 l 2,26,27
 237 451 237 451 148 451 c 0,28,29
 124 451 124 451 104.5 445.5 c 128,-1,30
 85 440 85 440 55 426 c 1,31,-1
 19 513 l 1,32,33
 61 532 61 532 94 540.5 c 128,-1,34
 127 549 127 549 164 549 c 0,35,36
 216 549 216 549 249 530.5 c 128,-1,37
 282 512 282 512 302 478 c 1,38,39
 321 511 321 511 352.5 530 c 128,-1,40
 384 549 384 549 428 549 c 0,41,0
 519 549 519 549 559.5 480.5 c 128,-1,1
375.5 419 m 128,-1,43
 360 388 360 388 356 312 c 1,44,-1
 481 312 l 1,45,46
 480 386 480 386 468 418 c 128,-1,47
 456 450 456 450 422 450 c 0,48,42
 391 450 391 450 375.5 419 c 128,-1,43
216 242 m 2,49,50
 168 242 168 242 147 221 c 128,-1,51
 126 200 126 200 126 159 c 0,52,53
 126 124 126 124 138 105 c 128,-1,54
 150 86 150 86 172 86 c 0,55,56
 192 86 192 86 209 101 c 128,-1,57
 226 116 226 116 242 148 c 1,58,59
 237 198 237 198 237 242 c 1,60,-1
 216 242 l 2,49,50
EndSplineSet
EndChar

StartChar: b
Encoding: 98 98 148
Width: 600
GlyphClass: 2
Flags: W
AnchorPoint: "Anchor-7" 300 742 basechar 0
AnchorPoint: "Anchor-6" 300 0 basechar 0
LayerCount: 2
Fore
SplineSet
288.5 530 m 128,-1,1
 324 549 324 549 364 549 c 0,2,3
 463 549 463 549 511.5 475 c 128,-1,4
 560 401 560 401 560 267 c 0,5,6
 560 184 560 184 535 120 c 128,-1,7
 510 56 510 56 462 19.5 c 128,-1,8
 414 -17 414 -17 347 -17 c 0,9,10
 307 -17 307 -17 273 0 c 128,-1,11
 239 17 239 17 216 48 c 1,12,-1
 210 0 l 1,13,-1
 70 0 l 1,14,-1
 70 742 l 1,15,-1
 228 759 l 1,16,-1
 228 477 l 1,17,0
 253 511 253 511 288.5 530 c 128,-1,1
397 265 m 0,19,20
 397 358 397 358 376 395 c 128,-1,21
 355 432 355 432 314 432 c 0,22,23
 265 432 265 432 228 370 c 1,24,-1
 228 146 l 1,25,26
 259 98 259 98 306 98 c 0,27,18
 397 98 397 98 397 265 c 0,19,20
EndSplineSet
EndChar

StartChar: c
Encoding: 99 99 149
Width: 600
GlyphClass: 2
Flags: W
AnchorPoint: "Anchor-7" 344 518 basechar 0
AnchorPoint: "Anchor-6" 339 0 basechar 0
LayerCount: 2
Fore
SplineSet
410 119.5 m 128,-1,1
 438 131 438 131 470 153 c 1,2,-1
 540 53 l 1,3,4
 502 21 502 21 452 2 c 128,-1,5
 402 -17 402 -17 343 -17 c 0,6,7
 258 -17 258 -17 196.5 18 c 128,-1,8
 135 53 135 53 102 116 c 128,-1,9
 69 179 69 179 69 262 c 256,10,11
 69 345 69 345 103 410 c 128,-1,12
 137 475 137 475 199.5 512 c 128,-1,13
 262 549 262 549 346 549 c 0,14,15
 405 549 405 549 452 532.5 c 128,-1,16
 499 516 499 516 540 482 c 1,17,-1
 472 387 l 1,18,19
 414 427 414 427 353 427 c 0,20,21
 234 427 234 427 234 262 c 0,22,23
 234 179 234 179 265 143.5 c 128,-1,24
 296 108 296 108 352 108 c 0,25,0
 382 108 382 108 410 119.5 c 128,-1,1
EndSplineSet
EndChar

StartChar: ccedilla
Encoding: 231 231 152
Width: 600
GlyphClass: 2
Flags: W
AnchorPoint: "Anchor-7" 344 518 basechar 0
AnchorPoint: "Anchor-6" 339 0 basechar 0
LayerCount: 2
Fore
SplineSet
463.5 6.5 m 128,-1,1
 420 -12 420 -12 369 -16 c 1,2,-1
 369 -48 l 1,3,4
 420 -54 420 -54 446 -80 c 128,-1,5
 472 -106 472 -106 472 -147 c 0,6,7
 472 -198 472 -198 431 -230 c 128,-1,8
 390 -262 390 -262 323 -262 c 0,9,10
 289 -262 289 -262 258.5 -253.5 c 128,-1,11
 228 -245 228 -245 206 -232 c 1,12,-1
 242 -159 l 1,13,14
 276 -176 276 -176 306 -176 c 0,15,16
 359 -176 359 -176 359 -145 c 0,17,18
 359 -126 359 -126 337 -119 c 128,-1,19
 315 -112 315 -112 267 -112 c 1,20,-1
 278 -11 l 1,21,22
 180 8 180 8 124.5 80.5 c 128,-1,23
 69 153 69 153 69 262 c 0,24,25
 69 345 69 345 103 410 c 128,-1,26
 137 475 137 475 199.5 512 c 128,-1,27
 262 549 262 549 346 549 c 0,28,29
 405 549 405 549 452 532.5 c 128,-1,30
 499 516 499 516 540 482 c 1,31,-1
 472 387 l 1,32,33
 414 427 414 427 353 427 c 0,34,35
 234 427 234 427 234 262 c 0,36,37
 234 179 234 179 265 143.5 c 128,-1,38
 296 108 296 108 352 108 c 0,39,40
 382 108 382 108 410 119.5 c 128,-1,41
 438 131 438 131 470 153 c 1,42,-1
 540 53 l 1,43,0
 507 25 507 25 463.5 6.5 c 128,-1,1
EndSplineSet
EndChar

StartChar: d
Encoding: 100 100 155
Width: 600
GlyphClass: 2
Flags: W
AnchorPoint: "Anchor-7" 300 742 basechar 0
AnchorPoint: "Anchor-6" 300 0 basechar 0
LayerCount: 2
Fore
SplineSet
530 742 m 1,0,-1
 530 0 l 1,1,-1
 390 0 l 1,2,-1
 382 58 l 1,3,4
 358 24 358 24 321 3.5 c 128,-1,5
 284 -17 284 -17 235 -17 c 0,6,7
 139 -17 139 -17 89.5 59 c 128,-1,8
 40 135 40 135 40 267 c 0,9,10
 40 349 40 349 66 413 c 128,-1,11
 92 477 92 477 140 513 c 128,-1,12
 188 549 188 549 252 549 c 0,13,14
 324 549 324 549 372 499 c 1,15,-1
 372 759 l 1,16,-1
 530 742 l 1,0,-1
227 392.5 m 128,-1,18
 203 352 203 352 203 266 c 0,19,20
 203 174 203 174 224.5 136.5 c 128,-1,21
 246 99 246 99 285 99 c 0,22,23
 335 99 335 99 372 160 c 1,24,-1
 372 389 l 1,25,26
 355 411 355 411 336.5 422 c 128,-1,27
 318 433 318 433 294 433 c 0,28,17
 251 433 251 433 227 392.5 c 128,-1,18
EndSplineSet
EndChar

StartChar: eth
Encoding: 240 240 156
Width: 600
Flags: W
LayerCount: 2
Fore
SplineSet
184 631 m 1,0,1
 144 646 144 646 93 655 c 1,2,-1
 124 758 l 1,3,4
 209 746 209 746 270 721 c 1,5,-1
 343 797 l 1,6,-1
 424 727 l 1,7,-1
 371 673 l 1,8,9
 466 612 466 612 511 513 c 128,-1,10
 556 414 556 414 556 277 c 0,11,12
 556 194 556 194 525.5 127 c 128,-1,13
 495 60 495 60 435.5 21.5 c 128,-1,14
 376 -17 376 -17 294 -17 c 0,15,16
 222 -17 222 -17 164 13 c 128,-1,17
 106 43 106 43 73 100 c 128,-1,18
 40 157 40 157 40 234 c 0,19,20
 40 306 40 306 69.5 362.5 c 128,-1,21
 99 419 99 419 148 450.5 c 128,-1,22
 197 482 197 482 255 482 c 0,23,24
 298 482 298 482 329 469.5 c 128,-1,25
 360 457 360 457 388 431 c 1,26,27
 355 529 355 529 282 582 c 1,28,-1
 226 525 l 1,29,-1
 126 571 l 1,30,-1
 184 631 l 1,0,1
395 328 m 1,32,33
 357 371 357 371 296 371 c 0,34,35
 251 371 251 371 226 337 c 128,-1,36
 201 303 201 303 201 236 c 0,37,38
 201 165 201 165 226 131.5 c 128,-1,39
 251 98 251 98 297 98 c 0,40,41
 348 98 348 98 372 136.5 c 128,-1,42
 396 175 396 175 396 256 c 0,43,31
 396 305 396 305 395 328 c 1,32,33
EndSplineSet
EndChar

StartChar: dcroat
Encoding: 273 273 158
Width: 600
GlyphClass: 2
Flags: W
AnchorPoint: "Anchor-7" 282 742 basechar 0
AnchorPoint: "Anchor-6" 282 0 basechar 0
LayerCount: 2
Fore
SplineSet
592 593 m 1,0,-1
 512 593 l 1,1,-1
 512 0 l 1,2,-1
 372 0 l 1,3,-1
 364 58 l 1,4,5
 340 24 340 24 303 3.5 c 128,-1,6
 266 -17 266 -17 217 -17 c 0,7,8
 121 -17 121 -17 71.5 59 c 128,-1,9
 22 135 22 135 22 267 c 0,10,11
 22 349 22 349 48 413 c 128,-1,12
 74 477 74 477 122 513 c 128,-1,13
 170 549 170 549 234 549 c 0,14,15
 306 549 306 549 354 499 c 1,16,-1
 354 593 l 1,17,-1
 231 593 l 1,18,-1
 231 685 l 1,19,-1
 354 685 l 1,20,-1
 354 759 l 1,21,-1
 512 742 l 1,22,-1
 512 685 l 1,23,-1
 592 685 l 1,24,-1
 592 593 l 1,0,-1
354 389 m 1,25,26
 337 411 337 411 318.5 422 c 128,-1,27
 300 433 300 433 276 433 c 0,28,29
 233 433 233 433 209 392.5 c 128,-1,30
 185 352 185 352 185 266 c 0,31,32
 185 174 185 174 206.5 136.5 c 128,-1,33
 228 99 228 99 267 99 c 0,34,35
 317 99 317 99 354 160 c 1,36,-1
 354 389 l 1,25,26
EndSplineSet
EndChar

StartChar: e
Encoding: 101 101 159
Width: 600
GlyphClass: 2
Flags: W
AnchorPoint: "Anchor-7" 307 531 basechar 0
AnchorPoint: "Anchor-6" 300 0 basechar 0
LayerCount: 2
Fore
SplineSet
335 98 m 0,1,2
 403 98 403 98 471 142 c 1,3,-1
 534 56 l 1,4,5
 495 22 495 22 441 2.5 c 128,-1,6
 387 -17 387 -17 322 -17 c 0,7,8
 233 -17 233 -17 171 18.5 c 128,-1,9
 109 54 109 54 77.5 117.5 c 128,-1,10
 46 181 46 181 46 265 c 0,11,12
 46 345 46 345 76.5 409.5 c 128,-1,13
 107 474 107 474 165.5 511.5 c 128,-1,14
 224 549 224 549 305 549 c 0,15,16
 381 549 381 549 437 516.5 c 128,-1,17
 493 484 493 484 523.5 422.5 c 128,-1,18
 554 361 554 361 554 276 c 0,19,20
 554 243 554 243 551 219 c 1,21,-1
 207 219 l 1,22,0
 222 98 222 98 335 98 c 0,1,2
236 411.5 m 128,-1,24
 210 380 210 380 205 315 c 1,25,-1
 400 315 l 1,26,27
 398 443 398 443 305 443 c 0,28,23
 262 443 262 443 236 411.5 c 128,-1,24
EndSplineSet
EndChar

StartChar: eogonek
Encoding: 281 281 168
Width: 600
GlyphClass: 2
Flags: W
AnchorPoint: "Anchor-7" 307 531 basechar 0
AnchorPoint: "Anchor-6" 300 0 basechar 0
LayerCount: 2
Fore
SplineSet
551 219 m 1,1,-1
 207 219 l 1,2,3
 222 98 222 98 335 98 c 0,4,5
 403 98 403 98 471 142 c 1,6,-1
 534 56 l 1,7,8
 489 18 489 18 435 1 c 1,9,-1
 435 0 l 1,10,11
 370 -22 370 -22 345 -49 c 128,-1,12
 320 -76 320 -76 320 -110 c 0,13,14
 320 -134 320 -134 335.5 -146.5 c 128,-1,15
 351 -159 351 -159 378 -159 c 0,16,17
 402 -159 402 -159 432 -152 c 1,18,-1
 420 -245 l 1,19,20
 391 -253 391 -253 361 -253 c 0,21,22
 295 -253 295 -253 252.5 -220.5 c 128,-1,23
 210 -188 210 -188 210 -130 c 0,24,25
 210 -60 210 -60 279 -15 c 1,26,27
 166 -3 166 -3 106 72.5 c 128,-1,28
 46 148 46 148 46 265 c 0,29,30
 46 345 46 345 76.5 409.5 c 128,-1,31
 107 474 107 474 165.5 511.5 c 128,-1,32
 224 549 224 549 305 549 c 0,33,34
 381 549 381 549 437 516.5 c 128,-1,35
 493 484 493 484 523.5 422.5 c 128,-1,36
 554 361 554 361 554 276 c 0,37,0
 554 243 554 243 551 219 c 1,1,-1
400 315 m 1,38,39
 398 443 398 443 305 443 c 0,40,41
 262 443 262 443 236 411.5 c 128,-1,42
 210 380 210 380 205 315 c 1,43,-1
 400 315 l 1,38,39
EndSplineSet
EndChar

StartChar: f
Encoding: 102 102 169
Width: 600
GlyphClass: 2
Flags: W
AnchorPoint: "Anchor-7" 370 742 basechar 0
AnchorPoint: "Anchor-6" 267 0 basechar 0
LayerCount: 2
Fore
SplineSet
590 725 m 1,1,-1
 546 622 l 1,2,3
 495 642 495 642 433 642 c 0,4,5
 386 642 386 642 365.5 625 c 128,-1,6
 345 608 345 608 345 569 c 2,7,-1
 345 498 l 1,8,-1
 518 498 l 1,9,-1
 500 388 l 1,10,-1
 345 388 l 1,11,-1
 345 0 l 1,12,-1
 188 0 l 1,13,-1
 188 388 l 1,14,-1
 76 388 l 1,15,-1
 76 498 l 1,16,-1
 188 498 l 1,17,-1
 188 574 l 2,18,19
 188 656 188 656 245.5 707.5 c 128,-1,20
 303 759 303 759 408 759 c 0,21,0
 510 759 510 759 590 725 c 1,1,-1
EndSplineSet
EndChar

StartChar: g
Encoding: 103 103 170
Width: 600
GlyphClass: 2
Flags: W
AnchorPoint: "Anchor-7" 301 531 basechar 0
AnchorPoint: "Anchor-6" 0 0 basechar 0
LayerCount: 2
Fore
SplineSet
578 500 m 1,0,1
 526 479 526 479 425 479 c 1,2,3
 477 456 477 456 502.5 424 c 128,-1,4
 528 392 528 392 528 342 c 0,5,6
 528 291 528 291 500 250.5 c 128,-1,7
 472 210 472 210 421 187 c 128,-1,8
 370 164 370 164 303 164 c 0,9,10
 270 164 270 164 241 170 c 1,11,12
 233 166 233 166 228.5 157.5 c 128,-1,13
 224 149 224 149 224 140 c 0,14,15
 224 125 224 125 235.5 116.5 c 128,-1,16
 247 108 247 108 282 108 c 2,17,-1
 370 108 l 2,18,19
 430 108 430 108 476 88 c 128,-1,20
 522 68 522 68 547 33 c 128,-1,21
 572 -2 572 -2 572 -46 c 0,22,23
 572 -129 572 -129 499.5 -175.5 c 128,-1,24
 427 -222 427 -222 288 -222 c 0,25,26
 189 -222 189 -222 132.5 -201.5 c 128,-1,27
 76 -181 76 -181 53.5 -144 c 128,-1,28
 31 -107 31 -107 31 -51 c 1,29,-1
 171 -51 l 1,30,31
 171 -76 171 -76 180.5 -90 c 128,-1,32
 190 -104 190 -104 216 -111 c 128,-1,33
 242 -118 242 -118 292 -118 c 0,34,35
 362 -118 362 -118 388.5 -102 c 128,-1,36
 415 -86 415 -86 415 -57 c 0,37,38
 415 -33 415 -33 395.5 -18.5 c 128,-1,39
 376 -4 376 -4 338 -4 c 2,40,-1
 254 -4 l 2,41,42
 172 -4 172 -4 131 25.5 c 128,-1,43
 90 55 90 55 90 101 c 0,44,45
 90 131 90 131 105.5 157.5 c 128,-1,46
 121 184 121 184 149 202 c 1,47,48
 99 229 99 229 77 265.5 c 128,-1,49
 55 302 55 302 55 354 c 0,50,51
 55 413 55 413 85 457 c 128,-1,52
 115 501 115 501 169 524.5 c 128,-1,53
 223 548 223 548 292 548 c 0,54,55
 372 546 372 546 428 563.5 c 128,-1,56
 484 581 484 581 542 616 c 1,57,-1
 578 500 l 1,0,1
236.5 421 m 128,-1,59
 215 397 215 397 215 356 c 0,60,61
 215 313 215 313 237 289 c 128,-1,62
 259 265 259 265 296 265 c 0,63,64
 335 265 335 265 356 288.5 c 128,-1,65
 377 312 377 312 377 358 c 0,66,67
 377 445 377 445 296 445 c 0,68,58
 258 445 258 445 236.5 421 c 128,-1,59
EndSplineSet
EndChar

StartChar: gcommaaccent
Encoding: 291 291 173
Width: 600
GlyphClass: 2
Flags: W
AnchorPoint: "Anchor-7" 301 531 basechar 0
AnchorPoint: "Anchor-6" 0 0 basechar 0
LayerCount: 2
Fore
SplineSet
245 618 m 128,-1,1
 223 640 223 640 223 674 c 0,2,3
 223 710 223 710 246 756 c 2,4,-1
 295 853 l 1,5,-1
 375 853 l 1,6,-1
 348 738 l 1,7,8
 380 711 380 711 380 674 c 0,9,10
 380 641 380 641 357.5 618.5 c 128,-1,11
 335 596 335 596 301 596 c 256,12,0
 267 596 267 596 245 618 c 128,-1,1
578 500 m 1,13,14
 526 479 526 479 425 479 c 1,15,16
 477 456 477 456 502.5 424 c 128,-1,17
 528 392 528 392 528 342 c 0,18,19
 528 291 528 291 500 250.5 c 128,-1,20
 472 210 472 210 421 187 c 128,-1,21
 370 164 370 164 303 164 c 0,22,23
 270 164 270 164 241 170 c 1,24,25
 233 166 233 166 228.5 157.5 c 128,-1,26
 224 149 224 149 224 140 c 0,27,28
 224 125 224 125 235.5 116.5 c 128,-1,29
 247 108 247 108 282 108 c 2,30,-1
 370 108 l 2,31,32
 430 108 430 108 476 88 c 128,-1,33
 522 68 522 68 547 33 c 128,-1,34
 572 -2 572 -2 572 -46 c 0,35,36
 572 -129 572 -129 499.5 -175.5 c 128,-1,37
 427 -222 427 -222 288 -222 c 0,38,39
 189 -222 189 -222 132.5 -201.5 c 128,-1,40
 76 -181 76 -181 53.5 -144 c 128,-1,41
 31 -107 31 -107 31 -51 c 1,42,-1
 171 -51 l 1,43,44
 171 -76 171 -76 180.5 -90 c 128,-1,45
 190 -104 190 -104 216 -111 c 128,-1,46
 242 -118 242 -118 292 -118 c 0,47,48
 362 -118 362 -118 388.5 -102 c 128,-1,49
 415 -86 415 -86 415 -57 c 0,50,51
 415 -33 415 -33 395.5 -18.5 c 128,-1,52
 376 -4 376 -4 338 -4 c 2,53,-1
 254 -4 l 2,54,55
 172 -4 172 -4 131 25.5 c 128,-1,56
 90 55 90 55 90 101 c 0,57,58
 90 131 90 131 105.5 157.5 c 128,-1,59
 121 184 121 184 149 202 c 1,60,61
 99 229 99 229 77 265.5 c 128,-1,62
 55 302 55 302 55 354 c 0,63,64
 55 413 55 413 85 457 c 128,-1,65
 115 501 115 501 169 524.5 c 128,-1,66
 223 548 223 548 292 548 c 0,67,68
 372 546 372 546 428 563.5 c 128,-1,69
 484 581 484 581 542 616 c 1,70,-1
 578 500 l 1,13,14
236.5 421 m 128,-1,72
 215 397 215 397 215 356 c 0,73,74
 215 313 215 313 237 289 c 128,-1,75
 259 265 259 265 296 265 c 0,76,77
 335 265 335 265 356 288.5 c 128,-1,78
 377 312 377 312 377 358 c 0,79,80
 377 445 377 445 296 445 c 0,81,71
 258 445 258 445 236.5 421 c 128,-1,72
EndSplineSet
EndChar

StartChar: h
Encoding: 104 104 175
Width: 600
GlyphClass: 2
Flags: W
AnchorPoint: "Anchor-7" 300 742 basechar 0
AnchorPoint: "Anchor-6" 300 0 basechar 0
LayerCount: 2
Fore
SplineSet
228 478 m 1,0,1
 295 549 295 549 384 549 c 0,2,3
 454 549 454 549 492 507.5 c 128,-1,4
 530 466 530 466 530 390 c 2,5,-1
 530 0 l 1,6,-1
 372 0 l 1,7,-1
 372 346 l 2,8,9
 372 394 372 394 361 413 c 128,-1,10
 350 432 350 432 321 432 c 0,11,12
 297 432 297 432 274.5 415.5 c 128,-1,13
 252 399 252 399 228 367 c 1,14,-1
 228 0 l 1,15,-1
 70 0 l 1,16,-1
 70 742 l 1,17,-1
 228 758 l 1,18,-1
 228 478 l 1,0,1
EndSplineSet
EndChar

StartChar: hbar
Encoding: 295 295 176
Width: 600
GlyphClass: 2
Flags: W
AnchorPoint: "Anchor-7" 300 742 basechar 0
AnchorPoint: "Anchor-6" 300 0 basechar 0
LayerCount: 2
Fore
SplineSet
492 507.5 m 128,-1,1
 530 466 530 466 530 390 c 2,2,-1
 530 0 l 1,3,-1
 372 0 l 1,4,-1
 372 346 l 2,5,6
 372 394 372 394 361 413 c 128,-1,7
 350 432 350 432 321 432 c 0,8,9
 297 432 297 432 274.5 415.5 c 128,-1,10
 252 399 252 399 228 367 c 1,11,-1
 228 0 l 1,12,-1
 70 0 l 1,13,-1
 70 593 l 1,14,-1
 8 593 l 1,15,-1
 8 685 l 1,16,-1
 70 685 l 1,17,-1
 70 742 l 1,18,-1
 228 758 l 1,19,-1
 228 685 l 1,20,-1
 369 685 l 1,21,-1
 369 593 l 1,22,-1
 228 593 l 1,23,-1
 228 478 l 1,24,25
 295 549 295 549 384 549 c 0,26,0
 454 549 454 549 492 507.5 c 128,-1,1
EndSplineSet
EndChar

StartChar: i
Encoding: 105 105 178
Width: 600
GlyphClass: 2
Flags: W
AnchorPoint: "Anchor-7" 0 0 basechar 0
AnchorPoint: "Anchor-6" 300 0 basechar 0
LayerCount: 2
Fore
SplineSet
366 783.5 m 128,-1,1
 392 758 392 758 392 720 c 0,2,3
 392 681 392 681 366 656 c 128,-1,4
 340 631 340 631 299 631 c 256,5,6
 258 631 258 631 231.5 656.5 c 128,-1,7
 205 682 205 682 205 720 c 256,8,9
 205 758 205 758 231.5 783.5 c 128,-1,10
 258 809 258 809 299 809 c 256,11,0
 340 809 340 809 366 783.5 c 128,-1,1
394 531 m 1,12,-1
 394 108 l 1,13,-1
 530 108 l 1,14,-1
 530 0 l 1,15,-1
 86 0 l 1,16,-1
 86 108 l 1,17,-1
 236 108 l 1,18,-1
 236 423 l 1,19,-1
 91 423 l 1,20,-1
 91 531 l 1,21,-1
 394 531 l 1,12,-1
EndSplineSet
Substitution2: "'locl' Localized Forms in Latin lookup 21 subtable" i.loclTRK
Substitution2: "'locl' Localized Forms in Latin lookup 19 subtable" i.loclTRK
Substitution2: "'locl' Localized Forms in Latin lookup 17 subtable" i.loclTRK
Substitution2: "'locl' Localized Forms in Latin lookup 14 subtable" i.loclTRK
Substitution2: "'locl' Localized Forms in Latin lookup 13 subtable" i.loclTRK
Substitution2: "'aalt' Access All Alternates lookup 0 subtable" i.loclTRK
EndChar

StartChar: dotlessi
Encoding: 305 305 179
Width: 600
GlyphClass: 2
Flags: W
AnchorPoint: "Anchor-7" 299 531 basechar 0
AnchorPoint: "Anchor-6" 0 0 basechar 0
LayerCount: 2
Fore
SplineSet
394 531 m 1,0,-1
 394 108 l 1,1,-1
 530 108 l 1,2,-1
 530 0 l 1,3,-1
 86 0 l 1,4,-1
 86 108 l 1,5,-1
 236 108 l 1,6,-1
 236 423 l 1,7,-1
 91 423 l 1,8,-1
 91 531 l 1,9,-1
 394 531 l 1,0,-1
EndSplineSet
EndChar

StartChar: ij
Encoding: 307 307 186
Width: 600
Flags: W
LayerCount: 2
Fore
SplineSet
250.5 783.5 m 128,-1,1
 277 758 277 758 277 720 c 0,2,3
 277 681 277 681 250.5 656 c 128,-1,4
 224 631 224 631 182 631 c 0,5,6
 142 631 142 631 115.5 656.5 c 128,-1,7
 89 682 89 682 89 720 c 256,8,9
 89 758 89 758 115.5 783.5 c 128,-1,10
 142 809 142 809 182 809 c 0,11,0
 224 809 224 809 250.5 783.5 c 128,-1,1
523 783.5 m 128,-1,13
 550 758 550 758 550 720 c 256,14,15
 550 682 550 682 523 656.5 c 128,-1,16
 496 631 496 631 456 631 c 0,17,18
 415 631 415 631 388.5 656.5 c 128,-1,19
 362 682 362 682 362 720 c 256,20,21
 362 758 362 758 388.5 783.5 c 128,-1,22
 415 809 415 809 456 809 c 0,23,12
 496 809 496 809 523 783.5 c 128,-1,13
545 122 m 2,24,25
 545 21 545 21 511 -44.5 c 128,-1,26
 477 -110 477 -110 412.5 -150.5 c 128,-1,27
 348 -191 348 -191 245 -222 c 1,28,-1
 193 -105 l 1,29,30
 264 -83 264 -83 305 -59 c 128,-1,31
 346 -35 346 -35 367 4.5 c 128,-1,32
 388 44 388 44 388 108 c 2,33,-1
 388 424 l 1,34,-1
 260 424 l 1,35,-1
 260 108 l 1,36,-1
 312 108 l 1,37,-1
 312 0 l 1,38,-1
 35 0 l 1,39,-1
 35 108 l 1,40,-1
 104 108 l 1,41,-1
 104 424 l 1,42,-1
 40 424 l 1,43,-1
 40 531 l 1,44,-1
 545 531 l 1,45,-1
 545 122 l 2,24,25
EndSplineSet
EndChar

StartChar: iogonek
Encoding: 303 303 188
Width: 600
GlyphClass: 2
Flags: W
AnchorPoint: "Anchor-7" 299 531 basechar 0
AnchorPoint: "Anchor-6" 0 0 basechar 0
LayerCount: 2
Fore
SplineSet
231.5 656.5 m 128,-1,1
 205 682 205 682 205 720 c 256,2,3
 205 758 205 758 231.5 783.5 c 128,-1,4
 258 809 258 809 299 809 c 256,5,6
 340 809 340 809 366 783.5 c 128,-1,7
 392 758 392 758 392 720 c 0,8,9
 392 681 392 681 366 656 c 128,-1,10
 340 631 340 631 299 631 c 256,11,0
 258 631 258 631 231.5 656.5 c 128,-1,1
530 108 m 1,12,-1
 530 0 l 1,13,-1
 394 0 l 1,14,15
 329 -22 329 -22 304 -49 c 128,-1,16
 279 -76 279 -76 279 -110 c 0,17,18
 279 -134 279 -134 294.5 -146.5 c 128,-1,19
 310 -159 310 -159 337 -159 c 0,20,21
 361 -159 361 -159 391 -152 c 1,22,-1
 379 -245 l 1,23,24
 350 -253 350 -253 320 -253 c 0,25,26
 254 -253 254 -253 211.5 -220.5 c 128,-1,27
 169 -188 169 -188 169 -130 c 0,28,29
 169 -47 169 -47 249 0 c 1,30,-1
 86 0 l 1,31,-1
 86 108 l 1,32,-1
 236 108 l 1,33,-1
 236 423 l 1,34,-1
 91 423 l 1,35,-1
 91 531 l 1,36,-1
 394 531 l 1,37,-1
 394 108 l 1,38,-1
 530 108 l 1,12,-1
EndSplineSet
EndChar

StartChar: j
Encoding: 106 106 190
Width: 600
GlyphClass: 2
Flags: W
AnchorPoint: "Anchor-7" 370 531 basechar 0
AnchorPoint: "Anchor-6" 0 0 basechar 0
LayerCount: 2
Fore
SplineSet
436.5 783.5 m 128,-1,1
 463 758 463 758 463 720 c 256,2,3
 463 682 463 682 436.5 656.5 c 128,-1,4
 410 631 410 631 370 631 c 0,5,6
 328 631 328 631 302 656 c 128,-1,7
 276 681 276 681 276 720 c 0,8,9
 276 758 276 758 302.5 783.5 c 128,-1,10
 329 809 329 809 370 809 c 0,11,0
 410 809 410 809 436.5 783.5 c 128,-1,1
472 154 m 2,12,13
 472 41 472 41 430 -33.5 c 128,-1,14
 388 -108 388 -108 305.5 -152.5 c 128,-1,15
 223 -197 223 -197 94 -222 c 1,16,-1
 70 -101 l 1,17,18
 155 -82 155 -82 207.5 -54 c 128,-1,19
 260 -26 260 -26 287 21.5 c 128,-1,20
 314 69 314 69 314 144 c 2,21,-1
 314 423 l 1,22,-1
 124 423 l 1,23,-1
 124 531 l 1,24,-1
 472 531 l 1,25,-1
 472 154 l 2,12,13
EndSplineSet
EndChar

StartChar: uni0237
Encoding: 567 567 191
Width: 600
GlyphClass: 2
Flags: W
AnchorPoint: "Anchor-7" 370 531 basechar 0
AnchorPoint: "Anchor-6" 0 0 basechar 0
LayerCount: 2
Fore
SplineSet
472 154 m 2,0,1
 472 41 472 41 430 -33.5 c 128,-1,2
 388 -108 388 -108 305.5 -152.5 c 128,-1,3
 223 -197 223 -197 94 -222 c 1,4,-1
 70 -101 l 1,5,6
 155 -82 155 -82 207.5 -54 c 128,-1,7
 260 -26 260 -26 287 21.5 c 128,-1,8
 314 69 314 69 314 144 c 2,9,-1
 314 423 l 1,10,-1
 124 423 l 1,11,-1
 124 531 l 1,12,-1
 472 531 l 1,13,-1
 472 154 l 2,0,1
EndSplineSet
EndChar

StartChar: k
Encoding: 107 107 193
Width: 600
GlyphClass: 2
Flags: W
AnchorPoint: "Anchor-7" 300 742 basechar 0
AnchorPoint: "Anchor-6" 300 0 basechar 0
LayerCount: 2
Fore
SplineSet
228 759 m 1,0,-1
 228 0 l 1,1,-1
 70 0 l 1,2,-1
 70 742 l 1,3,-1
 228 759 l 1,0,-1
574 531 m 1,4,-1
 399 296 l 1,5,-1
 588 0 l 1,6,-1
 408 0 l 1,7,-1
 234 291 l 1,8,-1
 409 531 l 1,9,-1
 574 531 l 1,4,-1
EndSplineSet
EndChar

StartChar: kgreenlandic
Encoding: 312 312 195
Width: 600
GlyphClass: 2
Flags: W
AnchorPoint: "Anchor-7" 300 531 basechar 0
AnchorPoint: "Anchor-6" 300 0 basechar 0
LayerCount: 2
Fore
SplineSet
228 531 m 1,0,-1
 228 0 l 1,1,-1
 70 0 l 1,2,-1
 70 531 l 1,3,-1
 228 531 l 1,0,-1
574 531 m 1,4,-1
 398 287 l 1,5,-1
 588 0 l 1,6,-1
 408 0 l 1,7,-1
 234 276 l 1,8,-1
 409 531 l 1,9,-1
 574 531 l 1,4,-1
EndSplineSet
EndChar

StartChar: l
Encoding: 108 108 196
Width: 600
GlyphClass: 2
Flags: W
AnchorPoint: "Anchor-7" 256 742 basechar 0
AnchorPoint: "Anchor-6" 355 0 basechar 0
LayerCount: 2
Fore
SplineSet
347 167 m 2,0,1
 347 108 347 108 415 108 c 0,2,3
 452 108 452 108 491 124 c 1,4,-1
 528 18 l 1,5,6
 464 -17 464 -17 375 -17 c 0,7,8
 282 -17 282 -17 235.5 36.5 c 128,-1,9
 189 90 189 90 189 187 c 2,10,-1
 189 634 l 1,11,-1
 33 634 l 1,12,-1
 33 742 l 1,13,-1
 347 742 l 1,14,-1
 347 167 l 2,0,1
EndSplineSet
EndChar

StartChar: lslash
Encoding: 322 322 201
Width: 600
GlyphClass: 2
Flags: W
AnchorPoint: "Anchor-7" 256 742 basechar 0
AnchorPoint: "Anchor-6" 355 0 basechar 0
LayerCount: 2
Fore
SplineSet
528 18 m 1,0,1
 464 -17 464 -17 375 -17 c 0,2,3
 282 -17 282 -17 235.5 36.5 c 128,-1,4
 189 90 189 90 189 187 c 2,5,-1
 189 258 l 1,6,-1
 144 231 l 1,7,-1
 89 319 l 1,8,-1
 189 380 l 1,9,-1
 189 634 l 1,10,-1
 33 634 l 1,11,-1
 33 742 l 1,12,-1
 347 742 l 1,13,-1
 347 477 l 1,14,-1
 412 517 l 1,15,-1
 468 428 l 1,16,-1
 347 354 l 1,17,-1
 347 167 l 2,18,19
 347 108 347 108 415 108 c 0,20,21
 452 108 452 108 491 124 c 1,22,-1
 528 18 l 1,0,1
EndSplineSet
EndChar

StartChar: m
Encoding: 109 109 202
Width: 600
GlyphClass: 2
Flags: W
AnchorPoint: "Anchor-7" 300 531 basechar 0
AnchorPoint: "Anchor-6" 300 0 basechar 0
LayerCount: 2
Fore
SplineSet
546.5 511.5 m 128,-1,1
 573 474 573 474 573 393 c 2,2,-1
 573 0 l 1,3,-1
 438 0 l 1,4,-1
 438 375 l 2,5,6
 438 404 438 404 432.5 415 c 128,-1,7
 427 426 427 426 412 426 c 0,8,9
 384 426 384 426 357 391 c 1,10,-1
 357 0 l 1,11,-1
 245 0 l 1,12,-1
 245 375 l 2,13,14
 245 404 245 404 239.5 415 c 128,-1,15
 234 426 234 426 219 426 c 0,16,17
 191 426 191 426 164 391 c 1,18,-1
 164 0 l 1,19,-1
 27 0 l 1,20,-1
 27 531 l 1,21,-1
 142 531 l 1,22,-1
 153 480 l 1,23,24
 179 516 179 516 204.5 532.5 c 128,-1,25
 230 549 230 549 264 549 c 0,26,27
 295 549 295 549 316 533.5 c 128,-1,28
 337 518 337 518 346 486 c 1,29,30
 400 549 400 549 463 549 c 0,31,0
 520 549 520 549 546.5 511.5 c 128,-1,1
EndSplineSet
EndChar

StartChar: n
Encoding: 110 110 203
Width: 600
GlyphClass: 2
Flags: W
AnchorPoint: "Anchor-7" 301 531 basechar 0
AnchorPoint: "Anchor-6" 301 0 basechar 0
LayerCount: 2
Fore
SplineSet
70 531 m 1,0,-1
 208 531 l 1,1,-1
 219 470 l 1,2,3
 255 510 255 510 294.5 529.5 c 128,-1,4
 334 549 334 549 384 549 c 0,5,6
 453 549 453 549 491.5 507 c 128,-1,7
 530 465 530 465 530 390 c 2,8,-1
 530 0 l 1,9,-1
 372 0 l 1,10,-1
 372 344 l 2,11,12
 372 394 372 394 361 413 c 128,-1,13
 350 432 350 432 321 432 c 0,14,15
 297 432 297 432 274.5 416.5 c 128,-1,16
 252 401 252 401 228 371 c 1,17,-1
 228 0 l 1,18,-1
 70 0 l 1,19,-1
 70 531 l 1,0,-1
EndSplineSet
EndChar

StartChar: napostrophe
Encoding: 329 329 205
Width: 600
GlyphClass: 2
Flags: W
AnchorPoint: "Anchor-7" 321 531 basechar 0
AnchorPoint: "Anchor-6" 321 0 basechar 0
LayerCount: 2
Fore
SplineSet
114 742.5 m 128,-1,1
 136 721 136 721 136 689 c 0,2,3
 136 671 136 671 130.5 655 c 128,-1,4
 125 639 125 639 112 615 c 2,5,-1
 71 535 l 1,6,-1
 -7 535 l 1,7,-1
 14 627 l 1,8,9
 -17 653 -17 653 -17 689 c 0,10,11
 -17 720 -17 720 5 742 c 128,-1,12
 27 764 27 764 59 764 c 0,13,0
 92 764 92 764 114 742.5 c 128,-1,1
90 531 m 1,14,-1
 228 531 l 1,15,-1
 239 470 l 1,16,17
 275 510 275 510 314.5 529.5 c 128,-1,18
 354 549 354 549 404 549 c 0,19,20
 473 549 473 549 511.5 507 c 128,-1,21
 550 465 550 465 550 390 c 2,22,-1
 550 0 l 1,23,-1
 392 0 l 1,24,-1
 392 344 l 2,25,26
 392 394 392 394 381 413 c 128,-1,27
 370 432 370 432 341 432 c 0,28,29
 317 432 317 432 294.5 416.5 c 128,-1,30
 272 401 272 401 248 371 c 1,31,-1
 248 0 l 1,32,-1
 90 0 l 1,33,-1
 90 531 l 1,14,-1
EndSplineSet
Ligature2: "'locl' Localized Forms in Latin lookup 22 subtable" quoteright n
Ligature2: "'locl' Localized Forms in Latin lookup 22 subtable" quotesingle n
EndChar

StartChar: eng
Encoding: 331 331 208
Width: 600
Flags: W
LayerCount: 2
Fore
SplineSet
505 -76 m 128,-1,1
 480 -129 480 -129 435.5 -160.5 c 128,-1,2
 391 -192 391 -192 319 -222 c 1,3,-1
 263 -106 l 1,4,5
 302 -89 302 -89 324.5 -71.5 c 128,-1,6
 347 -54 347 -54 359.5 -25 c 128,-1,7
 372 4 372 4 372 50 c 2,8,-1
 372 344 l 2,9,10
 372 394 372 394 361.5 413 c 128,-1,11
 351 432 351 432 321 432 c 0,12,13
 297 432 297 432 274.5 415.5 c 128,-1,14
 252 399 252 399 228 367 c 1,15,-1
 228 0 l 1,16,-1
 70 0 l 1,17,-1
 70 531 l 1,18,-1
 208 531 l 1,19,-1
 219 470 l 1,20,21
 289 549 289 549 384 549 c 0,22,23
 454 549 454 549 492 507.5 c 128,-1,24
 530 466 530 466 530 390 c 2,25,-1
 530 60 l 2,26,0
 530 -23 530 -23 505 -76 c 128,-1,1
EndSplineSet
EndChar

StartChar: o
Encoding: 111 111 210
Width: 600
GlyphClass: 2
Flags: W
AnchorPoint: "Anchor-7" 300 531 basechar 0
AnchorPoint: "Anchor-6" 300 0 basechar 0
LayerCount: 2
Fore
SplineSet
489.5 472.5 m 128,-1,1
 558 396 558 396 558 267 c 0,2,3
 558 133 558 133 490 58 c 128,-1,4
 422 -17 422 -17 300 -17 c 256,5,6
 178 -17 178 -17 110 57.5 c 128,-1,7
 42 132 42 132 42 266 c 0,8,9
 42 351 42 351 72.5 414.5 c 128,-1,10
 103 478 103 478 161.5 513.5 c 128,-1,11
 220 549 220 549 300 549 c 0,12,0
 421 549 421 549 489.5 472.5 c 128,-1,1
228 392.5 m 128,-1,14
 205 353 205 353 205 266 c 0,15,16
 205 178 205 178 228 138.5 c 128,-1,17
 251 99 251 99 300 99 c 256,18,19
 349 99 349 99 372 139 c 128,-1,20
 395 179 395 179 395 267 c 0,21,22
 395 353 395 353 372 392.5 c 128,-1,23
 349 432 349 432 300 432 c 256,24,13
 251 432 251 432 228 392.5 c 128,-1,14
EndSplineSet
Substitution2: "Single Substitution lookup 159 subtable" ordmasculine
Substitution2: "'aalt' Access All Alternates lookup 0 subtable" ordmasculine
EndChar

StartChar: oslash
Encoding: 248 248 218
Width: 600
GlyphClass: 2
Flags: W
AnchorPoint: "Anchor-7" 300 531 basechar 0
AnchorPoint: "Anchor-6" 0 0 basechar 0
LayerCount: 2
Fore
SplineSet
529 412.5 m 128,-1,1
 558 350 558 350 558 267 c 0,2,3
 558 133 558 133 490 58 c 128,-1,4
 422 -17 422 -17 300 -17 c 0,5,6
 279 -17 279 -17 268 -16 c 1,7,-1
 232 -137 l 1,8,-1
 116 -103 l 1,9,-1
 156 19 l 1,10,11
 101 53 101 53 71.5 116 c 128,-1,12
 42 179 42 179 42 266 c 0,13,14
 42 351 42 351 72.5 414.5 c 128,-1,15
 103 478 103 478 161.5 513.5 c 128,-1,16
 220 549 220 549 300 549 c 2,17,-1
 332 548 l 1,18,-1
 370 663 l 1,19,-1
 484 629 l 1,20,-1
 445 510 l 1,21,0
 500 475 500 475 529 412.5 c 128,-1,1
225.5 395 m 128,-1,23
 202 355 202 355 202 266 c 0,24,25
 202 172 202 172 220 135 c 1,26,-1
 316 434 l 1,27,28
 311 435 311 435 300 435 c 0,29,22
 249 435 249 435 225.5 395 c 128,-1,23
374.5 136 m 128,-1,31
 398 176 398 176 398 267 c 0,32,33
 398 356 398 356 381 393 c 1,34,-1
 287 96 l 1,35,-1
 300 96 l 2,36,30
 351 96 351 96 374.5 136 c 128,-1,31
EndSplineSet
EndChar

StartChar: oe
Encoding: 339 339 221
Width: 600
Flags: W
LayerCount: 2
Fore
SplineSet
567 481 m 128,-1,1
 606 413 606 413 606 276 c 0,2,3
 606 250 606 250 603 226 c 1,4,-1
 369 226 l 1,5,6
 375 154 375 154 398 120.5 c 128,-1,7
 421 87 421 87 462 87 c 0,8,9
 484 87 484 87 503.5 94.5 c 128,-1,10
 523 102 523 102 546 119 c 1,11,-1
 606 40 l 1,12,13
 539 -17 539 -17 454 -17 c 0,14,15
 352 -17 352 -17 302 63 c 1,16,17
 283 24 283 24 253 3.5 c 128,-1,18
 223 -17 223 -17 176 -17 c 0,19,20
 83 -17 83 -17 37.5 56 c 128,-1,21
 -8 129 -8 129 -8 266 c 0,22,23
 -8 398 -8 398 37.5 473.5 c 128,-1,24
 83 549 83 549 176 549 c 0,25,26
 225 549 225 549 255.5 527.5 c 128,-1,27
 286 506 286 506 305 465 c 1,28,29
 350 549 350 549 438 549 c 0,30,0
 528 549 528 549 567 481 c 128,-1,1
387 419 m 128,-1,32
 372 388 372 388 368 312 c 1,33,-1
 487 312 l 1,34,35
 486 387 486 387 475 418.5 c 128,-1,36
 464 450 464 450 432 450 c 0,37,31
 402 450 402 450 387 419 c 128,-1,32
136 394.5 m 128,-1,39
 123 357 123 357 123 266 c 0,40,41
 123 202 123 202 128.5 166 c 128,-1,42
 134 130 134 130 147 114.5 c 128,-1,43
 160 99 160 99 182 99 c 256,44,45
 204 99 204 99 216.5 114.5 c 128,-1,46
 229 130 229 130 235 166 c 128,-1,47
 241 202 241 202 241 267 c 0,48,49
 241 357 241 357 227.5 394.5 c 128,-1,50
 214 432 214 432 182 432 c 0,51,38
 149 432 149 432 136 394.5 c 128,-1,39
EndSplineSet
EndChar

StartChar: p
Encoding: 112 112 222
Width: 600
GlyphClass: 2
Flags: W
AnchorPoint: "Anchor-7" 300 531 basechar 0
AnchorPoint: "Anchor-6" 300 0 basechar 0
LayerCount: 2
Fore
SplineSet
511 475.5 m 128,-1,1
 558 402 558 402 558 267 c 0,2,3
 558 185 558 185 533.5 120.5 c 128,-1,4
 509 56 509 56 463 19.5 c 128,-1,5
 417 -17 417 -17 354 -17 c 0,6,7
 277 -17 277 -17 228 38 c 1,8,-1
 228 -205 l 1,9,-1
 70 -222 l 1,10,-1
 70 531 l 1,11,-1
 210 531 l 1,12,-1
 217 472 l 1,13,14
 248 511 248 511 286.5 530 c 128,-1,15
 325 549 325 549 364 549 c 0,16,0
 464 549 464 549 511 475.5 c 128,-1,1
228 370 m 1,18,-1
 228 146 l 1,19,20
 245 122 245 122 263.5 110.5 c 128,-1,21
 282 99 282 99 306 99 c 0,22,23
 350 99 350 99 372.5 138.5 c 128,-1,24
 395 178 395 178 395 265 c 0,25,26
 395 359 395 359 375 395.5 c 128,-1,27
 355 432 355 432 315 432 c 0,28,17
 265 432 265 432 228 370 c 1,18,-1
EndSplineSet
EndChar

StartChar: thorn
Encoding: 254 254 223
Width: 600
GlyphClass: 2
Flags: W
AnchorPoint: "Anchor-7" 300 742 basechar 0
AnchorPoint: "Anchor-6" 300 -221 basechar 0
LayerCount: 2
Fore
SplineSet
228 478 m 1,0,1
 252 512 252 512 287 530.5 c 128,-1,2
 322 549 322 549 364 549 c 0,3,4
 464 549 464 549 511 475.5 c 128,-1,5
 558 402 558 402 558 267 c 0,6,7
 558 185 558 185 533.5 120.5 c 128,-1,8
 509 56 509 56 463 19.5 c 128,-1,9
 417 -17 417 -17 354 -17 c 0,10,11
 277 -17 277 -17 228 38 c 1,12,-1
 228 -205 l 1,13,-1
 70 -222 l 1,14,-1
 70 742 l 1,15,-1
 228 759 l 1,16,-1
 228 478 l 1,0,1
228 370 m 1,18,-1
 228 146 l 1,19,20
 245 122 245 122 263.5 110.5 c 128,-1,21
 282 99 282 99 306 99 c 0,22,23
 350 99 350 99 372.5 138.5 c 128,-1,24
 395 178 395 178 395 265 c 0,25,26
 395 359 395 359 375 395.5 c 128,-1,27
 355 432 355 432 315 432 c 0,28,17
 265 432 265 432 228 370 c 1,18,-1
EndSplineSet
EndChar

StartChar: q
Encoding: 113 113 224
Width: 600
GlyphClass: 2
Flags: W
AnchorPoint: "Anchor-7" 300 531 basechar 0
AnchorPoint: "Anchor-6" 300 0 basechar 0
LayerCount: 2
Fore
SplineSet
327.5 533.5 m 128,-1,1
 361 518 361 518 385 488 c 1,2,-1
 392 531 l 1,3,-1
 530 531 l 1,4,-1
 530 -222 l 1,5,-1
 372 -205 l 1,6,-1
 372 45 l 1,7,8
 320 -17 320 -17 236 -17 c 0,9,10
 137 -17 137 -17 89.5 58 c 128,-1,11
 42 133 42 133 42 267 c 0,12,13
 42 349 42 349 67 413 c 128,-1,14
 92 477 92 477 140 513 c 128,-1,15
 188 549 188 549 255 549 c 0,16,0
 294 549 294 549 327.5 533.5 c 128,-1,1
228 393 m 128,-1,18
 205 353 205 353 205 266 c 0,19,20
 205 173 205 173 225.5 136.5 c 128,-1,21
 246 100 246 100 286 100 c 0,22,23
 337 100 337 100 372 160 c 1,24,-1
 372 389 l 1,25,26
 356 411 356 411 337.5 422 c 128,-1,27
 319 433 319 433 296 433 c 0,28,17
 251 433 251 433 228 393 c 128,-1,18
EndSplineSet
EndChar

StartChar: r
Encoding: 114 114 225
Width: 600
GlyphClass: 2
Flags: W
AnchorPoint: "Anchor-7" 325 531 basechar 0
AnchorPoint: "Anchor-6" 224 0 basechar 0
LayerCount: 2
Fore
SplineSet
563 531 m 1,1,-1
 534 309 l 1,2,-1
 434 309 l 1,3,-1
 434 406 l 1,4,5
 390 399 390 399 356 359 c 128,-1,6
 322 319 322 319 303 258 c 1,7,-1
 303 106 l 1,8,-1
 408 106 l 1,9,-1
 408 0 l 1,10,-1
 75 0 l 1,11,-1
 75 106 l 1,12,-1
 145 106 l 1,13,-1
 145 426 l 1,14,-1
 75 426 l 1,15,-1
 75 531 l 1,16,-1
 266 531 l 1,17,-1
 294 412 l 1,18,19
 323 480 323 480 367 513.5 c 128,-1,20
 411 547 411 547 475 547 c 0,21,0
 523 547 523 547 563 531 c 1,1,-1
EndSplineSet
EndChar

StartChar: s
Encoding: 115 115 229
Width: 600
GlyphClass: 2
Flags: W
AnchorPoint: "Anchor-7" 313 531 basechar 0
AnchorPoint: "Anchor-6" 301 0 basechar 0
LayerCount: 2
Fore
SplineSet
347.5 108.5 m 128,-1,1
 371 121 371 121 371 146 c 0,2,3
 371 164 371 164 361.5 175 c 128,-1,4
 352 186 352 186 326 196.5 c 128,-1,5
 300 207 300 207 245 222 c 0,6,7
 165 243 165 243 123 280.5 c 128,-1,8
 81 318 81 318 81 384 c 0,9,10
 81 457 81 457 141.5 503 c 128,-1,11
 202 549 202 549 311 549 c 0,12,13
 437 549 437 549 526 484 c 1,14,-1
 463 391 l 1,15,16
 390 436 390 436 316 436 c 0,17,18
 277 436 277 436 258.5 426 c 128,-1,19
 240 416 240 416 240 395 c 0,20,21
 240 381 240 381 249.5 371.5 c 128,-1,22
 259 362 259 362 285.5 352 c 128,-1,23
 312 342 312 342 365 327 c 0,24,25
 422 311 422 311 458.5 292 c 128,-1,26
 495 273 495 273 515 241 c 128,-1,27
 535 209 535 209 535 159 c 0,28,29
 535 103 535 103 501 63 c 128,-1,30
 467 23 467 23 410 3 c 128,-1,31
 353 -17 353 -17 284 -17 c 0,32,33
 210 -17 210 -17 150 4 c 128,-1,34
 90 25 90 25 48 63 c 1,35,-1
 127 152 l 1,36,37
 199 96 199 96 283 96 c 0,38,0
 324 96 324 96 347.5 108.5 c 128,-1,1
EndSplineSet
EndChar

StartChar: scedilla
Encoding: 351 351 232
Width: 600
GlyphClass: 2
Flags: W
AnchorPoint: "Anchor-7" 313 531 basechar 0
AnchorPoint: "Anchor-6" 301 0 basechar 0
LayerCount: 2
Fore
SplineSet
478 40 m 128,-1,1
 421 -5 421 -5 331 -15 c 1,2,-1
 331 -48 l 1,3,4
 382 -54 382 -54 408 -80 c 128,-1,5
 434 -106 434 -106 434 -147 c 0,6,7
 434 -198 434 -198 393 -230 c 128,-1,8
 352 -262 352 -262 285 -262 c 0,9,10
 251 -262 251 -262 220.5 -253.5 c 128,-1,11
 190 -245 190 -245 168 -232 c 1,12,-1
 204 -159 l 1,13,14
 238 -176 238 -176 268 -176 c 0,15,16
 321 -176 321 -176 321 -145 c 0,17,18
 321 -126 321 -126 299 -119 c 128,-1,19
 277 -112 277 -112 229 -112 c 1,20,-1
 240 -15 l 1,21,22
 123 -4 123 -4 48 63 c 1,23,-1
 127 152 l 1,24,25
 199 96 199 96 283 96 c 0,26,27
 324 96 324 96 347.5 108.5 c 128,-1,28
 371 121 371 121 371 146 c 0,29,30
 371 164 371 164 361.5 175 c 128,-1,31
 352 186 352 186 326 196.5 c 128,-1,32
 300 207 300 207 245 222 c 0,33,34
 165 243 165 243 123 280.5 c 128,-1,35
 81 318 81 318 81 384 c 0,36,37
 81 457 81 457 141.5 503 c 128,-1,38
 202 549 202 549 311 549 c 0,39,40
 437 549 437 549 526 484 c 1,41,-1
 463 391 l 1,42,43
 390 436 390 436 316 436 c 0,44,45
 277 436 277 436 258.5 426 c 128,-1,46
 240 416 240 416 240 395 c 0,47,48
 240 381 240 381 249.5 371.5 c 128,-1,49
 259 362 259 362 285.5 352 c 128,-1,50
 312 342 312 342 365 327 c 0,51,52
 422 311 422 311 458.5 292 c 128,-1,53
 495 273 495 273 515 241 c 128,-1,54
 535 209 535 209 535 159 c 0,55,0
 535 85 535 85 478 40 c 128,-1,1
EndSplineSet
Substitution2: "'locl' Localized Forms in Latin lookup 16 subtable" scommaaccent
Substitution2: "'locl' Localized Forms in Latin lookup 15 subtable" scommaaccent
Substitution2: "'aalt' Access All Alternates lookup 0 subtable" scommaaccent
EndChar

StartChar: germandbls
Encoding: 223 223 235
Width: 600
Flags: W
LayerCount: 2
Fore
SplineSet
399.5 738.5 m 128,-1,1
 445 718 445 718 469 682.5 c 128,-1,2
 493 647 493 647 493 603 c 0,3,4
 493 570 493 570 480 548 c 128,-1,5
 467 526 467 526 441 499 c 0,6,7
 422 479 422 479 412.5 464.5 c 128,-1,8
 403 450 403 450 403 432 c 0,9,10
 403 412 403 412 418 396 c 128,-1,11
 433 380 433 380 464 357 c 0,12,13
 499 331 499 331 521.5 309 c 128,-1,14
 544 287 544 287 560.5 252 c 128,-1,15
 577 217 577 217 577 168 c 0,16,17
 577 82 577 82 521 32.5 c 128,-1,18
 465 -17 465 -17 376 -17 c 0,19,20
 306 -17 306 -17 249 14 c 1,21,-1
 299 120 l 1,22,23
 331 105 331 105 356 105 c 0,24,25
 385 105 385 105 400 121 c 128,-1,26
 415 137 415 137 415 167 c 0,27,28
 415 202 415 202 397.5 224.5 c 128,-1,29
 380 247 380 247 345 273 c 0,30,31
 318 295 318 295 302.5 310 c 128,-1,32
 287 325 287 325 276 348.5 c 128,-1,33
 265 372 265 372 265 404 c 256,34,35
 265 436 265 436 275.5 459.5 c 128,-1,36
 286 483 286 483 306 512 c 0,37,38
 324 539 324 539 332 556.5 c 128,-1,39
 340 574 340 574 340 596 c 0,40,41
 340 621 340 621 326 634.5 c 128,-1,42
 312 648 312 648 287 648 c 0,43,44
 251 648 251 648 234.5 621 c 128,-1,45
 218 594 218 594 218 538 c 2,46,-1
 218 0 l 1,47,-1
 60 0 l 1,48,-1
 60 531 l 2,49,50
 60 640 60 640 119 699.5 c 128,-1,51
 178 759 178 759 291 759 c 0,52,0
 354 759 354 759 399.5 738.5 c 128,-1,1
EndSplineSet
EndChar

StartChar: t
Encoding: 116 116 236
Width: 600
GlyphClass: 2
Flags: W
AnchorPoint: "Anchor-7" 248 652 basechar 0
AnchorPoint: "Anchor-6" 360 0 basechar 0
LayerCount: 2
Fore
SplineSet
374 -17 m 0,1,2
 272 -17 272 -17 220.5 35 c 128,-1,3
 169 87 169 87 169 181 c 2,4,-1
 169 422 l 1,5,-1
 58 422 l 1,6,-1
 58 531 l 1,7,-1
 169 531 l 1,8,-1
 169 646 l 1,9,-1
 327 665 l 1,10,-1
 327 531 l 1,11,-1
 498 531 l 1,12,-1
 482 422 l 1,13,-1
 327 422 l 1,14,-1
 327 181 l 2,15,16
 327 142 327 142 345 125 c 128,-1,17
 363 108 363 108 403 108 c 0,18,19
 453 108 453 108 496 132 c 1,20,-1
 548 31 l 1,21,0
 473 -17 473 -17 374 -17 c 0,1,2
EndSplineSet
EndChar

StartChar: tbar
Encoding: 359 359 237
Width: 600
GlyphClass: 2
Flags: W
AnchorPoint: "Anchor-7" 248 652 basechar 0
AnchorPoint: "Anchor-6" 360 0 basechar 0
LayerCount: 2
Fore
SplineSet
548 31 m 1,0,1
 473 -17 473 -17 374 -17 c 0,2,3
 272 -17 272 -17 220.5 35 c 128,-1,4
 169 87 169 87 169 181 c 2,5,-1
 169 262 l 1,6,-1
 70 262 l 1,7,-1
 70 361 l 1,8,-1
 169 361 l 1,9,-1
 169 422 l 1,10,-1
 58 422 l 1,11,-1
 58 531 l 1,12,-1
 169 531 l 1,13,-1
 169 646 l 1,14,-1
 327 665 l 1,15,-1
 327 531 l 1,16,-1
 498 531 l 1,17,-1
 482 422 l 1,18,-1
 327 422 l 1,19,-1
 327 361 l 1,20,-1
 481 361 l 1,21,-1
 481 262 l 1,22,-1
 327 262 l 1,23,-1
 327 181 l 2,24,25
 327 142 327 142 345 125 c 128,-1,26
 363 108 363 108 403 108 c 0,27,28
 453 108 453 108 496 132 c 1,29,-1
 548 31 l 1,0,1
EndSplineSet
EndChar

StartChar: uni0163
Encoding: 355 355 239
Width: 600
GlyphClass: 2
Flags: W
AnchorPoint: "Anchor-7" 248 652 basechar 0
AnchorPoint: "Anchor-6" 360 0 basechar 0
LayerCount: 2
Fore
SplineSet
467 -80 m 128,-1,1
 493 -106 493 -106 493 -147 c 0,2,3
 493 -198 493 -198 452 -230 c 128,-1,4
 411 -262 411 -262 344 -262 c 0,5,6
 310 -262 310 -262 279.5 -253.5 c 128,-1,7
 249 -245 249 -245 227 -232 c 1,8,-1
 263 -159 l 1,9,10
 297 -176 297 -176 327 -176 c 0,11,12
 380 -176 380 -176 380 -145 c 0,13,14
 380 -126 380 -126 358 -119 c 128,-1,15
 336 -112 336 -112 288 -112 c 1,16,-1
 299 -8 l 1,17,18
 234 9 234 9 201.5 57.5 c 128,-1,19
 169 106 169 106 169 181 c 2,20,-1
 169 422 l 1,21,-1
 58 422 l 1,22,-1
 58 531 l 1,23,-1
 169 531 l 1,24,-1
 169 646 l 1,25,-1
 327 665 l 1,26,-1
 327 531 l 1,27,-1
 498 531 l 1,28,-1
 482 422 l 1,29,-1
 327 422 l 1,30,-1
 327 181 l 2,31,32
 327 142 327 142 345 125 c 128,-1,33
 363 108 363 108 403 108 c 0,34,35
 453 108 453 108 496 132 c 1,36,-1
 548 31 l 1,37,38
 479 -13 479 -13 390 -17 c 1,39,-1
 390 -48 l 1,40,0
 441 -54 441 -54 467 -80 c 128,-1,1
EndSplineSet
Substitution2: "'locl' Localized Forms in Latin lookup 16 subtable" uni021B
Substitution2: "'locl' Localized Forms in Latin lookup 15 subtable" uni021B
Substitution2: "'aalt' Access All Alternates lookup 0 subtable" uni021B
EndChar

StartChar: u
Encoding: 117 117 241
Width: 600
GlyphClass: 2
Flags: W
AnchorPoint: "Anchor-7" 300 531 basechar 0
AnchorPoint: "Anchor-6" 0 0 basechar 0
LayerCount: 2
Fore
SplineSet
228 168 m 2,0,1
 228 131 228 131 241.5 115.5 c 128,-1,2
 255 100 255 100 282 100 c 0,3,4
 306 100 306 100 331 115.5 c 128,-1,5
 356 131 356 131 372 158 c 1,6,-1
 372 531 l 1,7,-1
 530 531 l 1,8,-1
 530 0 l 1,9,-1
 392 0 l 1,10,-1
 385 62 l 1,11,12
 359 24 359 24 315 3.5 c 128,-1,13
 271 -17 271 -17 222 -17 c 0,14,15
 147 -17 147 -17 108.5 26.5 c 128,-1,16
 70 70 70 70 70 148 c 2,17,-1
 70 531 l 1,18,-1
 228 531 l 1,19,-1
 228 168 l 2,0,1
EndSplineSet
EndChar

StartChar: uogonek
Encoding: 371 371 249
Width: 600
GlyphClass: 2
Flags: W
AnchorPoint: "Anchor-7" 300 531 basechar 0
AnchorPoint: "Anchor-6" 0 0 basechar 0
LayerCount: 2
Fore
SplineSet
440 -49 m 128,-1,1
 415 -76 415 -76 415 -110 c 0,2,3
 415 -134 415 -134 430.5 -146.5 c 128,-1,4
 446 -159 446 -159 473 -159 c 0,5,6
 497 -159 497 -159 527 -152 c 1,7,-1
 515 -245 l 1,8,9
 486 -253 486 -253 456 -253 c 0,10,11
 390 -253 390 -253 347.5 -220.5 c 128,-1,12
 305 -188 305 -188 305 -130 c 0,13,14
 305 -84 305 -84 327.5 -52 c 128,-1,15
 350 -20 350 -20 392 4 c 1,16,-1
 385 62 l 1,17,18
 359 24 359 24 315 3.5 c 128,-1,19
 271 -17 271 -17 222 -17 c 0,20,21
 147 -17 147 -17 108.5 26.5 c 128,-1,22
 70 70 70 70 70 148 c 2,23,-1
 70 531 l 1,24,-1
 228 531 l 1,25,-1
 228 168 l 2,26,27
 228 131 228 131 241.5 115.5 c 128,-1,28
 255 100 255 100 282 100 c 0,29,30
 306 100 306 100 331 115.5 c 128,-1,31
 356 131 356 131 372 158 c 1,32,-1
 372 531 l 1,33,-1
 530 531 l 1,34,-1
 530 0 l 1,35,0
 465 -22 465 -22 440 -49 c 128,-1,1
EndSplineSet
EndChar

StartChar: v
Encoding: 118 118 252
Width: 600
GlyphClass: 2
Flags: W
AnchorPoint: "Anchor-7" 300 531 basechar 0
AnchorPoint: "Anchor-6" 300 0 basechar 0
LayerCount: 2
Fore
SplineSet
571 531 m 1,0,-1
 394 0 l 1,1,-1
 208 0 l 1,2,-1
 29 531 l 1,3,-1
 200 531 l 1,4,-1
 303 121 l 1,5,-1
 411 531 l 1,6,-1
 571 531 l 1,0,-1
EndSplineSet
EndChar

StartChar: w
Encoding: 119 119 253
Width: 600
GlyphClass: 2
Flags: W
AnchorPoint: "Anchor-7" 300 531 basechar 0
AnchorPoint: "Anchor-6" 300 0 basechar 0
LayerCount: 2
Fore
SplineSet
521 0 m 1,0,-1
 347 0 l 1,1,-1
 301 357 l 1,2,-1
 253 0 l 1,3,-1
 82 0 l 1,4,-1
 3 531 l 1,5,-1
 148 531 l 1,6,-1
 183 99 l 1,7,-1
 238 464 l 1,8,-1
 372 464 l 1,9,-1
 421 99 l 1,10,-1
 457 531 l 1,11,-1
 597 531 l 1,12,-1
 521 0 l 1,0,-1
EndSplineSet
Substitution2: "Single Substitution lookup 174 subtable" LIG
Substitution2: "Single Substitution lookup 173 subtable" w_w_w.liga
AlternateSubs2: "'aalt' Access All Alternates lookup 1 subtable" w_w_w.liga LIG
EndChar

StartChar: x
Encoding: 120 120 258
Width: 600
GlyphClass: 2
Flags: W
AnchorPoint: "Anchor-7" 300 531 basechar 0
AnchorPoint: "Anchor-6" 300 0 basechar 0
LayerCount: 2
Fore
SplineSet
193 0 m 1,0,-1
 22 0 l 1,1,-1
 204 279 l 1,2,-1
 39 531 l 1,3,-1
 216 531 l 1,4,-1
 301 361 l 1,5,-1
 383 531 l 1,6,-1
 551 531 l 1,7,-1
 395 285 l 1,8,-1
 578 0 l 1,9,-1
 399 0 l 1,10,-1
 294 199 l 1,11,-1
 193 0 l 1,0,-1
EndSplineSet
Substitution2: "Single Substitution lookup 240 subtable" x.multiply
Substitution2: "'aalt' Access All Alternates lookup 0 subtable" x.multiply
EndChar

StartChar: y
Encoding: 121 121 259
Width: 600
GlyphClass: 2
Flags: W
AnchorPoint: "Anchor-7" 300 531 basechar 0
AnchorPoint: "Anchor-6" 0 0 basechar 0
LayerCount: 2
Fore
SplineSet
395 0 m 2,0,1
 359 -107 359 -107 288 -161.5 c 128,-1,2
 217 -216 217 -216 98 -223 c 1,3,-1
 80 -111 l 1,4,5
 156 -101 156 -101 192.5 -77 c 128,-1,6
 229 -53 229 -53 251 0 c 1,7,-1
 196 0 l 1,8,-1
 28 531 l 1,9,-1
 195 531 l 1,10,-1
 298 101 l 1,11,-1
 410 531 l 1,12,-1
 572 531 l 1,13,-1
 395 0 l 2,0,1
EndSplineSet
EndChar

StartChar: z
Encoding: 122 122 264
Width: 600
GlyphClass: 2
Flags: W
AnchorPoint: "Anchor-7" 307 531 basechar 0
AnchorPoint: "Anchor-6" 300 0 basechar 0
LayerCount: 2
Fore
SplineSet
259 120 m 1,0,-1
 524 120 l 1,1,-1
 509 0 l 1,2,-1
 72 0 l 1,3,-1
 72 112 l 1,4,-1
 336 412 l 1,5,-1
 94 412 l 1,6,-1
 94 531 l 1,7,-1
 519 531 l 1,8,-1
 519 420 l 1,9,-1
 259 120 l 1,0,-1
EndSplineSet
EndChar

StartChar: x.multiply
Encoding: 1114125 -1 273
Width: 600
Flags: W
LayerCount: 2
Fore
SplineSet
432 545 m 1,0,-1
 520 457 l 1,1,-1
 385 326 l 1,2,-1
 520 193 l 1,3,-1
 432 105 l 1,4,-1
 300 241 l 1,5,-1
 168 105 l 1,6,-1
 80 193 l 1,7,-1
 215 326 l 1,8,-1
 80 457 l 1,9,-1
 168 545 l 1,10,-1
 300 411 l 1,11,-1
 432 545 l 1,0,-1
EndSplineSet
EndChar

StartChar: w_w_w.liga
Encoding: 1114126 -1 274
Width: 600
Flags: W
LayerCount: 2
Fore
SplineSet
379 531 m 1,0,-1
 523 531 l 1,1,-1
 445 0 l 1,2,-1
 273 0 l 1,3,-1
 222 357 l 1,4,-1
 159 0 l 1,5,-1
 26 0 l 1,6,-1
 -38 357 l 1,7,-1
 -100 0 l 1,8,-1
 -234 0 l 1,9,-1
 -298 357 l 1,10,-1
 -362 0 l 1,11,-1
 -496 0 l 1,12,-1
 -558 357 l 1,13,-1
 -622 0 l 1,14,-1
 -756 0 l 1,15,-1
 -818 357 l 1,16,-1
 -870 0 l 1,17,-1
 -1041 0 l 1,18,-1
 -1120 531 l 1,19,-1
 -975 531 l 1,20,-1
 -940 99 l 1,21,-1
 -884 464 l 1,22,-1
 -751 464 l 1,23,-1
 -692 99 l 1,24,-1
 -623 464 l 1,25,-1
 -489 464 l 1,26,-1
 -433 99 l 1,27,-1
 -362 464 l 1,28,-1
 -234 464 l 1,29,-1
 -163 99 l 1,30,-1
 -107 464 l 1,31,-1
 27 464 l 1,32,-1
 96 99 l 1,33,-1
 156 464 l 1,34,-1
 289 464 l 1,35,-1
 344 99 l 1,36,-1
 379 531 l 1,0,-1
EndSplineSet
EndChar

StartChar: ordfeminine
Encoding: 170 170 275
Width: 600
Flags: W
LayerCount: 2
Fore
SplineSet
437 721 m 128,-1,1
 482 683 482 683 482 606 c 2,2,-1
 482 442 l 2,3,4
 482 421 482 421 489 410 c 128,-1,5
 496 399 496 399 512 394 c 1,6,-1
 482 306 l 1,7,8
 438 311 438 311 411.5 324 c 128,-1,9
 385 337 385 337 370 364 c 1,10,11
 345 335 345 335 310.5 319.5 c 128,-1,12
 276 304 276 304 236 304 c 0,13,14
 168 304 168 304 126 342.5 c 128,-1,15
 84 381 84 381 84 443 c 0,16,17
 84 512 84 512 141 551 c 128,-1,18
 198 590 198 590 301 590 c 2,19,-1
 354 590 l 1,20,-1
 354 602 l 2,21,22
 354 636 354 636 335.5 648.5 c 128,-1,23
 317 661 317 661 271 661 c 0,24,25
 250 661 250 661 218.5 655 c 128,-1,26
 187 649 187 649 154 638 c 1,27,-1
 121 728 l 1,28,29
 165 743 165 743 210 751 c 128,-1,30
 255 759 255 759 291 759 c 0,31,0
 392 759 392 759 437 721 c 128,-1,1
322 507 m 2,32,33
 270 507 270 507 248 493 c 128,-1,34
 226 479 226 479 226 448 c 0,35,36
 226 397 226 397 276 397 c 0,37,38
 298 397 298 397 318.5 409.5 c 128,-1,39
 339 422 339 422 354 444 c 1,40,-1
 354 507 l 1,41,-1
 322 507 l 2,32,33
514 108 m 1,42,-1
 514 0 l 1,43,-1
 100 0 l 1,44,-1
 100 108 l 1,45,-1
 514 108 l 1,42,-1
EndSplineSet
EndChar

StartChar: ordmasculine
Encoding: 186 186 276
Width: 600
Flags: W
LayerCount: 2
Fore
SplineSet
418 729.5 m 128,-1,1
 468 700 468 700 495 648.5 c 128,-1,2
 522 597 522 597 522 532 c 0,3,4
 522 465 522 465 495 413 c 128,-1,5
 468 361 468 361 418 332.5 c 128,-1,6
 368 304 368 304 300 304 c 0,7,8
 197 304 197 304 137.5 366.5 c 128,-1,9
 78 429 78 429 78 532 c 0,10,11
 78 597 78 597 105 648.5 c 128,-1,12
 132 700 132 700 182.5 729.5 c 128,-1,13
 233 759 233 759 300 759 c 0,14,0
 368 759 368 759 418 729.5 c 128,-1,1
217 532 m 0,16,17
 217 464 217 464 238 433.5 c 128,-1,18
 259 403 259 403 300 403 c 256,19,20
 341 403 341 403 362 433.5 c 128,-1,21
 383 464 383 464 383 532 c 0,22,23
 383 661 383 661 300 661 c 256,24,15
 217 661 217 661 217 532 c 0,16,17
507 108 m 1,25,-1
 507 0 l 1,26,-1
 93 0 l 1,27,-1
 93 108 l 1,28,-1
 507 108 l 1,25,-1
EndSplineSet
EndChar

StartChar: uni207F
Encoding: 8319 8319 277
Width: 600
Flags: W
LayerCount: 2
Fore
SplineSet
423.5 696 m 128,-1,1
 449 669 449 669 449 620 c 2,2,-1
 449 378 l 1,3,-1
 334 378 l 1,4,-1
 334 593 l 2,5,6
 334 617 334 617 329.5 627.5 c 128,-1,7
 325 638 325 638 313 638 c 0,8,9
 292 638 292 638 266 604 c 1,10,-1
 266 378 l 1,11,-1
 151 378 l 1,12,-1
 151 713 l 1,13,-1
 253 713 l 1,14,-1
 258 678 l 1,15,16
 277 703 277 703 300 713 c 128,-1,17
 323 723 323 723 351 723 c 0,18,0
 398 723 398 723 423.5 696 c 128,-1,1
EndSplineSet
EndChar

StartChar: uni052C
Encoding: 1324 1324 278
Width: 600
GlyphClass: 2
Flags: W
AnchorPoint: "Anchor-3" 300 693 basechar 0
AnchorPoint: "Anchor-2" 300 -221 basechar 0
LayerCount: 2
Fore
SplineSet
586 122 m 1,0,-1
 586 -174 l 1,1,-1
 461 -174 l 1,2,-1
 441 0 l 1,3,-1
 199 0 l 1,4,-1
 179 -174 l 1,5,-1
 54 -174 l 1,6,-1
 54 122 l 1,7,-1
 99 122 l 1,8,9
 128 162 128 162 149 203 c 128,-1,10
 170 244 170 244 185 300 c 1,11,12
 96 319 96 319 57 377.5 c 128,-1,13
 18 436 18 436 18 536 c 2,14,-1
 18 693 l 1,15,-1
 148 693 l 1,16,-1
 148 538 l 2,17,18
 148 487 148 487 161 458 c 128,-1,19
 174 429 174 429 207 417 c 1,20,21
 210 445 210 445 214 498 c 2,22,-1
 226 693 l 1,23,-1
 539 693 l 1,24,-1
 539 122 l 1,25,-1
 586 122 l 1,0,-1
345 492 m 2,26,27
 341 437 341 437 338 407 c 1,28,-1
 403 407 l 1,29,-1
 403 583 l 1,30,-1
 351 583 l 1,31,-1
 345 492 l 2,26,27
403 122 m 1,32,-1
 403 290 l 1,33,-1
 320 291 l 1,34,35
 308 241 308 241 287 200 c 128,-1,36
 266 159 266 159 232 122 c 1,37,-1
 403 122 l 1,32,-1
EndSplineSet
EndChar

StartChar: uni052A
Encoding: 1322 1322 279
Width: 600
GlyphClass: 2
Flags: W
AnchorPoint: "Anchor-3" 300 693 basechar 0
AnchorPoint: "Anchor-2" 300 -221 basechar 0
LayerCount: 2
Fore
SplineSet
616 0 m 1,0,-1
 513 0 l 1,1,-1
 451 320 l 1,2,-1
 426 320 l 1,3,-1
 426 0 l 1,4,-1
 356 0 l 1,5,-1
 356 -174 l 1,6,-1
 279 -174 l 1,7,-1
 267 0 l 1,8,-1
 77 0 l 1,9,-1
 63 -174 l 1,10,-1
 -15 -174 l 1,11,-1
 -15 97 l 1,12,-1
 14 97 l 1,13,14
 35 137 35 137 46.5 218.5 c 128,-1,15
 58 300 58 300 68 474 c 2,16,-1
 82 693 l 1,17,-1
 294 693 l 1,18,-1
 294 402 l 1,19,-1
 335 402 l 1,20,-1
 335 693 l 1,21,-1
 426 693 l 1,22,-1
 426 402 l 1,23,-1
 450 402 l 1,24,-1
 510 693 l 1,25,-1
 607 693 l 1,26,-1
 535 379 l 1,27,-1
 616 0 l 1,0,-1
201 606 m 1,28,-1
 167 606 l 1,29,-1
 161 468 l 2,30,31
 157 354 157 354 149 285.5 c 128,-1,32
 141 217 141 217 128 175 c 128,-1,33
 115 133 115 133 93 97 c 1,34,-1
 201 97 l 1,35,-1
 201 606 l 1,28,-1
335 320 m 1,36,-1
 294 320 l 1,37,-1
 294 97 l 1,38,-1
 335 97 l 1,39,-1
 335 320 l 1,36,-1
EndSplineSet
EndChar

StartChar: uni052E
Encoding: 1326 1326 280
Width: 600
Flags: W
LayerCount: 2
Fore
SplineSet
571 122 m 1,0,-1
 571 -174 l 1,1,-1
 446 -174 l 1,2,-1
 426 0 l 1,3,-1
 359 0 l 1,4,-1
 359 568 l 1,5,-1
 280 568 l 1,6,-1
 269 457 l 2,7,8
 253 288 253 288 230.5 198.5 c 128,-1,9
 208 109 208 109 169 62 c 128,-1,10
 130 15 130 15 57 -20 c 1,11,-1
 -8 88 l 1,12,13
 30 116 30 116 51 149 c 128,-1,14
 72 182 72 182 87.5 255.5 c 128,-1,15
 103 329 103 329 116 473 c 2,16,-1
 137 693 l 1,17,-1
 523 693 l 1,18,-1
 523 122 l 1,19,-1
 571 122 l 1,0,-1
EndSplineSet
EndChar

StartChar: uni0528
Encoding: 1320 1320 281
Width: 600
GlyphClass: 2
Flags: W
AnchorPoint: "Anchor-3" 300 693 basechar 0
AnchorPoint: "Anchor-2" 300 0 basechar 0
LayerCount: 2
Fore
SplineSet
548 693 m 1,0,-1
 548 0 l 1,1,-1
 384 0 l 1,2,-1
 384 292 l 1,3,-1
 216 292 l 1,4,-1
 216 -26 l 2,5,6
 216 -123 216 -123 163.5 -175 c 128,-1,7
 111 -227 111 -227 16 -227 c 0,8,9
 -27 -227 -27 -227 -59 -215.5 c 128,-1,10
 -91 -204 -91 -204 -120 -182 c 1,11,-1
 -60 -90 l 1,12,13
 -40 -99 -40 -99 -28.5 -103 c 128,-1,14
 -17 -107 -17 -107 0 -107 c 0,15,16
 26 -107 26 -107 39 -91.5 c 128,-1,17
 52 -76 52 -76 52 -40 c 2,18,-1
 52 693 l 1,19,-1
 216 693 l 1,20,-1
 216 427 l 1,21,-1
 384 427 l 1,22,-1
 384 693 l 1,23,-1
 548 693 l 1,0,-1
EndSplineSet
EndChar

StartChar: uni0411
Encoding: 1041 1041 283
Width: 600
GlyphClass: 2
Flags: W
AnchorPoint: "Anchor-3" 300 693 basechar 0
AnchorPoint: "Anchor-2" 300 0 basechar 0
LayerCount: 2
Fore
SplineSet
477 568 m 1,0,-1
 221 568 l 1,1,-1
 221 443 l 1,2,-1
 291 443 l 2,3,4
 424 443 424 443 496 389.5 c 128,-1,5
 568 336 568 336 568 228 c 0,6,7
 568 117 568 117 494 58.5 c 128,-1,8
 420 0 420 0 299 0 c 2,9,-1
 57 0 l 1,10,-1
 57 693 l 1,11,-1
 493 693 l 1,12,-1
 477 568 l 1,0,-1
221 326 m 1,13,-1
 221 123 l 1,14,-1
 282 123 l 2,15,16
 341 123 341 123 370.5 147.5 c 128,-1,17
 400 172 400 172 400 227 c 0,18,19
 400 277 400 277 370.5 301.5 c 128,-1,20
 341 326 341 326 280 326 c 2,21,-1
 221 326 l 1,13,-1
EndSplineSet
EndChar

StartChar: uni0413
Encoding: 1043 1043 285
Width: 600
GlyphClass: 2
Flags: W
AnchorPoint: "Anchor-3" 332 693 basechar 0
AnchorPoint: "Anchor-2" 172 0 basechar 0
LayerCount: 2
Fore
SplineSet
559 693 m 1,0,-1
 543 564 l 1,1,-1
 254 564 l 1,2,-1
 254 0 l 1,3,-1
 90 0 l 1,4,-1
 90 693 l 1,5,-1
 559 693 l 1,0,-1
EndSplineSet
EndChar

StartChar: uni0490
Encoding: 1168 1168 287
Width: 600
GlyphClass: 2
Flags: W
AnchorPoint: "Anchor-3" 332 693 basechar 0
AnchorPoint: "Anchor-2" 172 0 basechar 0
LayerCount: 2
Fore
SplineSet
407 848 m 1,0,-1
 559 848 l 1,1,-1
 559 693 l 1,2,-1
 543 564 l 1,3,-1
 254 564 l 1,4,-1
 254 0 l 1,5,-1
 90 0 l 1,6,-1
 90 693 l 1,7,-1
 407 693 l 1,8,-1
 407 848 l 1,0,-1
EndSplineSet
EndChar

StartChar: uni0414
Encoding: 1044 1044 288
Width: 600
GlyphClass: 2
Flags: W
AnchorPoint: "Anchor-3" 300 693 basechar 0
AnchorPoint: "Anchor-2" 300 -221 basechar 0
LayerCount: 2
Fore
SplineSet
577 122 m 1,0,-1
 577 -174 l 1,1,-1
 452 -174 l 1,2,-1
 432 -1 l 1,3,-1
 135 0 l 1,4,-1
 115 -174 l 1,5,-1
 -10 -174 l 1,6,-1
 -10 122 l 1,7,-1
 29 122 l 1,8,9
 53 147 53 147 68 184 c 128,-1,10
 83 221 83 221 95.5 289 c 128,-1,11
 108 357 108 357 119 475 c 2,12,-1
 139 693 l 1,13,-1
 525 693 l 1,14,-1
 525 122 l 1,15,-1
 577 122 l 1,0,-1
374 577 m 1,16,-1
 276 577 l 1,17,-1
 269 489 l 2,18,19
 259 373 259 373 246 303 c 128,-1,20
 233 233 233 233 212 191.5 c 128,-1,21
 191 150 191 150 158 122 c 1,22,-1
 374 122 l 1,23,-1
 374 577 l 1,16,-1
EndSplineSet
EndChar

StartChar: uni0415
Encoding: 1045 1045 289
Width: 600
GlyphClass: 2
Flags: W
AnchorPoint: "Anchor-3" 320 693 basechar 0
AnchorPoint: "Anchor-2" 320 0 basechar 0
LayerCount: 2
Fore
SplineSet
257 576 m 1,0,-1
 257 409 l 1,1,-1
 497 409 l 1,2,-1
 497 295 l 1,3,-1
 257 295 l 1,4,-1
 257 118 l 1,5,-1
 546 118 l 1,6,-1
 546 0 l 1,7,-1
 93 0 l 1,8,-1
 93 693 l 1,9,-1
 546 693 l 1,10,-1
 529 576 l 1,11,-1
 257 576 l 1,0,-1
EndSplineSet
EndChar

StartChar: uni0416
Encoding: 1046 1046 292
Width: 600
GlyphClass: 2
Flags: W
AnchorPoint: "Anchor-3" 300 693 basechar 0
AnchorPoint: "Anchor-2" 300 0 basechar 0
LayerCount: 2
Fore
SplineSet
250 320 m 1,0,-1
 220 320 l 1,1,-1
 142 0 l 1,2,-1
 2 0 l 1,3,-1
 110 379 l 1,4,-1
 12 693 l 1,5,-1
 147 693 l 1,6,-1
 223 402 l 1,7,-1
 250 402 l 1,8,-1
 250 693 l 1,9,-1
 350 693 l 1,10,-1
 350 402 l 1,11,-1
 377 402 l 1,12,-1
 453 693 l 1,13,-1
 588 693 l 1,14,-1
 490 379 l 1,15,-1
 598 0 l 1,16,-1
 456 0 l 1,17,-1
 378 320 l 1,18,-1
 350 320 l 1,19,-1
 350 0 l 1,20,-1
 250 0 l 1,21,-1
 250 320 l 1,0,-1
EndSplineSet
EndChar

StartChar: uni0417
Encoding: 1047 1047 293
Width: 600
GlyphClass: 2
Flags: W
AnchorPoint: "Anchor-3" 289 693 basechar 0
AnchorPoint: "Anchor-2" 287 0 basechar 0
LayerCount: 2
Fore
SplineSet
418.5 687.5 m 128,-1,1
 477 664 477 664 509 622 c 128,-1,2
 541 580 541 580 541 526 c 0,3,4
 541 463 541 463 500.5 423.5 c 128,-1,5
 460 384 460 384 384 369 c 1,6,7
 467 361 467 361 514.5 317 c 128,-1,8
 562 273 562 273 562 198 c 0,9,10
 562 133 562 133 528 84.5 c 128,-1,11
 494 36 494 36 428 9.5 c 128,-1,12
 362 -17 362 -17 270 -17 c 0,13,14
 186 -17 186 -17 119.5 8.5 c 128,-1,15
 53 34 53 34 7 82 c 1,16,-1
 91 166 l 1,17,18
 166 103 166 103 267 103 c 0,19,20
 328 103 328 103 363 130 c 128,-1,21
 398 157 398 157 398 205 c 0,22,23
 398 257 398 257 364 283 c 128,-1,24
 330 309 330 309 266 309 c 2,25,-1
 150 309 l 1,26,-1
 169 425 l 1,27,-1
 265 425 l 2,28,29
 319 425 319 425 349.5 447 c 128,-1,30
 380 469 380 469 380 510 c 0,31,32
 380 549 380 549 350 570.5 c 128,-1,33
 320 592 320 592 266 592 c 0,34,35
 172 592 172 592 104 538 c 1,36,-1
 25 621 l 1,37,38
 127 711 127 711 283 711 c 0,39,0
 360 711 360 711 418.5 687.5 c 128,-1,1
EndSplineSet
EndChar

StartChar: uni0418
Encoding: 1048 1048 294
Width: 600
GlyphClass: 2
Flags: W
AnchorPoint: "Anchor-3" 300 693 basechar 0
AnchorPoint: "Anchor-2" 300 0 basechar 0
LayerCount: 2
Fore
SplineSet
52 693 m 1,0,-1
 202 693 l 1,1,-1
 202 458 l 2,2,3
 202 360 202 360 195 289.5 c 128,-1,4
 188 219 188 219 174 143 c 1,5,-1
 367 693 l 1,6,-1
 548 693 l 1,7,-1
 548 0 l 1,8,-1
 398 0 l 1,9,-1
 398 230 l 2,10,11
 398 394 398 394 425 549 c 1,12,-1
 236 0 l 1,13,-1
 52 0 l 1,14,-1
 52 693 l 1,0,-1
EndSplineSet
EndChar

StartChar: uni048A
Encoding: 1162 1162 297
Width: 600
GlyphClass: 2
Flags: W
AnchorPoint: "Anchor-3" 300 693 basechar 0
AnchorPoint: "Anchor-2" 300 0 basechar 0
LayerCount: 2
Fore
SplineSet
179 783 m 128,-1,1
 135 828 135 828 128 893 c 1,2,-1
 215 908 l 1,3,4
 222 879 222 879 244 863 c 128,-1,5
 266 847 266 847 300 847 c 256,6,7
 334 847 334 847 356 863 c 128,-1,8
 378 879 378 879 385 908 c 1,9,-1
 472 893 l 1,10,11
 465 828 465 828 421 783 c 128,-1,12
 377 738 377 738 300 738 c 256,13,0
 223 738 223 738 179 783 c 128,-1,1
638 152 m 1,14,-1
 539 -174 l 1,15,-1
 404 -174 l 1,16,-1
 443 0 l 1,17,-1
 398 0 l 1,18,-1
 398 230 l 2,19,20
 398 394 398 394 425 549 c 1,21,-1
 236 0 l 1,22,-1
 52 0 l 1,23,-1
 52 693 l 1,24,-1
 202 693 l 1,25,-1
 202 458 l 2,26,27
 202 360 202 360 195 289.5 c 128,-1,28
 188 219 188 219 174 143 c 1,29,-1
 367 693 l 1,30,-1
 548 693 l 1,31,-1
 548 152 l 1,32,-1
 638 152 l 1,14,-1
EndSplineSet
EndChar

StartChar: uni041A
Encoding: 1050 1050 298
Width: 600
GlyphClass: 2
Flags: W
AnchorPoint: "Anchor-3" 324 693 basechar 0
AnchorPoint: "Anchor-2" 300 0 basechar 0
LayerCount: 2
Fore
SplineSet
279 302 m 1,0,-1
 216 302 l 1,1,-1
 216 0 l 1,2,-1
 52 0 l 1,3,-1
 52 693 l 1,4,-1
 216 693 l 1,5,-1
 216 420 l 1,6,-1
 277 420 l 1,7,-1
 430 693 l 1,8,-1
 589 693 l 1,9,-1
 413 379 l 1,10,-1
 608 0 l 1,11,-1
 429 0 l 1,12,-1
 279 302 l 1,0,-1
EndSplineSet
EndChar

StartChar: uni041B
Encoding: 1051 1051 300
Width: 600
GlyphClass: 2
Flags: W
AnchorPoint: "Anchor-3" 300 693 basechar 0
AnchorPoint: "Anchor-2" 300 0 basechar 0
LayerCount: 2
Fore
SplineSet
548 0 m 1,0,-1
 384 0 l 1,1,-1
 384 568 l 1,2,-1
 275 568 l 1,3,-1
 265 457 l 2,4,5
 249 288 249 288 226.5 198.5 c 128,-1,6
 204 109 204 109 164.5 62 c 128,-1,7
 125 15 125 15 52 -20 c 1,8,-1
 -12 88 l 1,9,10
 25 116 25 116 46 149 c 128,-1,11
 67 182 67 182 82.5 255.5 c 128,-1,12
 98 329 98 329 112 473 c 2,13,-1
 132 693 l 1,14,-1
 548 693 l 1,15,-1
 548 0 l 1,0,-1
EndSplineSet
EndChar

StartChar: uni041E
Encoding: 1054 1054 303
Width: 600
GlyphClass: 2
Flags: W
AnchorPoint: "Anchor-3" 300 693 basechar 0
AnchorPoint: "Anchor-2" 300 0 basechar 0
LayerCount: 2
Fore
SplineSet
505.5 80.5 m 128,-1,1
 434 -17 434 -17 300 -17 c 0,2,3
 165 -17 165 -17 94 79.5 c 128,-1,4
 23 176 23 176 23 347 c 0,5,6
 23 516 23 516 94.5 613.5 c 128,-1,7
 166 711 166 711 300 711 c 0,8,9
 435 711 435 711 506 614.5 c 128,-1,10
 577 518 577 518 577 347 c 0,11,0
 577 178 577 178 505.5 80.5 c 128,-1,1
383.5 533 m 128,-1,13
 358 591 358 591 300 591 c 256,14,15
 242 591 242 591 216.5 533 c 128,-1,16
 191 475 191 475 191 347 c 256,17,18
 191 219 191 219 216.5 161 c 128,-1,19
 242 103 242 103 300 103 c 0,20,21
 359 103 359 103 384 161 c 128,-1,22
 409 219 409 219 409 347 c 256,23,12
 409 475 409 475 383.5 533 c 128,-1,13
EndSplineSet
EndChar

StartChar: uni041F
Encoding: 1055 1055 304
Width: 600
GlyphClass: 2
Flags: W
AnchorPoint: "Anchor-3" 300 693 basechar 0
AnchorPoint: "Anchor-2" 300 0 basechar 0
LayerCount: 2
Fore
SplineSet
384 0 m 1,0,-1
 384 567 l 1,1,-1
 216 567 l 1,2,-1
 216 0 l 1,3,-1
 52 0 l 1,4,-1
 52 693 l 1,5,-1
 548 693 l 1,6,-1
 548 0 l 1,7,-1
 384 0 l 1,0,-1
EndSplineSet
EndChar

StartChar: uni0423
Encoding: 1059 1059 308
Width: 600
GlyphClass: 2
Flags: W
AnchorPoint: "Anchor-3" 310 693 basechar 0
AnchorPoint: "Anchor-2" 300 0 basechar 0
LayerCount: 2
Fore
SplineSet
431 236 m 2,0,1
 396 144 396 144 357 92.5 c 128,-1,2
 318 41 318 41 260 16 c 128,-1,3
 202 -9 202 -9 106 -17 c 1,4,-1
 85 95 l 1,5,6
 163 102 163 102 201 121.5 c 128,-1,7
 239 141 239 141 263 183 c 1,8,-1
 210 183 l 1,9,-1
 -5 693 l 1,10,-1
 165 693 l 1,11,-1
 311 277 l 1,12,-1
 441 693 l 1,13,-1
 607 693 l 1,14,-1
 431 236 l 2,0,1
EndSplineSet
EndChar

StartChar: uni0424
Encoding: 1060 1060 310
Width: 600
GlyphClass: 2
Flags: W
AnchorPoint: "Anchor-3" 300 693 basechar 0
AnchorPoint: "Anchor-2" 300 0 basechar 0
LayerCount: 2
Fore
SplineSet
357 656 m 1,0,1
 478 648 478 648 537 572.5 c 128,-1,2
 596 497 596 497 596 350 c 0,3,4
 596 204 596 204 536.5 124.5 c 128,-1,5
 477 45 477 45 357 38 c 1,6,-1
 357 -39 l 1,7,-1
 243 -39 l 1,8,-1
 243 38 l 1,9,10
 123 45 123 45 63.5 124 c 128,-1,11
 4 203 4 203 4 350 c 256,12,13
 4 497 4 497 62.5 572.5 c 128,-1,14
 121 648 121 648 243 656 c 1,15,-1
 243 730 l 1,16,-1
 357 730 l 1,17,-1
 357 656 l 1,0,1
196.5 541.5 m 128,-1,19
 176 519 176 519 166.5 473 c 128,-1,20
 157 427 157 427 157 350 c 256,21,22
 157 273 157 273 165.5 226.5 c 128,-1,23
 174 180 174 180 195 156 c 128,-1,24
 216 132 216 132 253 128 c 1,25,-1
 253 568 l 1,26,18
 217 564 217 564 196.5 541.5 c 128,-1,19
347 128 m 1,27,28
 384 132 384 132 405 156 c 128,-1,29
 426 180 426 180 434.5 226.5 c 128,-1,30
 443 273 443 273 443 350 c 256,31,32
 443 427 443 427 434 473 c 128,-1,33
 425 519 425 519 404 541.5 c 128,-1,34
 383 564 383 564 347 568 c 1,35,-1
 347 128 l 1,27,28
EndSplineSet
EndChar

StartChar: uni0427
Encoding: 1063 1063 312
Width: 600
GlyphClass: 2
Flags: W
AnchorPoint: "Anchor-3" 286 693 basechar 0
AnchorPoint: "Anchor-2" 300 0 basechar 0
LayerCount: 2
Fore
SplineSet
548 693 m 1,0,-1
 548 0 l 1,1,-1
 384 0 l 1,2,-1
 384 243 l 1,3,4
 323 198 323 198 240 198 c 0,5,6
 138 198 138 198 81.5 258.5 c 128,-1,7
 25 319 25 319 25 434 c 2,8,-1
 25 693 l 1,9,-1
 189 693 l 1,10,-1
 189 439 l 2,11,12
 189 374 189 374 211.5 346.5 c 128,-1,13
 234 319 234 319 286 319 c 0,14,15
 344 319 344 319 384 355 c 1,16,-1
 384 693 l 1,17,-1
 548 693 l 1,0,-1
EndSplineSet
EndChar

StartChar: uni0426
Encoding: 1062 1062 313
Width: 600
GlyphClass: 2
Flags: W
AnchorPoint: "Anchor-3" 0 0 basechar 0
AnchorPoint: "Anchor-2" 300 0 basechar 0
LayerCount: 2
Fore
SplineSet
548 122 m 1,0,-1
 596 122 l 1,1,-1
 596 -174 l 1,2,-1
 471 -174 l 1,3,-1
 451 0 l 1,4,-1
 52 0 l 1,5,-1
 52 693 l 1,6,-1
 216 693 l 1,7,-1
 216 128 l 1,8,-1
 384 128 l 1,9,-1
 384 693 l 1,10,-1
 548 693 l 1,11,-1
 548 122 l 1,0,-1
EndSplineSet
EndChar

StartChar: uni0428
Encoding: 1064 1064 314
Width: 600
GlyphClass: 2
Flags: W
AnchorPoint: "Anchor-3" 300 693 basechar 0
AnchorPoint: "Anchor-2" 300 0 basechar 0
LayerCount: 2
Fore
SplineSet
565 693 m 1,0,-1
 565 0 l 1,1,-1
 35 0 l 1,2,-1
 35 693 l 1,3,-1
 165 693 l 1,4,-1
 165 112 l 1,5,-1
 243 112 l 1,6,-1
 243 693 l 1,7,-1
 358 693 l 1,8,-1
 358 112 l 1,9,-1
 435 112 l 1,10,-1
 435 693 l 1,11,-1
 565 693 l 1,0,-1
EndSplineSet
EndChar

StartChar: uni0429
Encoding: 1065 1065 315
Width: 600
GlyphClass: 2
Flags: W
AnchorPoint: "Anchor-3" 300 693 basechar 0
AnchorPoint: "Anchor-2" 300 0 basechar 0
LayerCount: 2
Fore
SplineSet
565 122 m 1,0,-1
 613 122 l 1,1,-1
 613 -174 l 1,2,-1
 488 -174 l 1,3,-1
 468 0 l 1,4,-1
 35 0 l 1,5,-1
 35 693 l 1,6,-1
 165 693 l 1,7,-1
 165 112 l 1,8,-1
 243 112 l 1,9,-1
 243 693 l 1,10,-1
 358 693 l 1,11,-1
 358 112 l 1,12,-1
 435 112 l 1,13,-1
 435 693 l 1,14,-1
 565 693 l 1,15,-1
 565 122 l 1,0,-1
EndSplineSet
EndChar

StartChar: uni040F
Encoding: 1039 1039 316
Width: 600
GlyphClass: 2
Flags: W
AnchorPoint: "Anchor-3" 0 0 basechar 0
AnchorPoint: "Anchor-2" 300 0 basechar 0
LayerCount: 2
Fore
SplineSet
548 693 m 1,0,-1
 548 0 l 1,1,-1
 372 0 l 1,2,-1
 372 -174 l 1,3,-1
 247 -174 l 1,4,-1
 227 0 l 1,5,-1
 52 0 l 1,6,-1
 52 693 l 1,7,-1
 216 693 l 1,8,-1
 216 128 l 1,9,-1
 384 128 l 1,10,-1
 384 693 l 1,11,-1
 548 693 l 1,0,-1
EndSplineSet
EndChar

StartChar: uni042C
Encoding: 1068 1068 317
Width: 600
GlyphClass: 2
Flags: W
AnchorPoint: "Anchor-3" 300 693 basechar 0
AnchorPoint: "Anchor-2" 300 0 basechar 0
LayerCount: 2
Fore
SplineSet
219 459 m 1,0,-1
 287 459 l 2,1,2
 426 459 426 459 501 403.5 c 128,-1,3
 576 348 576 348 576 236 c 0,4,5
 576 119 576 119 501.5 59.5 c 128,-1,6
 427 0 427 0 298 0 c 2,7,-1
 55 0 l 1,8,-1
 55 693 l 1,9,-1
 219 693 l 1,10,-1
 219 459 l 1,0,-1
219 343 m 1,11,-1
 219 120 l 1,12,-1
 287 120 l 2,13,14
 347 120 347 120 377 147.5 c 128,-1,15
 407 175 407 175 407 235 c 0,16,17
 407 290 407 290 376.5 316.5 c 128,-1,18
 346 343 346 343 281 343 c 2,19,-1
 219 343 l 1,11,-1
EndSplineSet
EndChar

StartChar: uni042A
Encoding: 1066 1066 318
Width: 600
Flags: W
LayerCount: 2
Fore
SplineSet
245 459 m 1,0,-1
 297 459 l 2,1,2
 436 459 436 459 511.5 403.5 c 128,-1,3
 587 348 587 348 587 236 c 0,4,5
 587 118 587 118 512 59 c 128,-1,6
 437 0 437 0 309 0 c 2,7,-1
 91 0 l 1,8,-1
 91 573 l 1,9,-1
 -3 573 l 1,10,-1
 -3 693 l 1,11,-1
 245 693 l 1,12,-1
 245 459 l 1,0,-1
245 346 m 1,13,-1
 245 117 l 1,14,-1
 279 117 l 2,15,16
 349 117 349 117 384.5 143.5 c 128,-1,17
 420 170 420 170 420 235 c 0,18,19
 420 291 420 291 388.5 318.5 c 128,-1,20
 357 346 357 346 292 346 c 2,21,-1
 245 346 l 1,13,-1
EndSplineSet
EndChar

StartChar: uni042B
Encoding: 1067 1067 319
Width: 600
GlyphClass: 2
Flags: W
AnchorPoint: "Anchor-3" 300 693 basechar 0
AnchorPoint: "Anchor-2" 300 0 basechar 0
LayerCount: 2
Fore
SplineSet
155 462 m 1,0,-1
 164 462 l 2,1,2
 287 462 287 462 352.5 405.5 c 128,-1,3
 418 349 418 349 418 237 c 0,4,5
 418 117 418 117 351.5 58.5 c 128,-1,6
 285 0 285 0 166 0 c 2,7,-1
 21 0 l 1,8,-1
 21 693 l 1,9,-1
 155 693 l 1,10,-1
 155 462 l 1,0,-1
579 693 m 1,11,-1
 579 0 l 1,12,-1
 445 0 l 1,13,-1
 445 693 l 1,14,-1
 579 693 l 1,11,-1
155 351 m 1,15,-1
 155 113 l 1,16,-1
 169 113 l 2,17,18
 224 113 224 113 251.5 140.5 c 128,-1,19
 279 168 279 168 279 236 c 0,20,21
 279 351 279 351 178 351 c 2,22,-1
 155 351 l 1,15,-1
EndSplineSet
EndChar

StartChar: uni0409
Encoding: 1033 1033 320
Width: 600
GlyphClass: 2
Flags: W
AnchorPoint: "Anchor-3" 300 693 basechar 0
AnchorPoint: "Anchor-2" 300 0 basechar 0
LayerCount: 2
Fore
SplineSet
364 459 m 1,0,1
 478 459 478 459 539 403.5 c 128,-1,2
 600 348 600 348 600 236 c 0,3,4
 600 118 600 118 538 59 c 128,-1,5
 476 0 476 0 365 0 c 2,6,-1
 239 0 l 1,7,-1
 239 589 l 1,8,-1
 182 589 l 1,9,-1
 169 304 l 2,10,11
 163 190 163 190 149 129.5 c 128,-1,12
 135 69 135 69 112 39.5 c 128,-1,13
 89 10 89 10 44 -20 c 1,14,-1
 -15 74 l 1,15,16
 1 88 1 88 11 110.5 c 128,-1,17
 21 133 21 133 28.5 182.5 c 128,-1,18
 36 232 36 232 41 322 c 2,19,-1
 61 693 l 1,20,-1
 364 693 l 1,21,-1
 364 459 l 1,0,1
364 356 m 1,22,-1
 364 106 l 1,23,-1
 379 106 l 2,24,25
 424 106 424 106 444.5 139 c 128,-1,26
 465 172 465 172 465 235 c 0,27,28
 465 295 465 295 443.5 325.5 c 128,-1,29
 422 356 422 356 374 356 c 2,30,-1
 364 356 l 1,22,-1
EndSplineSet
EndChar

StartChar: uni040A
Encoding: 1034 1034 321
Width: 600
GlyphClass: 2
Flags: W
AnchorPoint: "Anchor-3" 300 693 basechar 0
AnchorPoint: "Anchor-2" 300 0 basechar 0
LayerCount: 2
Fore
SplineSet
370 434 m 1,0,1
 479 433 479 433 539.5 382 c 128,-1,2
 600 331 600 331 600 227 c 0,3,4
 600 0 600 0 360 0 c 2,5,-1
 241 0 l 1,6,-1
 241 322 l 1,7,-1
 157 322 l 1,8,-1
 157 0 l 1,9,-1
 28 0 l 1,10,-1
 28 693 l 1,11,-1
 157 693 l 1,12,-1
 157 434 l 1,13,-1
 241 434 l 1,14,-1
 241 693 l 1,15,-1
 370 693 l 1,16,-1
 370 434 l 1,0,1
370 325 m 1,17,-1
 370 113 l 1,18,-1
 375 113 l 2,19,20
 426 114 426 114 447 140.5 c 128,-1,21
 468 167 468 167 468 226 c 0,22,23
 468 279 468 279 446 301.5 c 128,-1,24
 424 324 424 324 375 325 c 2,25,-1
 370 325 l 1,17,-1
EndSplineSet
EndChar

StartChar: uni0404
Encoding: 1028 1028 323
Width: 600
GlyphClass: 2
Flags: W
AnchorPoint: "Anchor-3" 300 693 basechar 0
AnchorPoint: "Anchor-2" 300 0 basechar 0
LayerCount: 2
Fore
SplineSet
480 691.5 m 128,-1,1
 531 672 531 672 580 634 c 1,2,-1
 503 545 l 1,3,4
 469 568 469 568 437.5 580 c 128,-1,5
 406 592 406 592 369 592 c 0,6,7
 300 592 300 592 254 548 c 128,-1,8
 208 504 208 504 201 417 c 1,9,-1
 457 417 l 1,10,-1
 457 292 l 1,11,-1
 201 292 l 1,12,13
 207 200 207 200 251 153.5 c 128,-1,14
 295 107 295 107 365 107 c 0,15,16
 411 107 411 107 445.5 121 c 128,-1,17
 480 135 480 135 517 161 c 1,18,-1
 589 73 l 1,19,20
 497 -17 497 -17 354 -17 c 0,21,22
 258 -17 258 -17 186 25 c 128,-1,23
 114 67 114 67 74 149 c 128,-1,24
 34 231 34 231 34 348 c 0,25,26
 34 461 34 461 76 543 c 128,-1,27
 118 625 118 625 191.5 668 c 128,-1,28
 265 711 265 711 358 711 c 0,29,0
 429 711 429 711 480 691.5 c 128,-1,1
EndSplineSet
EndChar

StartChar: uni042D
Encoding: 1069 1069 324
Width: 600
GlyphClass: 2
Flags: W
AnchorPoint: "Anchor-3" 278 689 basechar 0
AnchorPoint: "Anchor-2" 300 0 basechar 0
LayerCount: 2
Fore
SplineSet
481.5 618.5 m 128,-1,1
 560 526 560 526 560 351 c 0,2,3
 560 230 560 230 520.5 147.5 c 128,-1,4
 481 65 481 65 410 24 c 128,-1,5
 339 -17 339 -17 243 -17 c 0,6,7
 174 -17 174 -17 115.5 5.5 c 128,-1,8
 57 28 57 28 14 71 c 1,9,-1
 90 160 l 1,10,11
 126 133 126 133 161 120 c 128,-1,12
 196 107 196 107 241 107 c 0,13,14
 386 107 386 107 394 297 c 1,15,-1
 137 297 l 1,16,-1
 137 412 l 1,17,-1
 394 412 l 1,18,19
 389 508 389 508 352.5 550 c 128,-1,20
 316 592 316 592 247 592 c 0,21,22
 202 592 202 592 167 577.5 c 128,-1,23
 132 563 132 563 98 538 c 1,24,-1
 22 624 l 1,25,26
 72 666 72 666 129.5 688.5 c 128,-1,27
 187 711 187 711 260 711 c 0,28,0
 403 711 403 711 481.5 618.5 c 128,-1,1
EndSplineSet
EndChar

StartChar: uni040B
Encoding: 1035 1035 328
Width: 600
Flags: W
LayerCount: 2
Fore
SplineSet
423 576 m 1,0,-1
 284 576 l 1,1,-1
 284 426 l 1,2,3
 336 470 336 470 403 470 c 0,4,5
 491 470 491 470 536.5 415.5 c 128,-1,6
 582 361 582 361 582 252 c 2,7,-1
 582 0 l 1,8,-1
 428 0 l 1,9,-1
 428 266 l 2,10,11
 428 313 428 313 412.5 333 c 128,-1,12
 397 353 397 353 360 353 c 0,13,14
 319 353 319 353 284 320 c 1,15,-1
 284 0 l 1,16,-1
 131 0 l 1,17,-1
 131 576 l 1,18,-1
 -8 576 l 1,19,-1
 -8 693 l 1,20,-1
 440 693 l 1,21,-1
 423 576 l 1,0,-1
EndSplineSet
EndChar

StartChar: uni042E
Encoding: 1070 1070 329
Width: 600
GlyphClass: 2
Flags: W
AnchorPoint: "Anchor-3" 300 693 basechar 0
AnchorPoint: "Anchor-2" 300 0 basechar 0
LayerCount: 2
Fore
SplineSet
509 671 m 128,-1,1
 551 631 551 631 569.5 552 c 128,-1,2
 588 473 588 473 588 347 c 0,3,4
 588 161 588 161 544 72 c 128,-1,5
 500 -17 500 -17 394 -17 c 0,6,7
 293 -17 293 -17 249.5 61.5 c 128,-1,8
 206 140 206 140 202 303 c 1,9,-1
 156 303 l 1,10,-1
 156 0 l 1,11,-1
 31 0 l 1,12,-1
 31 693 l 1,13,-1
 156 693 l 1,14,-1
 156 413 l 1,15,-1
 203 413 l 1,16,17
 209 561 209 561 254 636 c 128,-1,18
 299 711 299 711 394 711 c 0,19,0
 467 711 467 711 509 671 c 128,-1,1
358.5 581.5 m 128,-1,21
 346 560 346 560 341 506 c 128,-1,22
 336 452 336 452 336 348 c 0,23,24
 336 243 336 243 341 189 c 128,-1,25
 346 135 346 135 358 113 c 128,-1,26
 370 91 370 91 394 91 c 256,27,28
 418 91 418 91 430 113 c 128,-1,29
 442 135 442 135 447 189 c 128,-1,30
 452 243 452 243 452 347 c 0,31,32
 452 452 452 452 447 506 c 128,-1,33
 442 560 442 560 430 581.5 c 128,-1,34
 418 603 418 603 394 603 c 0,35,20
 371 603 371 603 358.5 581.5 c 128,-1,21
EndSplineSet
EndChar

StartChar: uni042F
Encoding: 1071 1071 330
Width: 600
GlyphClass: 2
Flags: W
AnchorPoint: "Anchor-3" 300 693 basechar 0
AnchorPoint: "Anchor-2" 300 0 basechar 0
LayerCount: 2
Fore
SplineSet
548 0 m 1,0,-1
 384 0 l 1,1,-1
 384 251 l 1,2,-1
 299 251 l 1,3,-1
 179 0 l 1,4,-1
 2 0 l 1,5,-1
 155 281 l 1,6,7
 96 308 96 308 66.5 354.5 c 128,-1,8
 37 401 37 401 37 473 c 0,9,10
 37 583 37 583 108.5 638 c 128,-1,11
 180 693 180 693 321 693 c 2,12,-1
 548 693 l 1,13,-1
 548 0 l 1,0,-1
324 578 m 2,14,15
 206 578 206 578 206 469 c 0,16,17
 206 412 206 412 236.5 387.5 c 128,-1,18
 267 363 267 363 327 363 c 2,19,-1
 384 363 l 1,20,-1
 384 578 l 1,21,-1
 324 578 l 2,14,15
EndSplineSet
EndChar

StartChar: uni0402
Encoding: 1026 1026 331
Width: 600
GlyphClass: 2
Flags: W
AnchorPoint: "Anchor-3" 300 693 basechar 0
AnchorPoint: "Anchor-2" 300 -221 basechar 0
LayerCount: 2
Fore
SplineSet
284 426 m 1,0,1
 336 470 336 470 403 470 c 0,2,3
 491 470 491 470 536.5 415.5 c 128,-1,4
 582 361 582 361 582 252 c 2,5,-1
 582 99 l 2,6,7
 582 -15 582 -15 527 -76 c 128,-1,8
 472 -137 472 -137 373 -170 c 1,9,-1
 330 -58 l 1,10,11
 371 -41 371 -41 392 -20.5 c 128,-1,12
 413 0 413 0 420.5 28.5 c 128,-1,13
 428 57 428 57 428 102 c 2,14,-1
 428 266 l 2,15,16
 428 313 428 313 412.5 333 c 128,-1,17
 397 353 397 353 360 353 c 0,18,19
 319 353 319 353 284 320 c 1,20,-1
 284 0 l 1,21,-1
 131 0 l 1,22,-1
 131 576 l 1,23,-1
 -8 576 l 1,24,-1
 -8 693 l 1,25,-1
 440 693 l 1,26,-1
 423 576 l 1,27,-1
 284 576 l 1,28,-1
 284 426 l 1,0,1
EndSplineSet
EndChar

StartChar: uni0460
Encoding: 1120 1120 332
Width: 600
Flags: W
LayerCount: 2
Fore
SplineSet
570 512 m 128,-1,1
 589 429 589 429 589 304 c 0,2,3
 589 197 589 197 565.5 124.5 c 128,-1,4
 542 52 542 52 502 16 c 128,-1,5
 462 -20 462 -20 412 -20 c 0,6,7
 361 -20 361 -20 336.5 3.5 c 128,-1,8
 312 27 312 27 299 75 c 1,9,10
 268 -20 268 -20 191 -20 c 0,11,12
 109 -20 109 -20 60 62 c 128,-1,13
 11 144 11 144 11 304 c 0,14,15
 11 391 11 391 21 459.5 c 128,-1,16
 31 528 31 528 46 577.5 c 128,-1,17
 61 627 61 627 85 693 c 1,18,-1
 217 693 l 1,19,-1
 204 639 l 2,20,21
 182 547 182 547 170.5 476.5 c 128,-1,22
 159 406 159 406 159 306 c 0,23,24
 159 199 159 199 172 152 c 128,-1,25
 185 105 185 105 209 105 c 0,26,27
 222 105 222 105 230.5 119 c 128,-1,28
 239 133 239 133 239 160 c 2,29,-1
 239 399 l 1,30,-1
 361 399 l 1,31,-1
 361 160 l 2,32,33
 361 132 361 132 368.5 118.5 c 128,-1,34
 376 105 376 105 392 105 c 0,35,36
 441 105 441 105 441 306 c 0,37,38
 441 413 441 413 428.5 488.5 c 128,-1,39
 416 564 416 564 392 656 c 2,40,-1
 383 693 l 1,41,-1
 514 693 l 1,42,0
 551 595 551 595 570 512 c 128,-1,1
EndSplineSet
EndChar

StartChar: uni0462
Encoding: 1122 1122 333
Width: 600
GlyphClass: 2
Flags: W
AnchorPoint: "Anchor-3" 300 693 basechar 0
AnchorPoint: "Anchor-2" 300 0 basechar 0
LayerCount: 2
Fore
SplineSet
514.5 389.5 m 128,-1,1
 587 335 587 335 587 230 c 0,2,3
 587 118 587 118 515.5 59 c 128,-1,4
 444 0 444 0 328 0 c 2,5,-1
 126 0 l 1,6,-1
 126 519 l 1,7,-1
 10 519 l 1,8,-1
 10 614 l 1,9,-1
 126 614 l 1,10,-1
 126 693 l 1,11,-1
 290 693 l 1,12,-1
 290 614 l 1,13,-1
 413 614 l 1,14,-1
 413 519 l 1,15,-1
 290 519 l 1,16,-1
 290 444 l 1,17,-1
 318 444 l 2,18,0
 442 444 442 444 514.5 389.5 c 128,-1,1
391.5 147.5 m 128,-1,20
 419 175 419 175 419 229 c 0,21,22
 419 277 419 277 390.5 302 c 128,-1,23
 362 327 362 327 312 327 c 2,24,-1
 290 327 l 1,25,-1
 290 120 l 1,26,-1
 318 120 l 2,27,19
 364 120 364 120 391.5 147.5 c 128,-1,20
EndSplineSet
EndChar

StartChar: uni0464
Encoding: 1124 1124 334
Width: 600
GlyphClass: 2
Flags: W
AnchorPoint: "Anchor-3" 300 693 basechar 0
AnchorPoint: "Anchor-2" 300 0 basechar 0
LayerCount: 2
Fore
SplineSet
608 19 m 1,0,1
 549 -17 549 -17 472 -17 c 0,2,3
 241 -17 241 -17 223 293 c 1,4,-1
 177 293 l 1,5,-1
 177 0 l 1,6,-1
 22 0 l 1,7,-1
 22 696 l 1,8,-1
 177 696 l 1,9,-1
 177 413 l 1,10,-1
 224 413 l 1,11,12
 235 557 235 557 301.5 634 c 128,-1,13
 368 711 368 711 485 711 c 0,14,15
 553 711 553 711 607 678 c 1,16,-1
 557 583 l 1,17,18
 524 599 524 599 487 599 c 0,19,20
 434 599 434 599 407.5 553.5 c 128,-1,21
 381 508 381 508 379 412 c 1,22,-1
 536 412 l 1,23,-1
 536 297 l 1,24,-1
 379 297 l 1,25,26
 380 193 380 193 404.5 145 c 128,-1,27
 429 97 429 97 485 97 c 0,28,29
 529 97 529 97 563 114 c 1,30,-1
 608 19 l 1,0,1
EndSplineSet
EndChar

StartChar: uni0466
Encoding: 1126 1126 335
Width: 600
GlyphClass: 2
Flags: W
AnchorPoint: "Anchor-3" 300 693 basechar 0
AnchorPoint: "Anchor-2" 300 0 basechar 0
LayerCount: 2
Fore
SplineSet
456 0 m 1,0,-1
 392 244 l 1,1,-1
 360 244 l 1,2,-1
 360 -1 l 1,3,-1
 240 -1 l 1,4,-1
 240 244 l 1,5,-1
 204 244 l 1,6,-1
 141 0 l 1,7,-1
 -11 0 l 1,8,-1
 201 693 l 1,9,-1
 400 693 l 1,10,-1
 612 0 l 1,11,-1
 456 0 l 1,0,-1
234 357 m 1,12,-1
 363 357 l 1,13,-1
 298 604 l 1,14,-1
 234 357 l 1,12,-1
EndSplineSet
EndChar

StartChar: uni0468
Encoding: 1128 1128 336
Width: 600
GlyphClass: 2
Flags: W
AnchorPoint: "Anchor-3" 300 693 basechar 0
AnchorPoint: "Anchor-2" 300 0 basechar 0
LayerCount: 2
Fore
SplineSet
498 0 m 1,0,-1
 448 264 l 1,1,-1
 432 264 l 1,2,-1
 432 -1 l 1,3,-1
 331 -1 l 1,4,-1
 331 264 l 1,5,-1
 314 264 l 1,6,-1
 264 0 l 1,7,-1
 141 0 l 1,8,-1
 195 264 l 1,9,-1
 127 264 l 1,10,-1
 127 -2 l 1,11,-1
 1 -2 l 1,12,-1
 1 693 l 1,13,-1
 127 693 l 1,14,-1
 127 357 l 1,15,-1
 215 357 l 1,16,-1
 284 693 l 1,17,-1
 483 693 l 1,18,-1
 625 0 l 1,19,-1
 498 0 l 1,0,-1
331 357 m 1,20,-1
 431 357 l 1,21,-1
 381 619 l 1,22,-1
 331 357 l 1,20,-1
EndSplineSet
EndChar

StartChar: uni046A
Encoding: 1130 1130 337
Width: 600
GlyphClass: 2
Flags: W
AnchorPoint: "Anchor-3" 300 693 basechar 0
AnchorPoint: "Anchor-2" 300 0 basechar 0
LayerCount: 2
Fore
SplineSet
481 401 m 1,0,-1
 597 0 l 1,1,-1
 465 0 l 1,2,-1
 390 310 l 1,3,-1
 362 310 l 1,4,-1
 362 0 l 1,5,-1
 238 0 l 1,6,-1
 238 310 l 1,7,-1
 208 310 l 1,8,-1
 133 0 l 1,9,-1
 3 0 l 1,10,-1
 115 401 l 1,11,-1
 184 401 l 1,12,-1
 67 604 l 1,13,-1
 67 693 l 1,14,-1
 526 693 l 1,15,-1
 526 604 l 1,16,-1
 411 401 l 1,17,-1
 481 401 l 1,0,-1
198 601 m 1,18,-1
 299 401 l 1,19,-1
 396 601 l 1,20,-1
 198 601 l 1,18,-1
EndSplineSet
EndChar

StartChar: uni046C
Encoding: 1132 1132 338
Width: 600
GlyphClass: 2
Flags: W
AnchorPoint: "Anchor-3" 300 693 basechar 0
AnchorPoint: "Anchor-2" 300 0 basechar 0
LayerCount: 2
Fore
SplineSet
556 401 m 1,0,-1
 613 0 l 1,1,-1
 491 0 l 1,2,-1
 465 310 l 1,3,-1
 440 310 l 1,4,-1
 440 0 l 1,5,-1
 328 0 l 1,6,-1
 328 310 l 1,7,-1
 303 310 l 1,8,-1
 276 0 l 1,9,-1
 156 0 l 1,10,-1
 198 310 l 1,11,-1
 131 310 l 1,12,-1
 131 -2 l 1,13,-1
 5 -2 l 1,14,-1
 5 693 l 1,15,-1
 131 693 l 1,16,-1
 131 401 l 1,17,-1
 278 401 l 1,18,-1
 188 606 l 1,19,-1
 188 693 l 1,20,-1
 574 693 l 1,21,-1
 574 606 l 1,22,-1
 487 401 l 1,23,-1
 556 401 l 1,0,-1
303 606 m 1,24,-1
 384 401 l 1,25,-1
 461 606 l 1,26,-1
 303 606 l 1,24,-1
EndSplineSet
EndChar

StartChar: uni046E
Encoding: 1134 1134 339
Width: 600
GlyphClass: 2
Flags: W
AnchorPoint: "Anchor-3" 282 693 basechar 0
AnchorPoint: "Anchor-2" 0 0 basechar 0
LayerCount: 2
Fore
SplineSet
330 751 m 1,0,-1
 234 751 l 1,1,-1
 92 881 l 1,2,-1
 149 946 l 1,3,-1
 282 861 l 1,4,-1
 415 946 l 1,5,-1
 471 881 l 1,6,-1
 330 751 l 1,0,-1
486 337.5 m 128,-1,8
 539 291 539 291 539 196 c 0,9,10
 539 132 539 132 508.5 92 c 128,-1,11
 478 52 478 52 435 31 c 128,-1,12
 392 10 392 10 323 -11 c 0,13,14
 264 -28 264 -28 246 -39 c 128,-1,15
 228 -50 228 -50 228 -66 c 0,16,17
 228 -83 228 -83 243 -95 c 128,-1,18
 258 -107 258 -107 303 -132 c 1,19,-1
 247 -226 l 1,20,21
 67 -153 67 -153 67 -50 c 0,22,23
 67 4 67 4 102 35.5 c 128,-1,24
 137 67 137 67 226 95 c 0,25,26
 282 113 282 113 310.5 125 c 128,-1,27
 339 137 339 137 355.5 156.5 c 128,-1,28
 372 176 372 176 372 207 c 0,29,30
 372 287 372 287 268 287 c 2,31,-1
 143 287 l 1,32,-1
 143 377 l 1,33,-1
 328 570 l 1,34,-1
 61 570 l 1,35,-1
 61 693 l 1,36,-1
 503 693 l 1,37,-1
 503 575 l 1,38,-1
 319 387 l 1,39,7
 433 384 433 384 486 337.5 c 128,-1,8
EndSplineSet
EndChar

StartChar: uni0474
Encoding: 1140 1140 342
Width: 600
GlyphClass: 2
Flags: W
AnchorPoint: "Anchor-3" 298 693 basechar 0
AnchorPoint: "Anchor-2" 300 0 basechar 0
LayerCount: 2
Fore
SplineSet
561 592 m 0,1,2
 549 592 549 592 542 585.5 c 128,-1,3
 535 579 535 579 531 564 c 2,4,-1
 387 0 l 1,5,-1
 183 0 l 1,6,-1
 10 693 l 1,7,-1
 183 693 l 1,8,-1
 288 125 l 1,9,-1
 373 573 l 2,10,11
 388 648 388 648 426 680.5 c 128,-1,12
 464 713 464 713 532 713 c 0,13,14
 575 713 575 713 598 704 c 1,15,-1
 577 590 l 1,16,0
 569 592 569 592 561 592 c 0,1,2
EndSplineSet
EndChar

StartChar: uni0478
Encoding: 1144 1144 344
Width: 600
Flags: W
LayerCount: 2
Fore
SplineSet
31.5 79 m 128,-1,1
 -10 175 -10 175 -10 347 c 0,2,3
 -10 516 -10 516 31.5 613.5 c 128,-1,4
 73 711 73 711 152 711 c 0,5,6
 313 711 313 711 313 347 c 0,7,8
 313 175 313 175 274 79 c 128,-1,9
 235 -17 235 -17 152 -17 c 0,10,0
 73 -17 73 -17 31.5 79 c 128,-1,1
192 144.5 m 128,-1,12
 204 206 204 206 204 347 c 256,13,14
 204 488 204 488 191.5 549.5 c 128,-1,15
 179 611 179 611 152 611 c 256,16,17
 125 611 125 611 113 550 c 128,-1,18
 101 489 101 489 101 347 c 0,19,20
 101 206 101 206 113 144.5 c 128,-1,21
 125 83 125 83 152 83 c 0,22,11
 180 83 180 83 192 144.5 c 128,-1,12
323 -150 m 1,23,24
 372 -130 372 -130 397.5 -97 c 128,-1,25
 423 -64 423 -64 433 0 c 1,26,-1
 384 0 l 1,27,-1
 313 531 l 1,28,-1
 413 531 l 1,29,-1
 453 101 l 1,30,-1
 499 531 l 1,31,-1
 595 531 l 1,32,-1
 519 0 l 2,33,34
 492 -187 492 -187 346 -223 c 1,35,-1
 323 -150 l 1,23,24
EndSplineSet
EndChar

StartChar: uni0492
Encoding: 1170 1170 345
Width: 600
GlyphClass: 2
Flags: W
AnchorPoint: "Anchor-3" 357 693 basechar 0
AnchorPoint: "Anchor-2" 197 0 basechar 0
LayerCount: 2
Fore
SplineSet
568 564 m 1,0,-1
 279 564 l 1,1,-1
 279 433 l 1,2,-1
 422 433 l 1,3,-1
 422 335 l 1,4,-1
 279 335 l 1,5,-1
 279 0 l 1,6,-1
 115 0 l 1,7,-1
 115 335 l 1,8,-1
 38 335 l 1,9,-1
 38 433 l 1,10,-1
 115 433 l 1,11,-1
 115 693 l 1,12,-1
 584 693 l 1,13,-1
 568 564 l 1,0,-1
EndSplineSet
EndChar

StartChar: uni0494
Encoding: 1172 1172 346
Width: 600
GlyphClass: 2
Flags: W
AnchorPoint: "Anchor-3" 300 693 basechar 0
AnchorPoint: "Anchor-2" 300 -221 basechar 0
LayerCount: 2
Fore
SplineSet
566 1 m 1,0,-1
 566 -26 l 2,1,2
 566 -123 566 -123 513.5 -175 c 128,-1,3
 461 -227 461 -227 366 -227 c 0,4,5
 323 -227 323 -227 291 -215.5 c 128,-1,6
 259 -204 259 -204 230 -182 c 1,7,-1
 290 -90 l 1,8,9
 310 -99 310 -99 321.5 -103 c 128,-1,10
 333 -107 333 -107 350 -107 c 0,11,12
 376 -107 376 -107 389 -91.5 c 128,-1,13
 402 -76 402 -76 402 -40 c 2,14,-1
 402 0 l 1,15,-1
 401 0 l 1,16,-1
 401 230 l 2,17,18
 401 295 401 295 379.5 322 c 128,-1,19
 358 349 358 349 307 349 c 0,20,21
 246 349 246 349 206 311 c 1,22,-1
 206 0 l 1,23,-1
 42 0 l 1,24,-1
 42 693 l 1,25,-1
 486 693 l 1,26,-1
 466 568 l 1,27,-1
 206 568 l 1,28,-1
 206 421 l 1,29,30
 272 470 272 470 353 470 c 0,31,32
 458 470 458 470 511.5 409 c 128,-1,33
 565 348 565 348 565 231 c 2,34,-1
 565 1 l 1,35,-1
 566 1 l 1,0,-1
EndSplineSet
EndChar

StartChar: uni0496
Encoding: 1174 1174 347
Width: 600
GlyphClass: 2
Flags: W
AnchorPoint: "Anchor-3" 300 693 basechar 0
AnchorPoint: "Anchor-2" 300 0 basechar 0
LayerCount: 2
Fore
SplineSet
621 12 m 1,0,-1
 621 -17 l 1,1,-1
 611 -17 l 1,2,-1
 611 -174 l 1,3,-1
 505 -174 l 1,4,-1
 485 0 l 1,5,-1
 456 0 l 1,6,-1
 378 320 l 1,7,-1
 350 320 l 1,8,-1
 350 0 l 1,9,-1
 250 0 l 1,10,-1
 250 320 l 1,11,-1
 220 320 l 1,12,-1
 142 0 l 1,13,-1
 2 0 l 1,14,-1
 110 379 l 1,15,-1
 12 693 l 1,16,-1
 147 693 l 1,17,-1
 223 402 l 1,18,-1
 250 402 l 1,19,-1
 250 693 l 1,20,-1
 350 693 l 1,21,-1
 350 402 l 1,22,-1
 377 402 l 1,23,-1
 453 693 l 1,24,-1
 588 693 l 1,25,-1
 490 379 l 1,26,-1
 563 122 l 1,27,-1
 611 122 l 1,28,-1
 611 12 l 1,29,-1
 621 12 l 1,0,-1
EndSplineSet
EndChar

StartChar: uni0498
Encoding: 1176 1176 348
Width: 600
GlyphClass: 2
Flags: W
AnchorPoint: "Anchor-3" 289 693 basechar 0
AnchorPoint: "Anchor-2" 287 0 basechar 0
LayerCount: 2
Fore
SplineSet
498 51.5 m 128,-1,1
 434 -5 434 -5 317 -15 c 1,2,-1
 317 -48 l 1,3,4
 368 -54 368 -54 394 -80 c 128,-1,5
 420 -106 420 -106 420 -147 c 0,6,7
 420 -198 420 -198 379 -230 c 128,-1,8
 338 -262 338 -262 271 -262 c 0,9,10
 237 -262 237 -262 206.5 -253.5 c 128,-1,11
 176 -245 176 -245 154 -232 c 1,12,-1
 190 -159 l 1,13,14
 224 -176 224 -176 254 -176 c 0,15,16
 307 -176 307 -176 307 -145 c 0,17,18
 307 -126 307 -126 285 -119 c 128,-1,19
 263 -112 263 -112 215 -112 c 1,20,-1
 226 -15 l 1,21,22
 89 -3 89 -3 7 82 c 1,23,-1
 91 166 l 1,24,25
 166 103 166 103 267 103 c 0,26,27
 328 103 328 103 363 130 c 128,-1,28
 398 157 398 157 398 205 c 0,29,30
 398 257 398 257 364 283 c 128,-1,31
 330 309 330 309 266 309 c 2,32,-1
 150 309 l 1,33,-1
 169 425 l 1,34,-1
 265 425 l 2,35,36
 319 425 319 425 349.5 447 c 128,-1,37
 380 469 380 469 380 510 c 0,38,39
 380 549 380 549 350 570.5 c 128,-1,40
 320 592 320 592 266 592 c 0,41,42
 172 592 172 592 104 538 c 1,43,-1
 25 621 l 1,44,45
 127 711 127 711 283 711 c 0,46,47
 360 711 360 711 418.5 687.5 c 128,-1,48
 477 664 477 664 509 622 c 128,-1,49
 541 580 541 580 541 526 c 0,50,51
 541 463 541 463 500.5 423.5 c 128,-1,52
 460 384 460 384 384 369 c 1,53,54
 467 361 467 361 514.5 317 c 128,-1,55
 562 273 562 273 562 198 c 0,56,0
 562 108 562 108 498 51.5 c 128,-1,1
EndSplineSet
EndChar

StartChar: uni049A
Encoding: 1178 1178 349
Width: 600
GlyphClass: 2
Flags: W
AnchorPoint: "Anchor-3" 324 693 basechar 0
AnchorPoint: "Anchor-2" 300 0 basechar 0
LayerCount: 2
Fore
SplineSet
545 122 m 1,0,-1
 608 122 l 1,1,-1
 608 -174 l 1,2,-1
 483 -174 l 1,3,-1
 463 0 l 1,4,-1
 429 0 l 1,5,-1
 279 302 l 1,6,-1
 216 302 l 1,7,-1
 216 0 l 1,8,-1
 52 0 l 1,9,-1
 52 693 l 1,10,-1
 216 693 l 1,11,-1
 216 420 l 1,12,-1
 277 420 l 1,13,-1
 430 693 l 1,14,-1
 589 693 l 1,15,-1
 413 379 l 1,16,-1
 545 122 l 1,0,-1
EndSplineSet
EndChar

StartChar: uni049C
Encoding: 1180 1180 350
Width: 600
GlyphClass: 2
Flags: W
AnchorPoint: "Anchor-3" 300 693 basechar 0
AnchorPoint: "Anchor-2" 300 0 basechar 0
LayerCount: 2
Fore
SplineSet
236 147 m 1,0,-1
 236 309 l 1,1,-1
 200 309 l 1,2,-1
 200 0 l 1,3,-1
 52 0 l 1,4,-1
 52 693 l 1,5,-1
 200 693 l 1,6,-1
 200 413 l 1,7,-1
 236 413 l 1,8,-1
 236 573 l 1,9,-1
 291 573 l 1,10,-1
 291 413 l 1,11,-1
 307 413 l 1,12,-1
 427 693 l 1,13,-1
 585 693 l 1,14,-1
 429 379 l 1,15,-1
 604 0 l 1,16,-1
 432 0 l 1,17,-1
 310 309 l 1,18,-1
 291 309 l 1,19,-1
 291 147 l 1,20,-1
 236 147 l 1,0,-1
EndSplineSet
EndChar

StartChar: uni049E
Encoding: 1182 1182 351
Width: 600
Flags: W
LayerCount: 2
Fore
SplineSet
428 379 m 1,0,-1
 603 0 l 1,1,-1
 424 0 l 1,2,-1
 294 302 l 1,3,-1
 231 302 l 1,4,-1
 231 0 l 1,5,-1
 67 0 l 1,6,-1
 67 534 l 1,7,-1
 10 534 l 1,8,-1
 10 629 l 1,9,-1
 67 629 l 1,10,-1
 67 693 l 1,11,-1
 231 693 l 1,12,-1
 231 629 l 1,13,-1
 315 629 l 1,14,-1
 315 534 l 1,15,-1
 231 534 l 1,16,-1
 231 420 l 1,17,-1
 292 420 l 1,18,-1
 425 693 l 1,19,-1
 584 693 l 1,20,-1
 428 379 l 1,0,-1
EndSplineSet
EndChar

StartChar: uni04A0
Encoding: 1184 1184 352
Width: 600
Flags: W
LayerCount: 2
Fore
SplineSet
304 305 m 1,0,-1
 246 305 l 1,1,-1
 246 0 l 1,2,-1
 94 0 l 1,3,-1
 94 573 l 1,4,-1
 0 573 l 1,5,-1
 0 693 l 1,6,-1
 246 693 l 1,7,-1
 246 418 l 1,8,-1
 302 418 l 1,9,-1
 431 693 l 1,10,-1
 587 693 l 1,11,-1
 430 379 l 1,12,-1
 605 0 l 1,13,-1
 432 0 l 1,14,-1
 304 305 l 1,0,-1
EndSplineSet
EndChar

StartChar: uni04A2
Encoding: 1186 1186 353
Width: 600
GlyphClass: 2
Flags: W
AnchorPoint: "Anchor-3" 300 693 basechar 0
AnchorPoint: "Anchor-2" 300 0 basechar 0
LayerCount: 2
Fore
SplineSet
548 122 m 1,0,-1
 596 122 l 1,1,-1
 596 -174 l 1,2,-1
 471 -174 l 1,3,-1
 451 0 l 1,4,-1
 384 0 l 1,5,-1
 384 292 l 1,6,-1
 216 292 l 1,7,-1
 216 0 l 1,8,-1
 52 0 l 1,9,-1
 52 693 l 1,10,-1
 216 693 l 1,11,-1
 216 427 l 1,12,-1
 384 427 l 1,13,-1
 384 693 l 1,14,-1
 548 693 l 1,15,-1
 548 122 l 1,0,-1
EndSplineSet
EndChar

StartChar: uni04A4
Encoding: 1188 1188 354
Width: 600
Flags: W
LayerCount: 2
Fore
SplineSet
619 693 m 1,0,-1
 599 564 l 1,1,-1
 480 564 l 1,2,-1
 480 0 l 1,3,-1
 316 0 l 1,4,-1
 316 290 l 1,5,-1
 197 290 l 1,6,-1
 197 0 l 1,7,-1
 33 0 l 1,8,-1
 33 693 l 1,9,-1
 197 693 l 1,10,-1
 197 429 l 1,11,-1
 316 429 l 1,12,-1
 316 693 l 1,13,-1
 619 693 l 1,0,-1
EndSplineSet
EndChar

StartChar: uni04A6
Encoding: 1190 1190 355
Width: 600
GlyphClass: 2
Flags: W
AnchorPoint: "Anchor-3" 300 693 basechar 0
AnchorPoint: "Anchor-2" 300 -221 basechar 0
LayerCount: 2
Fore
SplineSet
550 420 m 128,-1,1
 583 379 583 379 583 312 c 2,2,-1
 583 -45 l 2,3,4
 583 -128 583 -128 536 -177.5 c 128,-1,5
 489 -227 489 -227 412 -227 c 0,6,7
 369 -227 369 -227 337 -215.5 c 128,-1,8
 305 -204 305 -204 277 -182 c 1,9,-1
 332 -101 l 1,10,11
 362 -122 362 -122 396 -122 c 0,12,13
 449 -122 449 -122 449 -55 c 2,14,-1
 449 301 l 2,15,16
 449 325 449 325 439 338.5 c 128,-1,17
 429 352 429 352 411 352 c 0,18,19
 390 352 390 352 370 336 c 1,20,-1
 370 0 l 1,21,-1
 236 0 l 1,22,-1
 236 584 l 1,23,-1
 158 584 l 1,24,-1
 158 0 l 1,25,-1
 23 0 l 1,26,-1
 23 693 l 1,27,-1
 370 693 l 1,28,-1
 370 428 l 1,29,30
 408 461 408 461 459 461 c 0,31,0
 517 461 517 461 550 420 c 128,-1,1
EndSplineSet
EndChar

StartChar: uni0524
Encoding: 1316 1316 356
Width: 600
GlyphClass: 2
Flags: W
AnchorPoint: "Anchor-3" 300 693 basechar 0
AnchorPoint: "Anchor-2" 300 0 basechar 0
LayerCount: 2
Fore
SplineSet
548 122 m 1,0,-1
 596 122 l 1,1,-1
 596 -174 l 1,2,-1
 471 -174 l 1,3,-1
 451 0 l 1,4,-1
 384 0 l 1,5,-1
 384 567 l 1,6,-1
 216 567 l 1,7,-1
 216 0 l 1,8,-1
 52 0 l 1,9,-1
 52 693 l 1,10,-1
 548 693 l 1,11,-1
 548 122 l 1,0,-1
EndSplineSet
EndChar

StartChar: uni04A8
Encoding: 1192 1192 357
Width: 600
GlyphClass: 2
Flags: W
AnchorPoint: "Anchor-3" 300 693 basechar 0
AnchorPoint: "Anchor-2" 300 -221 basechar 0
LayerCount: 2
Fore
SplineSet
553 139 m 128,-1,1
 524 75 524 75 471 34 c 1,2,3
 502 -13 502 -13 556 -89 c 1,4,-1
 474 -148 l 1,5,6
 411 -61 411 -61 378 -11 c 1,7,8
 345 -20 345 -20 307 -20 c 0,9,10
 223 -20 223 -20 158.5 22.5 c 128,-1,11
 94 65 94 65 58 147.5 c 128,-1,12
 22 230 22 230 22 345 c 0,13,14
 22 461 22 461 58 544 c 128,-1,15
 94 627 94 627 158 670 c 128,-1,16
 222 713 222 713 303 713 c 0,17,18
 371 713 371 713 419 692.5 c 128,-1,19
 467 672 467 672 515 631 c 1,20,-1
 438 541 l 1,21,22
 403 568 403 568 373.5 580.5 c 128,-1,23
 344 593 344 593 310 593 c 0,24,25
 255 593 255 593 223.5 532.5 c 128,-1,26
 192 472 192 472 192 345 c 0,27,28
 192 216 192 216 223 155 c 128,-1,29
 254 94 254 94 306 94 c 2,30,-1
 316 94 l 1,31,32
 270 191 270 191 270 273 c 0,33,34
 270 348 270 348 311 390 c 128,-1,35
 352 432 352 432 423 432 c 0,36,37
 491 432 491 432 536.5 392 c 128,-1,38
 582 352 582 352 582 274 c 0,39,0
 582 203 582 203 553 139 c 128,-1,1
392.5 320 m 128,-1,41
 382 305 382 305 382 276 c 0,42,43
 382 211 382 211 417 132 c 1,44,45
 460 177 460 177 460 273 c 0,46,47
 460 303 460 303 450.5 319 c 128,-1,48
 441 335 441 335 422 335 c 256,49,40
 403 335 403 335 392.5 320 c 128,-1,41
EndSplineSet
EndChar

StartChar: uni04AA
Encoding: 1194 1194 358
Width: 600
GlyphClass: 2
Flags: W
AnchorPoint: "Anchor-3" 361 693 basechar 0
AnchorPoint: "Anchor-2" 352 0 basechar 0
LayerCount: 2
Fore
SplineSet
406 -14 m 1,1,2
 483 -60 483 -60 483 -136 c 0,3,4
 483 -192 483 -192 442 -225 c 128,-1,5
 401 -258 401 -258 330 -258 c 0,6,7
 272 -258 272 -258 225 -233 c 1,8,-1
 256 -154 l 1,9,10
 284 -168 284 -168 319 -168 c 0,11,12
 347 -168 347 -168 361 -154.5 c 128,-1,13
 375 -141 375 -141 375 -119 c 0,14,15
 375 -60 375 -60 305 -14 c 1,16,17
 181 2 181 2 107.5 96 c 128,-1,18
 34 190 34 190 34 348 c 0,19,20
 34 461 34 461 76 543 c 128,-1,21
 118 625 118 625 192 668 c 128,-1,22
 266 711 266 711 358 711 c 0,23,24
 430 711 430 711 482 692 c 128,-1,25
 534 673 534 673 580 635 c 1,26,-1
 500 538 l 1,27,28
 437 589 437 589 362 589 c 0,29,30
 291 589 291 589 247.5 529 c 128,-1,31
 204 469 204 469 204 348 c 256,32,33
 204 227 204 227 247 168.5 c 128,-1,34
 290 110 290 110 365 110 c 0,35,36
 411 110 411 110 444 126 c 128,-1,37
 477 142 477 142 515 172 c 1,38,-1
 589 77 l 1,39,0
 514 1 514 1 406 -14 c 1,1,2
EndSplineSet
EndChar

StartChar: uni04AC
Encoding: 1196 1196 359
Width: 600
GlyphClass: 2
Flags: W
AnchorPoint: "Anchor-3" 299 693 basechar 0
AnchorPoint: "Anchor-2" 299 0 basechar 0
LayerCount: 2
Fore
SplineSet
567 567 m 1,0,-1
 381 567 l 1,1,-1
 381 122 l 1,2,-1
 429 122 l 1,3,-1
 429 -174 l 1,4,-1
 304 -174 l 1,5,-1
 284 0 l 1,6,-1
 217 0 l 1,7,-1
 217 567 l 1,8,-1
 22 567 l 1,9,-1
 22 693 l 1,10,-1
 583 693 l 1,11,-1
 567 567 l 1,0,-1
EndSplineSet
EndChar

StartChar: uni04B0
Encoding: 1200 1200 361
Width: 600
GlyphClass: 2
Flags: W
AnchorPoint: "Anchor-3" 300 693 basechar 0
AnchorPoint: "Anchor-2" 300 0 basechar 0
LayerCount: 2
Fore
SplineSet
608 693 m 1,0,-1
 400 294 l 1,1,-1
 498 294 l 1,2,-1
 498 201 l 1,3,-1
 382 201 l 1,4,-1
 382 0 l 1,5,-1
 218 0 l 1,6,-1
 218 201 l 1,7,-1
 102 201 l 1,8,-1
 102 294 l 1,9,-1
 200 294 l 1,10,-1
 -8 693 l 1,11,-1
 172 693 l 1,12,-1
 303 395 l 1,13,-1
 435 693 l 1,14,-1
 608 693 l 1,0,-1
EndSplineSet
EndChar

StartChar: uni04B2
Encoding: 1202 1202 362
Width: 600
GlyphClass: 2
Flags: W
AnchorPoint: "Anchor-3" 300 693 basechar 0
AnchorPoint: "Anchor-2" 300 0 basechar 0
LayerCount: 2
Fore
SplineSet
532 122 m 1,0,-1
 597 122 l 1,1,-1
 597 -174 l 1,2,-1
 472 -174 l 1,3,-1
 452 0 l 1,4,-1
 419 0 l 1,5,-1
 419 1 l 1,6,-1
 298 264 l 1,7,-1
 178 0 l 1,8,-1
 4 0 l 1,9,-1
 200 368 l 1,10,-1
 19 693 l 1,11,-1
 196 693 l 1,12,-1
 300 471 l 1,13,-1
 407 693 l 1,14,-1
 580 693 l 1,15,-1
 396 375 l 1,16,-1
 532 122 l 1,0,-1
EndSplineSet
EndChar

StartChar: uni04B4
Encoding: 1204 1204 363
Width: 600
GlyphClass: 2
Flags: W
AnchorPoint: "Anchor-3" 300 693 basechar 0
AnchorPoint: "Anchor-2" 300 -221 basechar 0
LayerCount: 2
Fore
SplineSet
518 122 m 1,0,-1
 566 122 l 1,1,-1
 566 -174 l 1,2,-1
 460 -174 l 1,3,-1
 440 0 l 1,4,-1
 91 0 l 1,5,-1
 91 587 l 1,6,-1
 0 587 l 1,7,-1
 0 693 l 1,8,-1
 328 693 l 1,9,-1
 313 587 l 1,10,-1
 236 587 l 1,11,-1
 236 128 l 1,12,-1
 373 128 l 1,13,-1
 373 693 l 1,14,-1
 518 693 l 1,15,-1
 518 122 l 1,0,-1
EndSplineSet
EndChar

StartChar: uni04B6
Encoding: 1206 1206 364
Width: 600
GlyphClass: 2
Flags: W
AnchorPoint: "Anchor-3" 286 693 basechar 0
AnchorPoint: "Anchor-2" 300 0 basechar 0
LayerCount: 2
Fore
SplineSet
596 122 m 1,0,-1
 596 -174 l 1,1,-1
 471 -174 l 1,2,-1
 451 0 l 1,3,-1
 384 0 l 1,4,-1
 384 243 l 1,5,6
 323 198 323 198 240 198 c 0,7,8
 138 198 138 198 81.5 258.5 c 128,-1,9
 25 319 25 319 25 434 c 2,10,-1
 25 693 l 1,11,-1
 189 693 l 1,12,-1
 189 439 l 2,13,14
 189 374 189 374 211.5 346.5 c 128,-1,15
 234 319 234 319 286 319 c 0,16,17
 344 319 344 319 384 355 c 1,18,-1
 384 693 l 1,19,-1
 548 693 l 1,20,-1
 548 122 l 1,21,-1
 596 122 l 1,0,-1
EndSplineSet
EndChar

StartChar: uni04B8
Encoding: 1208 1208 365
Width: 600
GlyphClass: 2
Flags: W
AnchorPoint: "Anchor-3" 286 693 basechar 0
AnchorPoint: "Anchor-2" 300 0 basechar 0
LayerCount: 2
Fore
SplineSet
548 693 m 1,0,-1
 548 0 l 1,1,-1
 384 0 l 1,2,-1
 384 243 l 1,3,4
 357 224 357 224 325 212 c 1,5,-1
 325 125 l 1,6,-1
 259 125 l 1,7,-1
 259 199 l 1,8,9
 253 198 253 198 240 198 c 0,10,11
 138 198 138 198 81.5 258.5 c 128,-1,12
 25 319 25 319 25 434 c 2,13,-1
 25 693 l 1,14,-1
 189 693 l 1,15,-1
 189 439 l 2,16,17
 189 383 189 383 205.5 355 c 128,-1,18
 222 327 222 327 259 321 c 1,19,-1
 259 555 l 1,20,-1
 325 555 l 1,21,-1
 325 323 l 1,22,23
 357 332 357 332 384 355 c 1,24,-1
 384 693 l 1,25,-1
 548 693 l 1,0,-1
EndSplineSet
EndChar

StartChar: uni04BA
Encoding: 1210 1210 366
Width: 600
GlyphClass: 2
Flags: W
AnchorPoint: "Anchor-3" 300 693 basechar 0
AnchorPoint: "Anchor-2" 300 0 basechar 0
LayerCount: 2
Fore
SplineSet
521.5 409 m 128,-1,1
 575 348 575 348 575 231 c 2,2,-1
 575 0 l 1,3,-1
 411 0 l 1,4,-1
 411 230 l 2,5,6
 411 295 411 295 389.5 322 c 128,-1,7
 368 349 368 349 317 349 c 0,8,9
 256 349 256 349 216 311 c 1,10,-1
 216 0 l 1,11,-1
 52 0 l 1,12,-1
 52 693 l 1,13,-1
 216 693 l 1,14,-1
 216 421 l 1,15,16
 282 470 282 470 363 470 c 0,17,0
 468 470 468 470 521.5 409 c 128,-1,1
EndSplineSet
EndChar

StartChar: uni0526
Encoding: 1318 1318 367
Width: 600
Flags: W
LayerCount: 2
Fore
SplineSet
604 122 m 1,0,-1
 604 -174 l 1,1,-1
 479 -174 l 1,2,-1
 459 0 l 1,3,-1
 392 0 l 1,4,-1
 392 230 l 2,5,6
 392 294 392 294 371 321.5 c 128,-1,7
 350 349 350 349 306 349 c 0,8,9
 256 349 256 349 216 311 c 1,10,-1
 216 0 l 1,11,-1
 52 0 l 1,12,-1
 52 693 l 1,13,-1
 216 693 l 1,14,-1
 216 421 l 1,15,16
 282 470 282 470 353 470 c 0,17,18
 451 470 451 470 503.5 408.5 c 128,-1,19
 556 347 556 347 556 231 c 2,20,-1
 556 122 l 1,21,-1
 604 122 l 1,0,-1
EndSplineSet
EndChar

StartChar: uni04BC
Encoding: 1212 1212 368
Width: 600
GlyphClass: 2
Flags: W
AnchorPoint: "Anchor-3" 300 693 basechar 0
AnchorPoint: "Anchor-2" 300 0 basechar 0
LayerCount: 2
Fore
SplineSet
571 286 m 1,1,-1
 282 286 l 1,2,3
 283 183 283 183 308.5 138 c 128,-1,4
 334 93 334 93 383 93 c 0,5,6
 411 93 411 93 435 104 c 128,-1,7
 459 115 459 115 489 136 c 1,8,-1
 548 57 l 1,9,10
 510 21 510 21 465.5 2 c 128,-1,11
 421 -17 421 -17 374 -17 c 0,12,13
 263 -17 263 -17 205.5 60 c 128,-1,14
 148 137 148 137 140 290 c 1,15,16
 71 291 71 291 33 331.5 c 128,-1,17
 -5 372 -5 372 -5 437 c 0,18,19
 -5 468 -5 468 2 491.5 c 128,-1,20
 9 515 9 515 23 539 c 1,21,-1
 109 505 l 2,22,23
 108 502 108 502 101.5 484.5 c 128,-1,24
 95 467 95 467 95 445 c 0,25,26
 95 419 95 419 106 406 c 128,-1,27
 117 393 117 393 140 392 c 1,28,29
 148 547 148 547 205.5 629 c 128,-1,30
 263 711 263 711 365 711 c 0,31,32
 576 711 576 711 576 357 c 0,33,0
 576 319 576 319 571 286 c 1,1,-1
420.5 556 m 128,-1,35
 403 602 403 602 365 602 c 0,36,37
 324 602 324 602 304.5 556 c 128,-1,38
 285 510 285 510 282 392 c 1,39,-1
 436 392 l 1,40,34
 438 510 438 510 420.5 556 c 128,-1,35
EndSplineSet
EndChar

StartChar: uni04BE
Encoding: 1214 1214 369
Width: 600
GlyphClass: 2
Flags: W
AnchorPoint: "Anchor-3" 300 693 basechar 0
AnchorPoint: "Anchor-2" 300 0 basechar 0
LayerCount: 2
Fore
SplineSet
571 286 m 1,1,-1
 282 286 l 1,2,3
 283 183 283 183 308.5 138 c 128,-1,4
 334 93 334 93 383 93 c 0,5,6
 411 93 411 93 435 104 c 128,-1,7
 459 115 459 115 489 136 c 1,8,-1
 548 57 l 1,9,10
 507 19 507 19 461 0 c 1,11,-1
 457 -1 l 1,12,-1
 449 -4 l 2,13,14
 391 -26 391 -26 368.5 -52 c 128,-1,15
 346 -78 346 -78 346 -110 c 0,16,17
 346 -134 346 -134 361.5 -146.5 c 128,-1,18
 377 -159 377 -159 404 -159 c 0,19,20
 428 -159 428 -159 458 -152 c 1,21,-1
 446 -245 l 1,22,23
 417 -253 417 -253 387 -253 c 0,24,25
 321 -253 321 -253 278.5 -220.5 c 128,-1,26
 236 -188 236 -188 236 -130 c 0,27,28
 236 -53 236 -53 304 -8 c 1,29,30
 227 14 227 14 187 88.5 c 128,-1,31
 147 163 147 163 140 290 c 1,32,33
 71 291 71 291 33 331.5 c 128,-1,34
 -5 372 -5 372 -5 437 c 0,35,36
 -5 468 -5 468 2 491.5 c 128,-1,37
 9 515 9 515 23 539 c 1,38,-1
 109 505 l 2,39,40
 108 502 108 502 101.5 484.5 c 128,-1,41
 95 467 95 467 95 445 c 0,42,43
 95 419 95 419 106 406 c 128,-1,44
 117 393 117 393 140 392 c 1,45,46
 148 547 148 547 205.5 629 c 128,-1,47
 263 711 263 711 365 711 c 0,48,49
 576 711 576 711 576 357 c 0,50,0
 576 319 576 319 571 286 c 1,1,-1
420.5 556 m 128,-1,52
 403 602 403 602 365 602 c 0,53,54
 324 602 324 602 304.5 556 c 128,-1,55
 285 510 285 510 282 392 c 1,56,-1
 436 392 l 1,57,51
 438 510 438 510 420.5 556 c 128,-1,52
EndSplineSet
EndChar

StartChar: uni04C3
Encoding: 1219 1219 372
Width: 600
GlyphClass: 2
Flags: W
AnchorPoint: "Anchor-3" 300 693 basechar 0
AnchorPoint: "Anchor-2" 300 -221 basechar 0
LayerCount: 2
Fore
SplineSet
533.5 341 m 128,-1,1
 568 292 568 292 568 202 c 2,2,-1
 568 -26 l 2,3,4
 568 -123 568 -123 515.5 -175 c 128,-1,5
 463 -227 463 -227 368 -227 c 0,6,7
 325 -227 325 -227 293 -215.5 c 128,-1,8
 261 -204 261 -204 232 -182 c 1,9,-1
 292 -90 l 1,10,11
 312 -99 312 -99 323.5 -103 c 128,-1,12
 335 -107 335 -107 352 -107 c 0,13,14
 378 -107 378 -107 391 -91.5 c 128,-1,15
 404 -76 404 -76 404 -40 c 2,16,-1
 404 200 l 2,17,18
 404 247 404 247 385 269.5 c 128,-1,19
 366 292 366 292 324 292 c 2,20,-1
 216 292 l 1,21,-1
 216 0 l 1,22,-1
 52 0 l 1,23,-1
 52 693 l 1,24,-1
 216 693 l 1,25,-1
 216 410 l 1,26,-1
 281 410 l 1,27,-1
 429 693 l 1,28,-1
 589 693 l 1,29,-1
 428 404 l 1,30,0
 499 390 499 390 533.5 341 c 128,-1,1
EndSplineSet
EndChar

StartChar: uni04C5
Encoding: 1221 1221 373
Width: 600
Flags: W
LayerCount: 2
Fore
SplineSet
610 152 m 1,0,-1
 511 -174 l 1,1,-1
 376 -174 l 1,2,-1
 415 0 l 1,3,-1
 356 0 l 1,4,-1
 356 568 l 1,5,-1
 277 568 l 1,6,-1
 267 457 l 2,7,8
 251 288 251 288 228.5 198.5 c 128,-1,9
 206 109 206 109 166.5 62 c 128,-1,10
 127 15 127 15 54 -20 c 1,11,-1
 -10 88 l 1,12,13
 27 116 27 116 48 149 c 128,-1,14
 69 182 69 182 84.5 255.5 c 128,-1,15
 100 329 100 329 114 473 c 2,16,-1
 134 693 l 1,17,-1
 520 693 l 1,18,-1
 520 152 l 1,19,-1
 610 152 l 1,0,-1
EndSplineSet
EndChar

StartChar: uni04C7
Encoding: 1223 1223 374
Width: 600
GlyphClass: 2
Flags: W
AnchorPoint: "Anchor-3" 300 693 basechar 0
AnchorPoint: "Anchor-2" 300 0 basechar 0
LayerCount: 2
Fore
SplineSet
548 693 m 1,0,-1
 548 -26 l 2,1,2
 548 -123 548 -123 495.5 -175 c 128,-1,3
 443 -227 443 -227 348 -227 c 0,4,5
 305 -227 305 -227 273 -215.5 c 128,-1,6
 241 -204 241 -204 212 -182 c 1,7,-1
 272 -90 l 1,8,9
 292 -99 292 -99 303.5 -103 c 128,-1,10
 315 -107 315 -107 332 -107 c 0,11,12
 358 -107 358 -107 371 -91.5 c 128,-1,13
 384 -76 384 -76 384 -40 c 2,14,-1
 384 292 l 1,15,-1
 216 292 l 1,16,-1
 216 0 l 1,17,-1
 52 0 l 1,18,-1
 52 693 l 1,19,-1
 216 693 l 1,20,-1
 216 427 l 1,21,-1
 384 427 l 1,22,-1
 384 693 l 1,23,-1
 548 693 l 1,0,-1
EndSplineSet
EndChar

StartChar: uni04C9
Encoding: 1225 1225 375
Width: 600
Flags: W
LayerCount: 2
Fore
SplineSet
509 152 m 1,0,-1
 599 152 l 1,1,-1
 500 -174 l 1,2,-1
 365 -174 l 1,3,-1
 404 0 l 1,4,-1
 345 0 l 1,5,-1
 345 290 l 1,6,-1
 207 290 l 1,7,-1
 207 0 l 1,8,-1
 43 0 l 1,9,-1
 43 693 l 1,10,-1
 207 693 l 1,11,-1
 207 429 l 1,12,-1
 345 429 l 1,13,-1
 345 693 l 1,14,-1
 509 693 l 1,15,-1
 509 152 l 1,0,-1
EndSplineSet
EndChar

StartChar: uni04CB
Encoding: 1227 1227 376
Width: 600
GlyphClass: 2
Flags: W
AnchorPoint: "Anchor-3" 286 693 basechar 0
AnchorPoint: "Anchor-2" 300 0 basechar 0
LayerCount: 2
Fore
SplineSet
548 693 m 1,0,-1
 548 0 l 1,1,-1
 384 0 l 1,2,-1
 384 243 l 1,3,4
 323 198 323 198 240 198 c 0,5,6
 138 198 138 198 81.5 258.5 c 128,-1,7
 25 319 25 319 25 434 c 2,8,-1
 25 693 l 1,9,-1
 189 693 l 1,10,-1
 189 439 l 2,11,12
 189 374 189 374 211.5 346.5 c 128,-1,13
 234 319 234 319 286 319 c 0,14,15
 344 319 344 319 384 355 c 1,16,-1
 384 693 l 1,17,-1
 548 693 l 1,0,-1
136 122 m 1,18,-1
 273 122 l 1,19,-1
 314 0 l 1,20,-1
 281 0 l 1,21,-1
 261 -174 l 1,22,-1
 136 -174 l 1,23,-1
 136 122 l 1,18,-1
EndSplineSet
EndChar

StartChar: uni04CD
Encoding: 1229 1229 377
Width: 600
Flags: W
LayerCount: 2
Fore
SplineSet
630 152 m 1,0,-1
 531 -174 l 1,1,-1
 415 -174 l 1,2,-1
 455 0 l 1,3,-1
 403 0 l 1,4,-1
 395 297 l 2,5,6
 394 319 394 319 394 358 c 0,7,8
 394 407 394 407 397 456 c 128,-1,9
 400 505 400 505 404 560 c 2,10,-1
 345 118 l 1,11,-1
 221 118 l 1,12,-1
 157 560 l 1,13,14
 168 437 168 437 168 347 c 2,15,-1
 167 294 l 1,16,-1
 161 0 l 1,17,-1
 21 0 l 1,18,-1
 60 693 l 1,19,-1
 229 693 l 1,20,-1
 286 245 l 1,21,-1
 339 693 l 1,22,-1
 508 693 l 1,23,-1
 538 152 l 1,24,-1
 630 152 l 1,0,-1
EndSplineSet
EndChar

StartChar: uni04D8
Encoding: 1240 1240 382
Width: 600
GlyphClass: 2
Flags: W
AnchorPoint: "Anchor-3" 292 694 basechar 0
AnchorPoint: "Anchor-2" 300 0 basechar 0
LayerCount: 2
Fore
SplineSet
25 403 m 1,1,-1
 413 403 l 1,2,3
 410 501 410 501 376 547 c 128,-1,4
 342 593 342 593 277 593 c 0,5,6
 234 593 234 593 203.5 579.5 c 128,-1,7
 173 566 173 566 135 538 c 1,8,-1
 60 624 l 1,9,10
 110 667 110 667 165.5 689 c 128,-1,11
 221 711 221 711 292 711 c 0,12,13
 430 711 430 711 503 619.5 c 128,-1,14
 576 528 576 528 576 351 c 256,15,16
 576 174 576 174 502.5 78.5 c 128,-1,17
 429 -17 429 -17 296 -17 c 0,18,19
 158 -17 158 -17 89 76 c 128,-1,20
 20 169 20 169 20 337 c 0,21,0
 20 370 20 370 25 403 c 1,1,-1
380.5 146 m 128,-1,23
 410 191 410 191 413 292 c 1,24,-1
 175 292 l 1,25,26
 176 191 176 191 207 146 c 128,-1,27
 238 101 238 101 296 101 c 0,28,22
 351 101 351 101 380.5 146 c 128,-1,23
EndSplineSet
EndChar

StartChar: uni04E0
Encoding: 1248 1248 386
Width: 600
Flags: W
LayerCount: 2
Fore
SplineSet
503 353.5 m 128,-1,1
 559 305 559 305 559 213 c 0,2,3
 559 148 559 148 525 95 c 128,-1,4
 491 42 491 42 428 11 c 128,-1,5
 365 -20 365 -20 281 -20 c 0,6,7
 198 -20 198 -20 144 3 c 128,-1,8
 90 26 90 26 41 70 c 1,9,-1
 117 157 l 1,10,11
 157 126 157 126 193 113 c 128,-1,12
 229 100 229 100 274 100 c 0,13,14
 327 100 327 100 358 127 c 128,-1,15
 389 154 389 154 389 211 c 0,16,17
 389 264 389 264 356 285.5 c 128,-1,18
 323 307 323 307 259 307 c 2,19,-1
 162 307 l 1,20,-1
 162 393 l 1,21,-1
 348 570 l 1,22,-1
 80 570 l 1,23,-1
 80 693 l 1,24,-1
 522 693 l 1,25,-1
 522 575 l 1,26,-1
 343 402 l 1,27,-1
 349 402 l 2,28,0
 447 402 447 402 503 353.5 c 128,-1,1
EndSplineSet
EndChar

StartChar: uni04E8
Encoding: 1256 1256 390
Width: 600
GlyphClass: 2
Flags: W
AnchorPoint: "Anchor-3" 300 693 basechar 0
AnchorPoint: "Anchor-2" 300 0 basechar 0
LayerCount: 2
Fore
SplineSet
505.5 80.5 m 128,-1,1
 434 -17 434 -17 300 -17 c 0,2,3
 165 -17 165 -17 94 79.5 c 128,-1,4
 23 176 23 176 23 347 c 0,5,6
 23 516 23 516 94.5 613.5 c 128,-1,7
 166 711 166 711 300 711 c 0,8,9
 435 711 435 711 506 614.5 c 128,-1,10
 577 518 577 518 577 347 c 0,11,0
 577 178 577 178 505.5 80.5 c 128,-1,1
218.5 545.5 m 128,-1,13
 191 500 191 500 186 402 c 1,14,-1
 413 402 l 1,15,16
 408 500 408 500 381.5 545.5 c 128,-1,17
 355 591 355 591 300 591 c 0,18,12
 246 591 246 591 218.5 545.5 c 128,-1,13
383.5 151 m 128,-1,20
 410 199 410 199 414 301 c 1,21,-1
 186 301 l 1,22,23
 189 199 189 199 216.5 151 c 128,-1,24
 244 103 244 103 300 103 c 0,25,19
 357 103 357 103 383.5 151 c 128,-1,20
EndSplineSet
EndChar

StartChar: uni04F6
Encoding: 1270 1270 397
Width: 600
GlyphClass: 2
Flags: W
AnchorPoint: "Anchor-3" 332 693 basechar 0
AnchorPoint: "Anchor-2" 172 0 basechar 0
LayerCount: 2
Fore
SplineSet
543 564 m 1,0,-1
 254 564 l 1,1,-1
 254 122 l 1,2,-1
 322 122 l 1,3,-1
 322 -174 l 1,4,-1
 197 -174 l 1,5,-1
 177 0 l 1,6,-1
 90 0 l 1,7,-1
 90 693 l 1,8,-1
 559 693 l 1,9,-1
 543 564 l 1,0,-1
EndSplineSet
EndChar

StartChar: uni04FA
Encoding: 1274 1274 399
Width: 600
GlyphClass: 2
Flags: W
AnchorPoint: "Anchor-3" 401 693 basechar 0
AnchorPoint: "Anchor-2" 241 0 basechar 0
LayerCount: 2
Fore
SplineSet
323 564 m 1,0,-1
 323 433 l 1,1,-1
 466 433 l 1,2,-1
 466 335 l 1,3,-1
 323 335 l 1,4,-1
 323 122 l 1,5,-1
 397 122 l 1,6,-1
 397 -26 l 2,7,8
 397 -123 397 -123 344.5 -175 c 128,-1,9
 292 -227 292 -227 197 -227 c 0,10,11
 154 -227 154 -227 122 -215.5 c 128,-1,12
 90 -204 90 -204 61 -182 c 1,13,-1
 121 -90 l 1,14,15
 141 -99 141 -99 152.5 -103 c 128,-1,16
 164 -107 164 -107 181 -107 c 0,17,18
 207 -107 207 -107 220 -91.5 c 128,-1,19
 233 -76 233 -76 233 -40 c 2,20,-1
 233 0 l 1,21,-1
 159 0 l 1,22,-1
 159 335 l 1,23,-1
 82 335 l 1,24,-1
 82 433 l 1,25,-1
 159 433 l 1,26,-1
 159 693 l 1,27,-1
 628 693 l 1,28,-1
 612 564 l 1,29,-1
 323 564 l 1,0,-1
EndSplineSet
EndChar

StartChar: uni04FC
Encoding: 1276 1276 400
Width: 600
GlyphClass: 2
Flags: W
AnchorPoint: "Anchor-3" 296 693 basechar 0
AnchorPoint: "Anchor-2" 296 0 basechar 0
LayerCount: 2
Fore
SplineSet
609 122 m 1,0,-1
 609 -26 l 2,1,2
 609 -123 609 -123 556.5 -175 c 128,-1,3
 504 -227 504 -227 409 -227 c 0,4,5
 366 -227 366 -227 334 -215.5 c 128,-1,6
 302 -204 302 -204 273 -182 c 1,7,-1
 333 -90 l 1,8,9
 353 -99 353 -99 364.5 -103 c 128,-1,10
 376 -107 376 -107 393 -107 c 0,11,12
 419 -107 419 -107 432 -91.5 c 128,-1,13
 445 -76 445 -76 445 -40 c 2,14,-1
 445 0 l 1,15,-1
 416 0 l 1,16,-1
 294 264 l 1,17,-1
 174 0 l 1,18,-1
 0 0 l 1,19,-1
 196 368 l 1,20,-1
 15 693 l 1,21,-1
 192 693 l 1,22,-1
 296 471 l 1,23,-1
 403 693 l 1,24,-1
 576 693 l 1,25,-1
 392 375 l 1,26,-1
 528 122 l 1,27,-1
 609 122 l 1,0,-1
EndSplineSet
EndChar

StartChar: uni04FE
Encoding: 1278 1278 401
Width: 600
GlyphClass: 2
Flags: W
AnchorPoint: "Anchor-3" 300 693 basechar 0
AnchorPoint: "Anchor-2" 300 0 basechar 0
LayerCount: 2
Fore
SplineSet
426 319 m 1,0,-1
 597 0 l 1,1,-1
 420 0 l 1,2,-1
 298 264 l 1,3,-1
 178 0 l 1,4,-1
 4 0 l 1,5,-1
 174 319 l 1,6,-1
 19 319 l 1,7,-1
 19 417 l 1,8,-1
 173 417 l 1,9,-1
 19 693 l 1,10,-1
 196 693 l 1,11,-1
 300 471 l 1,12,-1
 407 693 l 1,13,-1
 580 693 l 1,14,-1
 420 417 l 1,15,-1
 583 417 l 1,16,-1
 583 319 l 1,17,-1
 426 319 l 1,0,-1
EndSplineSet
EndChar

StartChar: uni0500
Encoding: 1280 1280 402
Width: 600
GlyphClass: 2
Flags: W
AnchorPoint: "Anchor-3" 300 693 basechar 0
AnchorPoint: "Anchor-2" 300 0 basechar 0
LayerCount: 2
Fore
SplineSet
97.5 57 m 128,-1,1
 24 114 24 114 24 230 c 0,2,3
 24 339 24 339 101 399 c 128,-1,4
 178 459 178 459 313 459 c 2,5,-1
 381 459 l 1,6,-1
 381 693 l 1,7,-1
 545 693 l 1,8,-1
 545 0 l 1,9,-1
 301 0 l 2,10,0
 171 0 171 0 97.5 57 c 128,-1,1
381 120 m 1,11,-1
 381 342 l 1,12,-1
 319 342 l 2,13,14
 255 342 255 342 224 314.5 c 128,-1,15
 193 287 193 287 193 230 c 0,16,17
 193 172 193 172 223 146 c 128,-1,18
 253 120 253 120 313 120 c 2,19,-1
 381 120 l 1,11,-1
EndSplineSet
EndChar

StartChar: uni0502
Encoding: 1282 1282 403
Width: 600
GlyphClass: 2
Flags: W
AnchorPoint: "Anchor-3" 300 693 basechar 0
AnchorPoint: "Anchor-2" 300 0 basechar 0
LayerCount: 2
Fore
SplineSet
583 246 m 0,1,2
 583 113 583 113 538 48 c 128,-1,3
 493 -17 493 -17 403 -17 c 0,4,5
 322 -17 322 -17 282 48 c 1,6,7
 260 17 260 17 233.5 1 c 128,-1,8
 207 -15 207 -15 170 -15 c 0,9,10
 126 -15 126 -15 90 10.5 c 128,-1,11
 54 36 54 36 32 87 c 128,-1,12
 10 138 10 138 10 209 c 0,13,14
 10 281 10 281 37 334 c 128,-1,15
 64 387 64 387 110.5 415 c 128,-1,16
 157 443 157 443 214 443 c 2,17,-1
 252 443 l 1,18,-1
 252 693 l 1,19,-1
 376 693 l 1,20,-1
 376 139 l 2,21,22
 376 114 376 114 385 102 c 128,-1,23
 394 90 394 90 408 90 c 0,24,25
 433 90 433 90 445 127.5 c 128,-1,26
 457 165 457 165 457 245 c 0,27,28
 457 312 457 312 452 379 c 1,29,-1
 577 379 l 1,30,0
 583 321 583 321 583 246 c 0,1,2
225 99.5 m 128,-1,32
 239 109 239 109 252 132 c 1,33,-1
 252 341 l 1,34,-1
 220 341 l 2,35,36
 178 341 178 341 156.5 310 c 128,-1,37
 135 279 135 279 135 210 c 0,38,39
 135 90 135 90 193 90 c 0,40,31
 211 90 211 90 225 99.5 c 128,-1,32
EndSplineSet
EndChar

StartChar: uni0504
Encoding: 1284 1284 404
Width: 600
GlyphClass: 2
Flags: W
AnchorPoint: "Anchor-3" 300 693 basechar 0
AnchorPoint: "Anchor-2" 300 0 basechar 0
LayerCount: 2
Fore
SplineSet
584 256 m 0,1,2
 584 -17 584 -17 381 -17 c 0,3,4
 306 -17 306 -17 258.5 16 c 128,-1,5
 211 49 211 49 179 116 c 2,6,-1
 110 265 l 1,7,-1
 37 265 l 1,8,-1
 37 376 l 1,9,-1
 112 376 l 2,10,11
 167 376 167 376 194.5 401.5 c 128,-1,12
 222 427 222 427 222 482 c 0,13,14
 222 533 222 533 193 556.5 c 128,-1,15
 164 580 164 580 105 580 c 2,16,-1
 16 580 l 1,17,-1
 16 693 l 1,18,-1
 105 693 l 2,19,20
 248 693 248 693 319 641 c 128,-1,21
 390 589 390 589 390 482 c 0,22,23
 390 414 390 414 354.5 368 c 128,-1,24
 319 322 319 322 259 295 c 1,25,-1
 332 145 l 2,26,27
 342 123 342 123 353 114.5 c 128,-1,28
 364 106 364 106 380 106 c 0,29,30
 407 106 407 106 419.5 140 c 128,-1,31
 432 174 432 174 432 255 c 0,32,33
 432 312 432 312 427 379 c 1,34,-1
 578 379 l 1,35,0
 584 321 584 321 584 256 c 0,1,2
EndSplineSet
EndChar

StartChar: uni0506
Encoding: 1286 1286 405
Width: 600
GlyphClass: 2
Flags: W
AnchorPoint: "Anchor-3" 300 693 basechar 0
AnchorPoint: "Anchor-2" 300 -221 basechar 0
LayerCount: 2
Fore
SplineSet
566 122 m 1,0,-1
 566 -174 l 1,1,-1
 441 -174 l 1,2,-1
 421 0 l 1,3,-1
 369 0 l 1,4,-1
 219 265 l 1,5,-1
 87 265 l 1,6,-1
 87 378 l 1,7,-1
 234 378 l 2,8,9
 343 378 343 378 343 482 c 0,10,11
 343 532 343 532 314.5 555 c 128,-1,12
 286 578 286 578 227 578 c 2,13,-1
 57 578 l 1,14,-1
 57 693 l 1,15,-1
 226 693 l 2,16,17
 369 693 369 693 440.5 641 c 128,-1,18
 512 589 512 589 512 482 c 0,19,20
 512 412 512 412 474 364.5 c 128,-1,21
 436 317 436 317 373 292 c 1,22,-1
 479 122 l 1,23,-1
 566 122 l 1,0,-1
EndSplineSet
EndChar

StartChar: uni0508
Encoding: 1288 1288 406
Width: 600
GlyphClass: 2
Flags: W
AnchorPoint: "Anchor-3" 300 693 basechar 0
AnchorPoint: "Anchor-2" 300 0 basechar 0
LayerCount: 2
Fore
SplineSet
598 246 m 0,1,2
 598 -17 598 -17 418 -17 c 0,3,4
 351 -17 351 -17 308 26.5 c 128,-1,5
 265 70 265 70 265 149 c 2,6,-1
 265 586 l 1,7,-1
 212 586 l 1,8,-1
 203 417 l 2,9,10
 195 264 195 264 179.5 183.5 c 128,-1,11
 164 103 164 103 136 60 c 128,-1,12
 108 17 108 17 53 -20 c 1,13,-1
 -5 74 l 1,14,15
 22 97 22 97 38 131.5 c 128,-1,16
 54 166 54 166 65 239.5 c 128,-1,17
 76 313 76 313 84 453 c 2,18,-1
 98 693 l 1,19,-1
 390 693 l 1,20,-1
 390 139 l 2,21,22
 390 114 390 114 399 102 c 128,-1,23
 408 90 408 90 423 90 c 0,24,25
 472 90 472 90 472 245 c 0,26,27
 472 312 472 312 467 379 c 1,28,-1
 592 379 l 1,29,0
 598 321 598 321 598 246 c 0,1,2
EndSplineSet
EndChar

StartChar: uni050A
Encoding: 1290 1290 407
Width: 600
GlyphClass: 2
Flags: W
AnchorPoint: "Anchor-3" 300 693 basechar 0
AnchorPoint: "Anchor-2" 300 0 basechar 0
LayerCount: 2
Fore
SplineSet
592 246 m 0,1,2
 592 112 592 112 546 47.5 c 128,-1,3
 500 -17 500 -17 406 -17 c 0,4,5
 362 -17 362 -17 325.5 2 c 128,-1,6
 289 21 289 21 267 58.5 c 128,-1,7
 245 96 245 96 245 149 c 2,8,-1
 245 290 l 1,9,-1
 163 290 l 1,10,-1
 163 0 l 1,11,-1
 31 0 l 1,12,-1
 31 693 l 1,13,-1
 163 693 l 1,14,-1
 163 407 l 1,15,-1
 245 407 l 1,16,-1
 245 693 l 1,17,-1
 378 693 l 1,18,-1
 378 139 l 2,19,20
 378 114 378 114 387 102 c 128,-1,21
 396 90 396 90 410 90 c 0,22,23
 435 90 435 90 447 127.5 c 128,-1,24
 459 165 459 165 459 245 c 0,25,26
 459 312 459 312 454 379 c 1,27,-1
 586 379 l 1,28,0
 592 321 592 321 592 246 c 0,1,2
EndSplineSet
EndChar

StartChar: uni050E
Encoding: 1294 1294 409
Width: 600
GlyphClass: 2
Flags: W
AnchorPoint: "Anchor-3" 300 693 basechar 0
AnchorPoint: "Anchor-2" 300 0 basechar 0
LayerCount: 2
Fore
SplineSet
580 246 m 0,1,2
 580 116 580 116 521 49.5 c 128,-1,3
 462 -17 462 -17 362 -17 c 0,4,5
 275 -17 275 -17 221.5 35.5 c 128,-1,6
 168 88 168 88 168 190 c 2,7,-1
 168 362 l 1,8,-1
 167 362 l 1,9,-1
 167 570 l 1,10,-1
 12 570 l 1,11,-1
 12 693 l 1,12,-1
 504 693 l 1,13,-1
 487 570 l 1,14,-1
 331 570 l 1,15,-1
 331 150 l 2,16,17
 331 100 331 100 367 100 c 0,18,19
 397 100 397 100 410.5 135.5 c 128,-1,20
 424 171 424 171 424 245 c 0,21,22
 424 312 424 312 419 379 c 1,23,-1
 574 379 l 1,24,0
 580 321 580 321 580 246 c 0,1,2
EndSplineSet
EndChar

StartChar: uni0510
Encoding: 1296 1296 410
Width: 600
Flags: W
LayerCount: 2
Fore
SplineSet
461.5 689 m 128,-1,1
 522 667 522 667 575 621 c 1,2,-1
 496 538 l 1,3,4
 428 592 428 592 337 592 c 0,5,6
 282 592 282 592 251 570 c 128,-1,7
 220 548 220 548 220 509 c 0,8,9
 220 468 220 468 251 446.5 c 128,-1,10
 282 425 282 425 335 425 c 2,11,-1
 449 425 l 1,12,-1
 430 309 l 1,13,-1
 334 309 l 2,14,15
 270 309 270 309 236 283 c 128,-1,16
 202 257 202 257 202 205 c 0,17,18
 202 157 202 157 236.5 130 c 128,-1,19
 271 103 271 103 330 103 c 0,20,21
 433 103 433 103 511 166 c 1,22,-1
 593 82 l 1,23,24
 488 -17 488 -17 323 -17 c 0,25,26
 235 -17 235 -17 170.5 10 c 128,-1,27
 106 37 106 37 72 85.5 c 128,-1,28
 38 134 38 134 38 199 c 0,29,30
 38 273 38 273 85.5 316.5 c 128,-1,31
 133 360 133 360 216 369 c 1,32,33
 138 383 138 383 98.5 418.5 c 128,-1,34
 59 454 59 454 59 516 c 0,35,36
 59 573 59 573 93 617 c 128,-1,37
 127 661 127 661 187 686 c 128,-1,38
 247 711 247 711 323 711 c 0,39,0
 401 711 401 711 461.5 689 c 128,-1,1
EndSplineSet
EndChar

StartChar: uni0512
Encoding: 1298 1298 411
Width: 600
GlyphClass: 2
Flags: W
AnchorPoint: "Anchor-3" 300 693 basechar 0
AnchorPoint: "Anchor-2" 300 0 basechar 0
LayerCount: 2
Fore
SplineSet
548 693 m 1,0,-1
 548 -26 l 2,1,2
 548 -123 548 -123 495.5 -175 c 128,-1,3
 443 -227 443 -227 348 -227 c 0,4,5
 305 -227 305 -227 273 -215.5 c 128,-1,6
 241 -204 241 -204 212 -182 c 1,7,-1
 272 -90 l 1,8,9
 292 -99 292 -99 303.5 -103 c 128,-1,10
 315 -107 315 -107 332 -107 c 0,11,12
 358 -107 358 -107 371 -91.5 c 128,-1,13
 384 -76 384 -76 384 -40 c 2,14,-1
 384 568 l 1,15,-1
 275 568 l 1,16,-1
 265 457 l 2,17,18
 249 288 249 288 226.5 198.5 c 128,-1,19
 204 109 204 109 164.5 62 c 128,-1,20
 125 15 125 15 52 -20 c 1,21,-1
 -12 88 l 1,22,23
 25 116 25 116 46 149 c 128,-1,24
 67 182 67 182 82.5 255.5 c 128,-1,25
 98 329 98 329 112 473 c 2,26,-1
 132 693 l 1,27,-1
 548 693 l 1,0,-1
EndSplineSet
EndChar

StartChar: uni0514
Encoding: 1300 1300 412
Width: 600
GlyphClass: 2
Flags: W
AnchorPoint: "Anchor-3" 300 693 basechar 0
AnchorPoint: "Anchor-2" 300 0 basechar 0
LayerCount: 2
Fore
SplineSet
606 0 m 1,0,-1
 476 0 l 1,1,-1
 405 274 l 1,2,-1
 334 0 l 1,3,-1
 207 0 l 1,4,-1
 315 368 l 1,5,-1
 249 586 l 1,6,-1
 200 586 l 1,7,-1
 190 417 l 2,8,9
 181 264 181 264 166 183.5 c 128,-1,10
 151 103 151 103 122.5 60 c 128,-1,11
 94 17 94 17 40 -20 c 1,12,-1
 -17 74 l 1,13,14
 10 97 10 97 25.5 131.5 c 128,-1,15
 41 166 41 166 52 240 c 128,-1,16
 63 314 63 314 71 453 c 2,17,-1
 86 693 l 1,18,-1
 346 693 l 1,19,-1
 406 461 l 1,20,-1
 468 693 l 1,21,-1
 596 693 l 1,22,-1
 486 375 l 1,23,-1
 606 0 l 1,0,-1
EndSplineSet
EndChar

StartChar: uni0516
Encoding: 1302 1302 413
Width: 600
GlyphClass: 2
Flags: W
AnchorPoint: "Anchor-3" 300 693 basechar 0
AnchorPoint: "Anchor-2" 300 0 basechar 0
LayerCount: 2
Fore
SplineSet
452 0 m 1,0,-1
 345 301 l 1,1,2
 290 231 290 231 201 231 c 2,3,-1
 166 231 l 1,4,-1
 166 0 l 1,5,-1
 22 0 l 1,6,-1
 22 693 l 1,7,-1
 190 693 l 2,8,9
 281 693 281 693 334.5 644.5 c 128,-1,10
 388 596 388 596 396 500 c 1,11,-1
 469 693 l 1,12,-1
 600 693 l 1,13,-1
 468 369 l 1,14,-1
 608 0 l 1,15,-1
 452 0 l 1,0,-1
267 467 m 0,17,18
 267 581 267 581 192 581 c 2,19,-1
 166 581 l 1,20,-1
 166 345 l 1,21,-1
 191 345 l 2,22,16
 267 345 267 345 267 467 c 0,17,18
EndSplineSet
EndChar

StartChar: uni0518
Encoding: 1304 1304 414
Width: 600
GlyphClass: 2
Flags: W
AnchorPoint: "Anchor-3" 300 693 basechar 0
AnchorPoint: "Anchor-2" 300 0 basechar 0
LayerCount: 2
Fore
SplineSet
418 115 m 1,0,-1
 598 115 l 1,1,-1
 598 0 l 1,2,-1
 274 0 l 1,3,-1
 274 251 l 1,4,-1
 243 251 l 1,5,-1
 159 0 l 1,6,-1
 -1 0 l 1,7,-1
 117 281 l 1,8,9
 67 313 67 313 40.5 358 c 128,-1,10
 14 403 14 403 14 470 c 256,11,12
 14 537 14 537 46 587.5 c 128,-1,13
 78 638 78 638 133 665.5 c 128,-1,14
 188 693 188 693 256 693 c 2,15,-1
 598 693 l 1,16,-1
 581 581 l 1,17,-1
 418 581 l 1,18,-1
 418 407 l 1,19,-1
 558 407 l 1,20,-1
 558 296 l 1,21,-1
 418 296 l 1,22,-1
 418 115 l 1,0,-1
274 583 m 1,23,-1
 254 583 l 2,24,25
 213 583 213 583 189.5 554 c 128,-1,26
 166 525 166 525 166 469 c 0,27,28
 166 414 166 414 189 387 c 128,-1,29
 212 360 212 360 251 360 c 2,30,-1
 274 360 l 1,31,-1
 274 583 l 1,23,-1
EndSplineSet
EndChar

StartChar: uni051E
Encoding: 1310 1310 417
Width: 600
GlyphClass: 2
Flags: W
AnchorPoint: "Anchor-3" 324 693 basechar 0
AnchorPoint: "Anchor-2" 300 0 basechar 0
LayerCount: 2
Fore
SplineSet
413 379 m 1,0,-1
 608 0 l 1,1,-1
 429 0 l 1,2,-1
 279 302 l 1,3,-1
 216 302 l 1,4,-1
 216 0 l 1,5,-1
 52 0 l 1,6,-1
 52 693 l 1,7,-1
 216 693 l 1,8,-1
 216 420 l 1,9,-1
 277 420 l 1,10,-1
 336 525 l 1,11,-1
 243 568 l 1,12,-1
 282 652 l 1,13,-1
 381 606 l 1,14,-1
 430 693 l 1,15,-1
 589 693 l 1,16,-1
 508 548 l 1,17,-1
 604 504 l 1,18,-1
 565 420 l 1,19,-1
 462 467 l 1,20,-1
 413 379 l 1,0,-1
EndSplineSet
EndChar

StartChar: uni0520
Encoding: 1312 1312 418
Width: 600
GlyphClass: 2
Flags: W
AnchorPoint: "Anchor-3" 300 693 basechar 0
AnchorPoint: "Anchor-2" 300 -221 basechar 0
LayerCount: 2
Fore
SplineSet
552.5 421 m 128,-1,1
 581 381 581 381 581 312 c 2,2,-1
 581 -45 l 2,3,4
 581 -100 581 -100 560 -141 c 128,-1,5
 539 -182 539 -182 502 -204.5 c 128,-1,6
 465 -227 465 -227 419 -227 c 0,7,8
 377 -227 377 -227 347.5 -215.5 c 128,-1,9
 318 -204 318 -204 288 -182 c 1,10,-1
 340 -105 l 1,11,12
 372 -126 372 -126 404 -126 c 0,13,14
 430 -126 430 -126 443 -110.5 c 128,-1,15
 456 -95 456 -95 456 -59 c 2,16,-1
 456 301 l 2,17,18
 456 325 456 325 446.5 338.5 c 128,-1,19
 437 352 437 352 418 352 c 0,20,21
 398 352 398 352 378 336 c 1,22,-1
 378 0 l 1,23,-1
 253 0 l 1,24,-1
 253 586 l 1,25,-1
 199 586 l 1,26,-1
 190 417 l 2,27,28
 182 264 182 264 166.5 183.5 c 128,-1,29
 151 103 151 103 123 60 c 128,-1,30
 95 17 95 17 40 -20 c 1,31,-1
 -18 74 l 1,32,33
 9 97 9 97 25 131.5 c 128,-1,34
 41 166 41 166 52 239.5 c 128,-1,35
 63 313 63 313 71 453 c 2,36,-1
 85 693 l 1,37,-1
 378 693 l 1,38,-1
 378 428 l 1,39,40
 416 461 416 461 467 461 c 0,41,0
 524 461 524 461 552.5 421 c 128,-1,1
EndSplineSet
EndChar

StartChar: uni0522
Encoding: 1314 1314 419
Width: 600
GlyphClass: 2
Flags: W
AnchorPoint: "Anchor-3" 300 693 basechar 0
AnchorPoint: "Anchor-2" 300 -221 basechar 0
LayerCount: 2
Fore
SplineSet
548.5 420 m 128,-1,1
 581 379 581 379 581 312 c 2,2,-1
 581 -45 l 2,3,4
 581 -128 581 -128 534.5 -177.5 c 128,-1,5
 488 -227 488 -227 412 -227 c 0,6,7
 369 -227 369 -227 337 -215.5 c 128,-1,8
 305 -204 305 -204 277 -182 c 1,9,-1
 332 -101 l 1,10,11
 362 -122 362 -122 396 -122 c 0,12,13
 449 -122 449 -122 449 -55 c 2,14,-1
 449 301 l 2,15,16
 449 325 449 325 439 338.5 c 128,-1,17
 429 352 429 352 411 352 c 0,18,19
 389 352 389 352 371 336 c 1,20,-1
 371 0 l 1,21,-1
 239 0 l 1,22,-1
 239 290 l 1,23,-1
 157 290 l 1,24,-1
 157 0 l 1,25,-1
 24 0 l 1,26,-1
 24 693 l 1,27,-1
 157 693 l 1,28,-1
 157 407 l 1,29,-1
 239 407 l 1,30,-1
 239 693 l 1,31,-1
 371 693 l 1,32,-1
 371 429 l 1,33,34
 410 461 410 461 459 461 c 0,35,0
 516 461 516 461 548.5 420 c 128,-1,1
EndSplineSet
EndChar

StartChar: uni048C
Encoding: 1164 1164 420
Width: 600
GlyphClass: 2
Flags: W
AnchorPoint: "Anchor-3" 300 693 basechar 0
AnchorPoint: "Anchor-2" 300 0 basechar 0
LayerCount: 2
Fore
SplineSet
505 389.5 m 128,-1,1
 578 335 578 335 578 230 c 0,2,3
 578 118 578 118 506.5 59 c 128,-1,4
 435 0 435 0 319 0 c 2,5,-1
 86 0 l 1,6,-1
 86 521 l 1,7,-1
 30 521 l 1,8,-1
 30 613 l 1,9,-1
 86 613 l 1,10,-1
 86 693 l 1,11,-1
 250 693 l 1,12,-1
 250 613 l 1,13,-1
 369 613 l 1,14,-1
 369 521 l 1,15,-1
 250 521 l 1,16,-1
 250 444 l 1,17,-1
 308 444 l 2,18,0
 432 444 432 444 505 389.5 c 128,-1,1
381.5 147.5 m 128,-1,20
 409 175 409 175 409 229 c 0,21,22
 409 277 409 277 380.5 302 c 128,-1,23
 352 327 352 327 302 327 c 2,24,-1
 250 327 l 1,25,-1
 250 120 l 1,26,-1
 308 120 l 2,27,19
 354 120 354 120 381.5 147.5 c 128,-1,20
EndSplineSet
EndChar

StartChar: uni048E
Encoding: 1166 1166 421
Width: 600
GlyphClass: 2
Flags: W
AnchorPoint: "Anchor-3" 300 693 basechar 0
AnchorPoint: "Anchor-2" 300 0 basechar 0
LayerCount: 2
Fore
SplineSet
546 349.5 m 128,-1,1
 516 299 516 299 463 269 c 1,2,-1
 525 168 l 1,3,-1
 446 168 l 1,4,-1
 400 244 l 1,5,6
 357 231 357 231 302 231 c 2,7,-1
 226 231 l 1,8,-1
 226 0 l 1,9,-1
 62 0 l 1,10,-1
 62 693 l 1,11,-1
 280 693 l 2,12,13
 424 693 424 693 500 636.5 c 128,-1,14
 576 580 576 580 576 467 c 0,15,0
 576 400 576 400 546 349.5 c 128,-1,1
334 351 m 1,17,-1
 256 479 l 1,18,-1
 335 479 l 1,19,-1
 394 382 l 1,20,21
 417 411 417 411 417 467 c 0,22,23
 417 522 417 522 386 549 c 128,-1,24
 355 576 355 576 292 576 c 2,25,-1
 226 576 l 1,26,-1
 226 349 l 1,27,-1
 301 349 l 2,28,16
 314 349 314 349 334 351 c 1,17,-1
EndSplineSet
EndChar

StartChar: uni0431
Encoding: 1073 1073 423
Width: 600
GlyphClass: 2
Flags: W
AnchorPoint: "Anchor-3" 300 742 basechar 0
AnchorPoint: "Anchor-2" 300 0 basechar 0
LayerCount: 2
Fore
SplineSet
455.5 470.5 m 128,-1,1
 502 440 502 440 528.5 382 c 128,-1,2
 555 324 555 324 555 245 c 0,3,4
 555 161 555 161 522.5 102 c 128,-1,5
 490 43 490 43 432.5 13 c 128,-1,6
 375 -17 375 -17 300 -17 c 0,7,8
 44 -17 44 -17 44 300 c 0,9,10
 44 415 44 415 62.5 488.5 c 128,-1,11
 81 562 81 562 127 608.5 c 128,-1,12
 173 655 173 655 257 680 c 0,13,14
 318 698 318 698 356 714 c 128,-1,15
 394 730 394 730 446 759 c 1,16,-1
 503 659 l 1,17,18
 464 632 464 632 427 617 c 128,-1,19
 390 602 390 602 323 581 c 0,20,21
 280 567 280 567 254.5 549.5 c 128,-1,22
 229 532 229 532 216 503.5 c 128,-1,23
 203 475 203 475 198 427 c 1,24,25
 256 501 256 501 351 501 c 0,26,0
 409 501 409 501 455.5 470.5 c 128,-1,1
372.5 128.5 m 128,-1,28
 399 161 399 161 399 243 c 0,29,30
 399 322 399 322 376 355.5 c 128,-1,31
 353 389 353 389 304 389 c 0,32,33
 246 389 246 389 202 325 c 1,34,-1
 202 262 l 2,35,36
 202 179 202 179 226 137.5 c 128,-1,37
 250 96 250 96 300 96 c 0,38,27
 346 96 346 96 372.5 128.5 c 128,-1,28
EndSplineSet
EndChar

StartChar: uni0432
Encoding: 1074 1074 424
Width: 600
Flags: W
LayerCount: 2
Fore
SplineSet
523 249 m 128,-1,1
 558 215 558 215 558 160 c 0,2,3
 558 78 558 78 490.5 39 c 128,-1,4
 423 0 423 0 314 0 c 2,5,-1
 79 0 l 1,6,-1
 79 526 l 1,7,8
 202 549 202 549 298 549 c 0,9,10
 404 549 404 549 469 512 c 128,-1,11
 534 475 534 475 534 407 c 0,12,13
 534 363 534 363 505 334 c 128,-1,14
 476 305 476 305 423 292 c 1,15,0
 488 283 488 283 523 249 c 128,-1,1
237 444 m 1,17,-1
 237 324 l 1,18,-1
 304 324 l 2,19,20
 382 324 382 324 382 385 c 0,21,22
 382 448 382 448 296 448 c 0,23,16
 258 448 258 448 237 444 c 1,17,-1
399 173 m 0,25,26
 399 205 399 205 377 223 c 128,-1,27
 355 241 355 241 313 241 c 2,28,-1
 237 241 l 1,29,-1
 237 104 l 1,30,-1
 310 104 l 2,31,24
 399 104 399 104 399 173 c 0,25,26
EndSplineSet
EndChar

StartChar: uni0433
Encoding: 1075 1075 425
Width: 600
GlyphClass: 2
Flags: W
AnchorPoint: "Anchor-3" 338 531 basechar 0
AnchorPoint: "Anchor-2" 201 0 basechar 0
LayerCount: 2
Fore
SplineSet
280 0 m 1,0,-1
 122 0 l 1,1,-1
 122 531 l 1,2,-1
 539 531 l 1,3,-1
 521 409 l 1,4,-1
 280 409 l 1,5,-1
 280 0 l 1,0,-1
EndSplineSet
EndChar

StartChar: uni0491
Encoding: 1169 1169 427
Width: 600
GlyphClass: 2
Flags: W
AnchorPoint: "Anchor-3" 338 531 basechar 0
AnchorPoint: "Anchor-2" 201 0 basechar 0
LayerCount: 2
Fore
SplineSet
395 683 m 1,0,-1
 539 683 l 1,1,-1
 539 531 l 1,2,-1
 521 409 l 1,3,-1
 280 409 l 1,4,-1
 280 0 l 1,5,-1
 122 0 l 1,6,-1
 122 531 l 1,7,-1
 395 531 l 1,8,-1
 395 683 l 1,0,-1
EndSplineSet
EndChar

StartChar: uni0434
Encoding: 1076 1076 428
Width: 600
GlyphClass: 2
Flags: W
AnchorPoint: "Anchor-3" 300 531 basechar 0
AnchorPoint: "Anchor-2" 300 -221 basechar 0
LayerCount: 2
Fore
SplineSet
573 117 m 1,0,-1
 573 -174 l 1,1,-1
 454 -174 l 1,2,-1
 435 0 l 1,3,-1
 151 0 l 1,4,-1
 132 -174 l 1,5,-1
 13 -174 l 1,6,-1
 13 117 l 1,7,-1
 55 117 l 1,8,9
 83 145 83 145 97.5 194 c 128,-1,10
 112 243 112 243 121 361 c 2,11,-1
 135 531 l 1,12,-1
 522 531 l 1,13,-1
 522 117 l 1,14,-1
 573 117 l 1,0,-1
375 421 m 1,15,-1
 274 421 l 1,16,-1
 270 367 l 2,17,18
 263 283 263 283 253 236.5 c 128,-1,19
 243 190 243 190 227.5 164 c 128,-1,20
 212 138 212 138 185 117 c 1,21,-1
 375 117 l 1,22,-1
 375 421 l 1,15,-1
EndSplineSet
EndChar

StartChar: uni0435
Encoding: 1077 1077 429
Width: 600
GlyphClass: 2
Flags: W
AnchorPoint: "Anchor-3" 307 531 basechar 0
AnchorPoint: "Anchor-2" 300 0 basechar 0
LayerCount: 2
Fore
SplineSet
335 98 m 0,1,2
 403 98 403 98 471 142 c 1,3,-1
 534 56 l 1,4,5
 495 22 495 22 441 2.5 c 128,-1,6
 387 -17 387 -17 322 -17 c 0,7,8
 233 -17 233 -17 171 18.5 c 128,-1,9
 109 54 109 54 77.5 117.5 c 128,-1,10
 46 181 46 181 46 265 c 0,11,12
 46 345 46 345 76.5 409.5 c 128,-1,13
 107 474 107 474 165.5 511.5 c 128,-1,14
 224 549 224 549 305 549 c 0,15,16
 381 549 381 549 437 516.5 c 128,-1,17
 493 484 493 484 523.5 422.5 c 128,-1,18
 554 361 554 361 554 276 c 0,19,20
 554 243 554 243 551 219 c 1,21,-1
 207 219 l 1,22,0
 222 98 222 98 335 98 c 0,1,2
236 411.5 m 128,-1,24
 210 380 210 380 205 315 c 1,25,-1
 400 315 l 1,26,27
 398 443 398 443 305 443 c 0,28,23
 262 443 262 443 236 411.5 c 128,-1,24
EndSplineSet
EndChar

StartChar: uni0436
Encoding: 1078 1078 432
Width: 600
GlyphClass: 2
Flags: W
AnchorPoint: "Anchor-3" 300 531 basechar 0
AnchorPoint: "Anchor-2" 300 0 basechar 0
LayerCount: 2
Fore
SplineSet
246 0 m 1,0,-1
 246 232 l 1,1,-1
 221 232 l 1,2,-1
 136 0 l 1,3,-1
 -5 0 l 1,4,-1
 117 285 l 1,5,-1
 -2 531 l 1,6,-1
 135 531 l 1,7,-1
 219 320 l 1,8,-1
 246 320 l 1,9,-1
 246 531 l 1,10,-1
 354 531 l 1,11,-1
 354 320 l 1,12,-1
 381 320 l 1,13,-1
 469 531 l 1,14,-1
 602 531 l 1,15,-1
 484 285 l 1,16,-1
 606 0 l 1,17,-1
 468 0 l 1,18,-1
 379 232 l 1,19,-1
 354 232 l 1,20,-1
 354 0 l 1,21,-1
 246 0 l 1,0,-1
EndSplineSet
EndChar

StartChar: uni0437
Encoding: 1079 1079 433
Width: 600
GlyphClass: 2
Flags: W
AnchorPoint: "Anchor-3" 286 527 basechar 0
AnchorPoint: "Anchor-2" 295 0 basechar 0
LayerCount: 2
Fore
SplineSet
265 324 m 2,0,1
 306 324 306 324 328 339.5 c 128,-1,2
 350 355 350 355 350 383 c 256,3,4
 350 411 350 411 327 425 c 128,-1,5
 304 439 304 439 261 439 c 0,6,7
 220 439 220 439 181.5 429 c 128,-1,8
 143 419 143 419 111 400 c 1,9,-1
 43 484 l 1,10,11
 89 516 89 516 147.5 532.5 c 128,-1,12
 206 549 206 549 271 549 c 0,13,14
 377 549 377 549 443 510 c 128,-1,15
 509 471 509 471 509 401 c 0,16,17
 509 314 509 314 382 281 c 1,18,19
 458 272 458 272 497 242 c 128,-1,20
 536 212 536 212 536 154 c 0,21,22
 536 72 536 72 462 27.5 c 128,-1,23
 388 -17 388 -17 268 -17 c 0,24,25
 119 -17 119 -17 26 53 c 1,26,-1
 94 144 l 1,27,28
 136 119 136 119 177 107.5 c 128,-1,29
 218 96 218 96 266 96 c 0,30,31
 319 96 319 96 345.5 113.5 c 128,-1,32
 372 131 372 131 372 162 c 0,33,34
 372 191 372 191 347.5 207 c 128,-1,35
 323 223 323 223 275 223 c 2,36,-1
 160 223 l 1,37,-1
 169 324 l 1,38,-1
 265 324 l 2,0,1
EndSplineSet
EndChar

StartChar: uni0438
Encoding: 1080 1080 434
Width: 600
GlyphClass: 2
Flags: W
AnchorPoint: "Anchor-3" 300 531 basechar 0
AnchorPoint: "Anchor-2" 300 0 basechar 0
LayerCount: 2
Fore
SplineSet
530 0 m 1,0,-1
 381 0 l 1,1,-1
 381 169 l 2,2,3
 381 294 381 294 407 393 c 1,4,-1
 233 0 l 1,5,-1
 70 0 l 1,6,-1
 70 531 l 1,7,-1
 219 531 l 1,8,-1
 219 360 l 2,9,10
 219 239 219 239 192 137 c 1,11,-1
 366 531 l 1,12,-1
 530 531 l 1,13,-1
 530 0 l 1,0,-1
EndSplineSet
EndChar

StartChar: uni048B
Encoding: 1163 1163 437
Width: 600
Flags: W
LayerCount: 2
Fore
SplineSet
164 657 m 128,-1,1
 120 702 120 702 113 767 c 1,2,-1
 200 782 l 1,3,4
 207 753 207 753 229 737 c 128,-1,5
 251 721 251 721 285 721 c 256,6,7
 319 721 319 721 341 737 c 128,-1,8
 363 753 363 753 370 782 c 1,9,-1
 457 767 l 1,10,11
 450 702 450 702 406 657 c 128,-1,12
 362 612 362 612 285 612 c 256,13,0
 208 612 208 612 164 657 c 128,-1,1
607 140 m 1,14,-1
 508 -174 l 1,15,-1
 379 -174 l 1,16,-1
 419 0 l 1,17,-1
 356 0 l 1,18,-1
 356 169 l 2,19,20
 356 288 356 288 378 384 c 1,21,-1
 226 0 l 1,22,-1
 65 0 l 1,23,-1
 65 531 l 1,24,-1
 214 531 l 1,25,-1
 214 360 l 2,26,27
 214 239 214 239 187 137 c 1,28,-1
 344 531 l 1,29,-1
 505 531 l 1,30,-1
 505 140 l 1,31,-1
 607 140 l 1,14,-1
EndSplineSet
EndChar

StartChar: uni043A
Encoding: 1082 1082 438
Width: 600
GlyphClass: 2
Flags: W
AnchorPoint: "Anchor-3" 320 531 basechar 0
AnchorPoint: "Anchor-2" 300 0 basechar 0
LayerCount: 2
Fore
SplineSet
73 0 m 1,0,-1
 73 531 l 1,1,-1
 231 531 l 1,2,-1
 231 329 l 1,3,-1
 304 329 l 1,4,-1
 419 531 l 1,5,-1
 572 531 l 1,6,-1
 425 285 l 1,7,-1
 587 0 l 1,8,-1
 419 0 l 1,9,-1
 300 224 l 1,10,-1
 231 224 l 1,11,-1
 231 0 l 1,12,-1
 73 0 l 1,0,-1
EndSplineSet
EndChar

StartChar: uni043B
Encoding: 1083 1083 440
Width: 600
GlyphClass: 2
Flags: W
AnchorPoint: "Anchor-3" 300 531 basechar 0
AnchorPoint: "Anchor-2" 300 0 basechar 0
LayerCount: 2
Fore
SplineSet
528 0 m 1,0,-1
 370 0 l 1,1,-1
 370 415 l 1,2,-1
 256 415 l 1,3,-1
 253 350 l 2,4,5
 247 227 247 227 230 158.5 c 128,-1,6
 213 90 213 90 179 51 c 128,-1,7
 145 12 145 12 80 -20 c 1,8,-1
 14 80 l 1,9,10
 42 100 42 100 58 124.5 c 128,-1,11
 74 149 74 149 85 199 c 128,-1,12
 96 249 96 249 103 344 c 2,13,-1
 117 531 l 1,14,-1
 528 531 l 1,15,-1
 528 0 l 1,0,-1
EndSplineSet
EndChar

StartChar: uni043C
Encoding: 1084 1084 441
Width: 600
GlyphClass: 2
Flags: W
AnchorPoint: "Anchor-3" 300 531 basechar 0
AnchorPoint: "Anchor-2" 300 0 basechar 0
LayerCount: 2
Fore
SplineSet
579 0 m 1,0,-1
 439 0 l 1,1,-1
 432 181 l 2,2,3
 430 239 430 239 430 270 c 0,4,5
 430 335 430 335 434 388 c 1,6,-1
 430 388 l 1,7,-1
 358 84 l 1,8,-1
 243 84 l 1,9,-1
 165 388 l 1,10,-1
 161 388 l 1,11,12
 167 333 167 333 167 278 c 0,13,14
 167 257 167 257 165 213 c 2,15,-1
 164 175 l 1,16,-1
 158 0 l 1,17,-1
 21 0 l 1,18,-1
 56 531 l 1,19,-1
 226 531 l 1,20,-1
 302 204 l 1,21,-1
 368 531 l 1,22,-1
 543 531 l 1,23,-1
 579 0 l 1,0,-1
EndSplineSet
EndChar

StartChar: uni043D
Encoding: 1085 1085 442
Width: 600
Flags: W
LayerCount: 2
Fore
SplineSet
372 0 m 1,0,-1
 372 212 l 1,1,-1
 228 212 l 1,2,-1
 228 0 l 1,3,-1
 70 0 l 1,4,-1
 70 531 l 1,5,-1
 228 531 l 1,6,-1
 228 328 l 1,7,-1
 372 328 l 1,8,-1
 372 531 l 1,9,-1
 530 531 l 1,10,-1
 530 0 l 1,11,-1
 372 0 l 1,0,-1
EndSplineSet
EndChar

StartChar: uni043E
Encoding: 1086 1086 443
Width: 600
GlyphClass: 2
Flags: W
AnchorPoint: "Anchor-3" 300 531 basechar 0
AnchorPoint: "Anchor-2" 300 0 basechar 0
LayerCount: 2
Fore
SplineSet
489.5 472.5 m 128,-1,1
 558 396 558 396 558 267 c 0,2,3
 558 133 558 133 490 58 c 128,-1,4
 422 -17 422 -17 300 -17 c 256,5,6
 178 -17 178 -17 110 57.5 c 128,-1,7
 42 132 42 132 42 266 c 0,8,9
 42 351 42 351 72.5 414.5 c 128,-1,10
 103 478 103 478 161.5 513.5 c 128,-1,11
 220 549 220 549 300 549 c 0,12,0
 421 549 421 549 489.5 472.5 c 128,-1,1
228 392.5 m 128,-1,14
 205 353 205 353 205 266 c 0,15,16
 205 178 205 178 228 138.5 c 128,-1,17
 251 99 251 99 300 99 c 256,18,19
 349 99 349 99 372 139 c 128,-1,20
 395 179 395 179 395 267 c 0,21,22
 395 353 395 353 372 392.5 c 128,-1,23
 349 432 349 432 300 432 c 256,24,13
 251 432 251 432 228 392.5 c 128,-1,14
EndSplineSet
EndChar

StartChar: uni043F
Encoding: 1087 1087 444
Width: 600
GlyphClass: 2
Flags: W
AnchorPoint: "Anchor-3" 300 531 basechar 0
AnchorPoint: "Anchor-2" 300 0 basechar 0
LayerCount: 2
Fore
SplineSet
373 0 m 1,0,-1
 373 414 l 1,1,-1
 227 414 l 1,2,-1
 227 0 l 1,3,-1
 70 0 l 1,4,-1
 70 531 l 1,5,-1
 530 531 l 1,6,-1
 530 0 l 1,7,-1
 373 0 l 1,0,-1
EndSplineSet
EndChar

StartChar: uni0442
Encoding: 1090 1090 447
Width: 600
GlyphClass: 2
Flags: W
AnchorPoint: "Anchor-3" 300 531 basechar 0
AnchorPoint: "Anchor-2" 300 0 basechar 0
LayerCount: 2
Fore
SplineSet
563 531 m 1,0,-1
 545 414 l 1,1,-1
 379 414 l 1,2,-1
 379 0 l 1,3,-1
 221 0 l 1,4,-1
 221 414 l 1,5,-1
 43 414 l 1,6,-1
 43 531 l 1,7,-1
 563 531 l 1,0,-1
EndSplineSet
EndChar

StartChar: uni0443
Encoding: 1091 1091 448
Width: 600
GlyphClass: 2
Flags: W
AnchorPoint: "Anchor-3" 300 531 basechar 0
AnchorPoint: "Anchor-2" 0 0 basechar 0
LayerCount: 2
Fore
SplineSet
395 0 m 2,0,1
 359 -107 359 -107 288 -161.5 c 128,-1,2
 217 -216 217 -216 98 -223 c 1,3,-1
 80 -111 l 1,4,5
 156 -101 156 -101 192.5 -77 c 128,-1,6
 229 -53 229 -53 251 0 c 1,7,-1
 196 0 l 1,8,-1
 28 531 l 1,9,-1
 195 531 l 1,10,-1
 298 101 l 1,11,-1
 410 531 l 1,12,-1
 572 531 l 1,13,-1
 395 0 l 2,0,1
EndSplineSet
EndChar

StartChar: uni0444
Encoding: 1092 1092 450
Width: 600
GlyphClass: 2
Flags: W
AnchorPoint: "Anchor-3" 300 742 basechar 0
AnchorPoint: "Anchor-2" 300 -221 basechar 0
LayerCount: 2
Fore
SplineSet
357 746 m 1,0,-1
 357 500 l 1,1,2
 377 526 377 526 400.5 537.5 c 128,-1,3
 424 549 424 549 454 549 c 0,4,5
 508 549 508 549 536.5 516 c 128,-1,6
 565 483 565 483 575.5 422 c 128,-1,7
 586 361 586 361 586 265 c 0,8,9
 586 -17 586 -17 443 -17 c 0,10,11
 391 -17 391 -17 357 29 c 1,12,-1
 357 -209 l 1,13,-1
 244 -222 l 1,14,-1
 244 28 l 1,15,16
 208 -17 208 -17 156 -17 c 0,17,18
 14 -17 14 -17 14 265 c 0,19,20
 14 406 14 406 45.5 477.5 c 128,-1,21
 77 549 77 549 154 549 c 0,22,23
 182 549 182 549 203.5 537.5 c 128,-1,24
 225 526 225 526 244 501 c 1,25,-1
 244 759 l 1,26,-1
 357 746 l 1,0,-1
172 424 m 128,-1,28
 162 407 162 407 158 370 c 128,-1,29
 154 333 154 333 154 265 c 0,30,31
 154 199 154 199 158 161.5 c 128,-1,32
 162 124 162 124 172 107 c 128,-1,33
 182 90 182 90 201 90 c 0,34,35
 213 90 213 90 221.5 97 c 128,-1,36
 230 104 230 104 244 121 c 1,37,-1
 244 411 l 1,38,39
 233 428 233 428 224 434.5 c 128,-1,40
 215 441 215 441 201 441 c 0,41,27
 182 441 182 441 172 424 c 128,-1,28
380 434 m 128,-1,43
 369 427 369 427 357 411 c 1,44,-1
 357 121 l 1,45,46
 369 104 369 104 378.5 97 c 128,-1,47
 388 90 388 90 401 90 c 0,48,49
 426 90 426 90 436 128 c 128,-1,50
 446 166 446 166 446 265 c 0,51,52
 446 333 446 333 443 370.5 c 128,-1,53
 440 408 440 408 431.5 424.5 c 128,-1,54
 423 441 423 441 406 441 c 0,55,42
 391 441 391 441 380 434 c 128,-1,43
EndSplineSet
EndChar

StartChar: uni0447
Encoding: 1095 1095 452
Width: 600
GlyphClass: 2
Flags: W
AnchorPoint: "Anchor-3" 287 531 basechar 0
AnchorPoint: "Anchor-2" 300 0 basechar 0
LayerCount: 2
Fore
SplineSet
526 0 m 1,0,-1
 368 0 l 1,1,-1
 368 198 l 1,2,3
 306 148 306 148 216 148 c 0,4,5
 135 148 135 148 91.5 192 c 128,-1,6
 48 236 48 236 48 313 c 2,7,-1
 48 531 l 1,8,-1
 206 531 l 1,9,-1
 206 333 l 2,10,11
 206 297 206 297 223.5 281 c 128,-1,12
 241 265 241 265 274 265 c 0,13,14
 299 265 299 265 324.5 274.5 c 128,-1,15
 350 284 350 284 368 300 c 1,16,-1
 368 531 l 1,17,-1
 526 531 l 1,18,-1
 526 0 l 1,0,-1
EndSplineSet
EndChar

StartChar: uni0446
Encoding: 1094 1094 453
Width: 600
GlyphClass: 2
Flags: W
AnchorPoint: "Anchor-3" 0 0 basechar 0
AnchorPoint: "Anchor-2" 285 0 basechar 0
LayerCount: 2
Fore
SplineSet
515 117 m 1,0,-1
 585 117 l 1,1,-1
 585 -174 l 1,2,-1
 466 -174 l 1,3,-1
 447 0 l 1,4,-1
 55 0 l 1,5,-1
 55 531 l 1,6,-1
 212 531 l 1,7,-1
 212 117 l 1,8,-1
 358 117 l 1,9,-1
 358 531 l 1,10,-1
 515 531 l 1,11,-1
 515 117 l 1,0,-1
EndSplineSet
EndChar

StartChar: uni0448
Encoding: 1096 1096 454
Width: 600
GlyphClass: 2
Flags: W
AnchorPoint: "Anchor-3" 300 531 basechar 0
AnchorPoint: "Anchor-2" 300 0 basechar 0
LayerCount: 2
Fore
SplineSet
575 531 m 1,0,-1
 575 0 l 1,1,-1
 25 0 l 1,2,-1
 25 531 l 1,3,-1
 159 531 l 1,4,-1
 159 117 l 1,5,-1
 242 117 l 1,6,-1
 242 531 l 1,7,-1
 358 531 l 1,8,-1
 358 117 l 1,9,-1
 440 117 l 1,10,-1
 440 531 l 1,11,-1
 575 531 l 1,0,-1
EndSplineSet
EndChar

StartChar: uni0449
Encoding: 1097 1097 455
Width: 600
GlyphClass: 2
Flags: W
AnchorPoint: "Anchor-3" 300 531 basechar 0
AnchorPoint: "Anchor-2" 300 0 basechar 0
LayerCount: 2
Fore
SplineSet
575 117 m 1,0,-1
 626 117 l 1,1,-1
 626 -174 l 1,2,-1
 507 -174 l 1,3,-1
 488 0 l 1,4,-1
 25 0 l 1,5,-1
 25 531 l 1,6,-1
 159 531 l 1,7,-1
 159 117 l 1,8,-1
 242 117 l 1,9,-1
 242 531 l 1,10,-1
 358 531 l 1,11,-1
 358 117 l 1,12,-1
 440 117 l 1,13,-1
 440 531 l 1,14,-1
 575 531 l 1,15,-1
 575 117 l 1,0,-1
EndSplineSet
EndChar

StartChar: uni045F
Encoding: 1119 1119 456
Width: 600
GlyphClass: 2
Flags: W
AnchorPoint: "Anchor-3" 0 0 basechar 0
AnchorPoint: "Anchor-2" 300 0 basechar 0
LayerCount: 2
Fore
SplineSet
530 531 m 1,0,-1
 530 0 l 1,1,-1
 367 0 l 1,2,-1
 367 -174 l 1,3,-1
 248 -174 l 1,4,-1
 229 0 l 1,5,-1
 70 0 l 1,6,-1
 70 531 l 1,7,-1
 227 531 l 1,8,-1
 227 117 l 1,9,-1
 373 117 l 1,10,-1
 373 531 l 1,11,-1
 530 531 l 1,0,-1
EndSplineSet
EndChar

StartChar: uni044C
Encoding: 1100 1100 457
Width: 600
GlyphClass: 2
Flags: W
AnchorPoint: "Anchor-3" 300 531 basechar 0
AnchorPoint: "Anchor-2" 300 0 basechar 0
LayerCount: 2
Fore
SplineSet
246 373 m 1,0,-1
 301 373 l 2,1,2
 429 373 429 373 492.5 327 c 128,-1,3
 556 281 556 281 556 188 c 0,4,5
 556 85 556 85 489.5 42.5 c 128,-1,6
 423 0 423 0 305 0 c 2,7,-1
 88 0 l 1,8,-1
 88 531 l 1,9,-1
 246 531 l 1,10,-1
 246 373 l 1,0,-1
246 269 m 1,11,-1
 246 109 l 1,12,-1
 308 109 l 2,13,14
 351 109 351 109 372 127.5 c 128,-1,15
 393 146 393 146 393 191 c 0,16,17
 393 232 393 232 371.5 250.5 c 128,-1,18
 350 269 350 269 303 269 c 2,19,-1
 246 269 l 1,11,-1
EndSplineSet
EndChar

StartChar: uni044A
Encoding: 1098 1098 458
Width: 600
Flags: W
LayerCount: 2
Fore
SplineSet
276 371 m 1,0,-1
 317 371 l 2,1,2
 571 371 571 371 571 187 c 0,3,4
 571 93 571 93 509.5 46.5 c 128,-1,5
 448 0 448 0 334 0 c 2,6,-1
 118 0 l 1,7,-1
 118 418 l 1,8,-1
 14 418 l 1,9,-1
 14 531 l 1,10,-1
 276 531 l 1,11,-1
 276 371 l 1,0,-1
276 267 m 1,12,-1
 276 109 l 1,13,-1
 323 109 l 2,14,15
 366 109 366 109 387 127.5 c 128,-1,16
 408 146 408 146 408 190 c 0,17,18
 408 230 408 230 386.5 248.5 c 128,-1,19
 365 267 365 267 318 267 c 2,20,-1
 276 267 l 1,12,-1
EndSplineSet
EndChar

StartChar: uni044B
Encoding: 1099 1099 459
Width: 600
GlyphClass: 2
Flags: W
AnchorPoint: "Anchor-3" 300 531 basechar 0
AnchorPoint: "Anchor-2" 300 0 basechar 0
LayerCount: 2
Fore
SplineSet
161 369 m 1,0,-1
 170 369 l 2,1,2
 289 369 289 369 347 324.5 c 128,-1,3
 405 280 405 280 405 187 c 0,4,5
 405 95 405 95 348 47.5 c 128,-1,6
 291 0 291 0 187 0 c 2,7,-1
 26 0 l 1,8,-1
 26 531 l 1,9,-1
 161 531 l 1,10,-1
 161 369 l 1,0,-1
574 531 m 1,11,-1
 574 0 l 1,12,-1
 439 0 l 1,13,-1
 439 531 l 1,14,-1
 574 531 l 1,11,-1
161 275 m 1,15,-1
 161 98 l 1,16,-1
 184 98 l 2,17,18
 223 98 223 98 243 119.5 c 128,-1,19
 263 141 263 141 263 189 c 0,20,21
 263 234 263 234 243 254.5 c 128,-1,22
 223 275 223 275 179 275 c 2,23,-1
 161 275 l 1,15,-1
EndSplineSet
EndChar

StartChar: uni0459
Encoding: 1113 1113 460
Width: 600
GlyphClass: 2
Flags: W
AnchorPoint: "Anchor-3" 300 531 basechar 0
AnchorPoint: "Anchor-2" 300 0 basechar 0
LayerCount: 2
Fore
SplineSet
382 366 m 1,0,-1
 391 366 l 2,1,2
 500 366 500 366 551 321.5 c 128,-1,3
 602 277 602 277 602 184 c 0,4,5
 602 94 602 94 548.5 47 c 128,-1,6
 495 0 495 0 402 0 c 2,7,-1
 254 0 l 1,8,-1
 254 426 l 1,9,-1
 195 426 l 1,10,-1
 190 320 l 2,11,12
 185 204 185 204 171 141.5 c 128,-1,13
 157 79 157 79 128 44 c 128,-1,14
 99 9 99 9 42 -20 c 1,15,-1
 -9 78 l 1,16,17
 14 95 14 95 27.5 117 c 128,-1,18
 41 139 41 139 49.5 188.5 c 128,-1,19
 58 238 58 238 62 332 c 2,20,-1
 70 531 l 1,21,-1
 382 531 l 1,22,-1
 382 366 l 1,0,-1
382 273 m 1,23,-1
 382 96 l 1,24,-1
 392 96 l 2,25,26
 431 96 431 96 448 116 c 128,-1,27
 465 136 465 136 465 186 c 0,28,29
 465 233 465 233 448.5 253 c 128,-1,30
 432 273 432 273 391 273 c 2,31,-1
 382 273 l 1,23,-1
EndSplineSet
EndChar

StartChar: uni045A
Encoding: 1114 1114 461
Width: 600
GlyphClass: 2
Flags: W
AnchorPoint: "Anchor-3" 300 531 basechar 0
AnchorPoint: "Anchor-2" 300 0 basechar 0
LayerCount: 2
Fore
SplineSet
385 344 m 1,0,-1
 395 344 l 2,1,2
 605 344 605 344 605 173 c 0,3,4
 605 87 605 87 549.5 43.5 c 128,-1,5
 494 0 494 0 390 0 c 2,6,-1
 256 0 l 1,7,-1
 256 246 l 1,8,-1
 162 246 l 1,9,-1
 162 0 l 1,10,-1
 33 0 l 1,11,-1
 33 531 l 1,12,-1
 162 531 l 1,13,-1
 162 344 l 1,14,-1
 256 344 l 1,15,-1
 256 531 l 1,16,-1
 385 531 l 1,17,-1
 385 344 l 1,0,-1
385 249 m 1,18,-1
 385 100 l 1,19,-1
 388 100 l 2,20,21
 431 100 431 100 451 117 c 128,-1,22
 471 134 471 134 471 175 c 0,23,24
 471 213 471 213 454 231 c 128,-1,25
 437 249 437 249 400 249 c 2,26,-1
 385 249 l 1,18,-1
EndSplineSet
EndChar

StartChar: uni0454
Encoding: 1108 1108 463
Width: 600
GlyphClass: 2
Flags: W
AnchorPoint: "Anchor-3" 300 531 basechar 0
AnchorPoint: "Anchor-2" 300 0 basechar 0
LayerCount: 2
Fore
SplineSet
540 482 m 1,1,-1
 474 394 l 1,2,3
 415 434 415 434 353 434 c 0,4,5
 244 434 244 434 229 321 c 1,6,-1
 439 321 l 1,7,-1
 439 221 l 1,8,-1
 229 221 l 1,9,10
 241 98 241 98 355 98 c 0,11,12
 417 98 417 98 473 138 c 1,13,-1
 540 47 l 1,14,15
 501 17 501 17 449.5 0 c 128,-1,16
 398 -17 398 -17 342 -17 c 0,17,18
 257 -17 257 -17 195 18 c 128,-1,19
 133 53 133 53 101 116 c 128,-1,20
 69 179 69 179 69 262 c 256,21,22
 69 345 69 345 103 410 c 128,-1,23
 137 475 137 475 199.5 512 c 128,-1,24
 262 549 262 549 344 549 c 0,25,0
 461 549 461 549 540 482 c 1,1,-1
EndSplineSet
EndChar

StartChar: uni044D
Encoding: 1101 1101 464
Width: 600
GlyphClass: 2
Flags: W
AnchorPoint: "Anchor-3" 301 531 basechar 0
AnchorPoint: "Anchor-2" 300 0 basechar 0
LayerCount: 2
Fore
SplineSet
418.5 513 m 128,-1,1
 478 477 478 477 509 412.5 c 128,-1,2
 540 348 540 348 540 264 c 0,3,4
 540 181 540 181 507.5 117.5 c 128,-1,5
 475 54 475 54 412.5 18.5 c 128,-1,6
 350 -17 350 -17 263 -17 c 0,7,8
 202 -17 202 -17 155 0 c 128,-1,9
 108 17 108 17 69 52 c 1,10,-1
 139 136 l 1,11,12
 168 116 168 116 195.5 107 c 128,-1,13
 223 98 223 98 259 98 c 0,14,15
 312 98 312 98 342.5 127 c 128,-1,16
 373 156 373 156 380 221 c 1,17,-1
 184 221 l 1,18,-1
 184 321 l 1,19,-1
 378 321 l 1,20,21
 365 434 365 434 264 434 c 0,22,23
 230 434 230 434 201.5 425 c 128,-1,24
 173 416 173 416 143 397 c 1,25,-1
 76 484 l 1,26,27
 121 518 121 518 167 533.5 c 128,-1,28
 213 549 213 549 277 549 c 0,29,0
 359 549 359 549 418.5 513 c 128,-1,1
EndSplineSet
EndChar

StartChar: uni044E
Encoding: 1102 1102 469
Width: 600
GlyphClass: 2
Flags: W
AnchorPoint: "Anchor-3" 300 531 basechar 0
AnchorPoint: "Anchor-2" 300 0 basechar 0
LayerCount: 2
Fore
SplineSet
587 267 m 0,1,2
 587 129 587 129 542.5 56 c 128,-1,3
 498 -17 498 -17 398 -17 c 0,4,5
 308 -17 308 -17 263.5 42.5 c 128,-1,6
 219 102 219 102 212 216 c 1,7,-1
 164 216 l 1,8,-1
 164 0 l 1,9,-1
 32 0 l 1,10,-1
 32 531 l 1,11,-1
 164 531 l 1,12,-1
 164 323 l 1,13,-1
 213 323 l 1,14,15
 221 430 221 430 265.5 489.5 c 128,-1,16
 310 549 310 549 398 549 c 0,17,0
 587 549 587 549 587 267 c 0,1,2
365.5 427 m 128,-1,19
 354 409 354 409 350 371 c 128,-1,20
 346 333 346 333 346 266 c 0,21,22
 346 198 346 198 350 160.5 c 128,-1,23
 354 123 354 123 365 105 c 128,-1,24
 376 87 376 87 398 87 c 256,25,26
 420 87 420 87 431.5 105 c 128,-1,27
 443 123 443 123 447 161 c 128,-1,28
 451 199 451 199 451 267 c 0,29,30
 451 363 451 363 439.5 404 c 128,-1,31
 428 445 428 445 398 445 c 0,32,18
 377 445 377 445 365.5 427 c 128,-1,19
EndSplineSet
EndChar

StartChar: uni044F
Encoding: 1103 1103 470
Width: 600
GlyphClass: 2
Flags: W
AnchorPoint: "Anchor-3" 300 531 basechar 0
AnchorPoint: "Anchor-2" 300 0 basechar 0
LayerCount: 2
Fore
SplineSet
525 531 m 1,0,-1
 525 0 l 1,1,-1
 367 0 l 1,2,-1
 367 186 l 1,3,-1
 287 186 l 1,4,-1
 187 0 l 1,5,-1
 20 0 l 1,6,-1
 150 219 l 1,7,8
 107 240 107 240 83.5 274 c 128,-1,9
 60 308 60 308 60 354 c 0,10,11
 60 435 60 435 124 483 c 128,-1,12
 188 531 188 531 314 531 c 2,13,-1
 525 531 l 1,0,-1
367 282 m 1,14,-1
 367 432 l 1,15,-1
 312 432 l 2,16,17
 265 432 265 432 243.5 413.5 c 128,-1,18
 222 395 222 395 222 359 c 0,19,20
 222 282 222 282 315 282 c 2,21,-1
 367 282 l 1,14,-1
EndSplineSet
EndChar

StartChar: uni0452
Encoding: 1106 1106 471
Width: 600
GlyphClass: 2
Flags: W
AnchorPoint: "Anchor-3" 300 742 basechar 0
AnchorPoint: "Anchor-2" 300 -221 basechar 0
LayerCount: 2
Fore
SplineSet
228 685 m 1,0,-1
 369 685 l 1,1,-1
 369 593 l 1,2,-1
 228 593 l 1,3,-1
 228 477 l 1,4,5
 297 549 297 549 384 549 c 0,6,7
 454 549 454 549 492 507.5 c 128,-1,8
 530 466 530 466 530 390 c 2,9,-1
 530 81 l 2,10,11
 530 -12 530 -12 506.5 -68.5 c 128,-1,12
 483 -125 483 -125 438.5 -158.5 c 128,-1,13
 394 -192 394 -192 319 -222 c 1,14,-1
 263 -106 l 1,15,16
 319 -81 319 -81 345.5 -50 c 128,-1,17
 372 -19 372 -19 372 43 c 2,18,-1
 372 371 l 2,19,20
 372 404 372 404 359 418 c 128,-1,21
 346 432 346 432 321 432 c 0,22,23
 297 432 297 432 274.5 415.5 c 128,-1,24
 252 399 252 399 228 367 c 1,25,-1
 228 0 l 1,26,-1
 70 0 l 1,27,-1
 70 593 l 1,28,-1
 8 593 l 1,29,-1
 8 685 l 1,30,-1
 70 685 l 1,31,-1
 70 742 l 1,32,-1
 228 758 l 1,33,-1
 228 685 l 1,0,-1
EndSplineSet
EndChar

StartChar: uni0463
Encoding: 1123 1123 473
Width: 600
GlyphClass: 2
Flags: W
AnchorPoint: "Anchor-3" 178 652 basechar 0
AnchorPoint: "Anchor-2" 300 0 basechar 0
LayerCount: 2
Fore
SplineSet
257 548 m 1,0,-1
 390 548 l 1,1,-1
 376 455 l 1,2,-1
 257 455 l 1,3,-1
 257 369 l 1,4,-1
 307 369 l 2,5,6
 435 369 435 369 498 323.5 c 128,-1,7
 561 278 561 278 561 186 c 0,8,9
 561 95 561 95 503 47.5 c 128,-1,10
 445 0 445 0 333 0 c 2,11,-1
 99 0 l 1,12,-1
 99 455 l 1,13,-1
 36 455 l 1,14,-1
 36 548 l 1,15,-1
 99 548 l 1,16,-1
 99 658 l 1,17,-1
 257 674 l 1,18,-1
 257 548 l 1,0,-1
257 265 m 1,19,-1
 257 109 l 1,20,-1
 313 109 l 2,21,22
 356 109 356 109 377 127.5 c 128,-1,23
 398 146 398 146 398 189 c 0,24,25
 398 229 398 229 376.5 247 c 128,-1,26
 355 265 355 265 308 265 c 2,27,-1
 257 265 l 1,19,-1
EndSplineSet
EndChar

StartChar: uni0465
Encoding: 1125 1125 474
Width: 600
GlyphClass: 2
Flags: W
AnchorPoint: "Anchor-3" 300 531 basechar 0
AnchorPoint: "Anchor-2" 300 0 basechar 0
LayerCount: 2
Fore
SplineSet
480 93.5 m 128,-1,1
 496 101 496 101 515 115 c 1,2,-1
 575 47 l 1,3,4
 548 17 548 17 512 0 c 128,-1,5
 476 -17 476 -17 435 -17 c 0,6,7
 339 -17 339 -17 285.5 45 c 128,-1,8
 232 107 232 107 223 216 c 1,9,-1
 176 216 l 1,10,-1
 176 0 l 1,11,-1
 43 0 l 1,12,-1
 43 531 l 1,13,-1
 176 531 l 1,14,-1
 176 323 l 1,15,-1
 225 323 l 1,16,17
 237 427 237 427 292.5 488 c 128,-1,18
 348 549 348 549 440 549 c 0,19,20
 519 549 519 549 575 491 c 1,21,-1
 511 421 l 1,22,23
 495 433 495 433 480 439 c 128,-1,24
 465 445 465 445 446 445 c 0,25,26
 408 445 408 445 387 415.5 c 128,-1,27
 366 386 366 386 361 321 c 1,28,-1
 505 321 l 1,29,-1
 505 221 l 1,30,-1
 361 221 l 1,31,32
 365 86 365 86 441 86 c 0,33,0
 464 86 464 86 480 93.5 c 128,-1,1
EndSplineSet
EndChar

StartChar: uni0467
Encoding: 1127 1127 475
Width: 600
GlyphClass: 2
Flags: W
AnchorPoint: "Anchor-3" 300 531 basechar 0
AnchorPoint: "Anchor-2" 300 0 basechar 0
LayerCount: 2
Fore
SplineSet
441 0 m 1,0,-1
 383 182 l 1,1,-1
 354 182 l 1,2,-1
 354 0 l 1,3,-1
 243 0 l 1,4,-1
 243 182 l 1,5,-1
 213 182 l 1,6,-1
 159 0 l 1,7,-1
 17 0 l 1,8,-1
 201 531 l 1,9,-1
 400 531 l 1,10,-1
 584 0 l 1,11,-1
 441 0 l 1,0,-1
243 283 m 1,12,-1
 351 283 l 1,13,-1
 295 460 l 1,14,-1
 243 283 l 1,12,-1
EndSplineSet
EndChar

StartChar: uni0469
Encoding: 1129 1129 476
Width: 600
GlyphClass: 2
Flags: W
AnchorPoint: "Anchor-3" 300 531 basechar 0
AnchorPoint: "Anchor-2" 300 0 basechar 0
LayerCount: 2
Fore
SplineSet
507 0 m 1,0,-1
 460 179 l 1,1,-1
 434 179 l 1,2,-1
 434 0 l 1,3,-1
 339 0 l 1,4,-1
 339 179 l 1,5,-1
 317 179 l 1,6,-1
 272 0 l 1,7,-1
 156 0 l 1,8,-1
 205 179 l 1,9,-1
 137 179 l 1,10,-1
 137 0 l 1,11,-1
 14 0 l 1,12,-1
 14 531 l 1,13,-1
 137 531 l 1,14,-1
 137 273 l 1,15,-1
 231 273 l 1,16,-1
 302 531 l 1,17,-1
 471 531 l 1,18,-1
 622 0 l 1,19,-1
 507 0 l 1,0,-1
340 273 m 1,20,-1
 436 273 l 1,21,-1
 387 460 l 1,22,-1
 340 273 l 1,20,-1
EndSplineSet
EndChar

StartChar: uni046B
Encoding: 1131 1131 477
Width: 600
GlyphClass: 2
Flags: W
AnchorPoint: "Anchor-3" 300 531 basechar 0
AnchorPoint: "Anchor-2" 300 0 basechar 0
LayerCount: 2
Fore
SplineSet
493 301 m 1,0,-1
 596 0 l 1,1,-1
 463 0 l 1,2,-1
 414 202 l 1,3,-1
 366 202 l 1,4,-1
 366 0 l 1,5,-1
 236 0 l 1,6,-1
 236 202 l 1,7,-1
 188 202 l 1,8,-1
 138 0 l 1,9,-1
 5 0 l 1,10,-1
 109 301 l 1,11,-1
 182 301 l 1,12,-1
 73 457 l 1,13,-1
 73 531 l 1,14,-1
 521 531 l 1,15,-1
 521 457 l 1,16,-1
 413 301 l 1,17,-1
 493 301 l 1,0,-1
212 442 m 1,18,-1
 298 301 l 1,19,-1
 383 442 l 1,20,-1
 212 442 l 1,18,-1
EndSplineSet
EndChar

StartChar: uni046D
Encoding: 1133 1133 478
Width: 600
GlyphClass: 2
Flags: W
AnchorPoint: "Anchor-3" 300 531 basechar 0
AnchorPoint: "Anchor-2" 300 0 basechar 0
LayerCount: 2
Fore
SplineSet
560 305 m 1,0,-1
 632 0 l 1,1,-1
 513 0 l 1,2,-1
 480 210 l 1,3,-1
 449 210 l 1,4,-1
 449 0 l 1,5,-1
 335 0 l 1,6,-1
 335 210 l 1,7,-1
 301 210 l 1,8,-1
 268 0 l 1,9,-1
 148 0 l 1,10,-1
 199 210 l 1,11,-1
 123 210 l 1,12,-1
 123 0 l 1,13,-1
 -1 0 l 1,14,-1
 -1 531 l 1,15,-1
 123 531 l 1,16,-1
 123 305 l 1,17,-1
 279 305 l 1,18,-1
 185 457 l 1,19,-1
 185 531 l 1,20,-1
 588 531 l 1,21,-1
 588 457 l 1,22,-1
 494 305 l 1,23,-1
 560 305 l 1,0,-1
314 446 m 1,24,-1
 388 305 l 1,25,-1
 460 446 l 1,26,-1
 314 446 l 1,24,-1
EndSplineSet
EndChar

StartChar: uni046F
Encoding: 1135 1135 479
Width: 600
GlyphClass: 2
Flags: W
AnchorPoint: "Anchor-3" 292 531 basechar 0
AnchorPoint: "Anchor-2" 0 0 basechar 0
LayerCount: 2
Fore
SplineSet
425 815 m 1,0,-1
 481 751 l 1,1,-1
 340 611 l 1,2,-1
 244 611 l 1,3,-1
 102 751 l 1,4,-1
 159 815 l 1,5,-1
 292 721 l 1,6,-1
 425 815 l 1,0,-1
62 -74 m 0,8,9
 62 -22 62 -22 100.5 11 c 128,-1,10
 139 44 139 44 231 67 c 0,11,12
 287 81 287 81 316 92 c 128,-1,13
 345 103 345 103 356.5 115 c 128,-1,14
 368 127 368 127 368 144 c 0,15,16
 368 163 368 163 354.5 171.5 c 128,-1,17
 341 180 341 180 310 180 c 2,18,-1
 149 180 l 1,19,-1
 149 272 l 1,20,-1
 324 417 l 1,21,-1
 76 417 l 1,22,-1
 76 531 l 1,23,-1
 508 531 l 1,24,-1
 508 420 l 1,25,-1
 332 285 l 1,26,-1
 369 285 l 2,27,28
 448 285 448 285 492.5 247 c 128,-1,29
 537 209 537 209 537 142 c 0,30,31
 537 91 537 91 513.5 58 c 128,-1,32
 490 25 490 25 447.5 4.5 c 128,-1,33
 405 -16 405 -16 337 -33 c 0,34,35
 286 -46 286 -46 261 -55 c 128,-1,36
 236 -64 236 -64 228 -72 c 128,-1,37
 220 -80 220 -80 220 -91 c 0,38,39
 220 -103 220 -103 229 -112.5 c 128,-1,40
 238 -122 238 -122 257 -133 c 1,41,-1
 214 -227 l 1,42,7
 62 -171 62 -171 62 -74 c 0,8,9
EndSplineSet
EndChar

StartChar: uni0475
Encoding: 1141 1141 482
Width: 600
GlyphClass: 2
Flags: W
AnchorPoint: "Anchor-3" 293 531 basechar 0
AnchorPoint: "Anchor-2" 300 0 basechar 0
LayerCount: 2
Fore
SplineSet
19 531 m 1,0,-1
 190 531 l 1,1,-1
 285 121 l 1,2,-1
 352 437 l 2,3,4
 368 513 368 513 403.5 545 c 128,-1,5
 439 577 439 577 501 577 c 0,6,7
 541 577 541 577 582 565 c 1,8,-1
 556 452 l 1,9,10
 546 456 546 456 532 456 c 0,11,12
 519 456 519 456 511 448 c 128,-1,13
 503 440 503 440 497 420 c 2,14,-1
 376 0 l 1,15,-1
 190 0 l 1,16,-1
 19 531 l 1,0,-1
EndSplineSet
EndChar

StartChar: uni0479
Encoding: 1145 1145 484
Width: 600
Flags: W
LayerCount: 2
Fore
SplineSet
38 57.5 m 128,-1,1
 -6 132 -6 132 -6 266 c 0,2,3
 -6 350 -6 350 14 414 c 128,-1,4
 34 478 34 478 71.5 513.5 c 128,-1,5
 109 549 109 549 160 549 c 0,6,7
 243 549 243 549 284.5 474 c 128,-1,8
 326 399 326 399 326 267 c 0,9,10
 326 131 326 131 284.5 57 c 128,-1,11
 243 -17 243 -17 160 -17 c 0,12,0
 82 -17 82 -17 38 57.5 c 128,-1,1
338 -150 m 1,13,14
 387 -130 387 -130 413 -97 c 128,-1,15
 439 -64 439 -64 450 0 c 1,16,-1
 400 0 l 1,17,-1
 329 531 l 1,18,-1
 429 531 l 1,19,-1
 470 101 l 1,20,-1
 515 531 l 1,21,-1
 612 531 l 1,22,-1
 535 0 l 2,23,24
 508 -187 508 -187 361 -223 c 1,25,-1
 338 -150 l 1,13,14
209 111.5 m 128,-1,27
 224 158 224 158 224 267 c 0,28,29
 224 375 224 375 209 420.5 c 128,-1,30
 194 466 194 466 160 466 c 0,31,32
 127 466 127 466 111.5 419.5 c 128,-1,33
 96 373 96 373 96 266 c 0,34,35
 96 157 96 157 111 111 c 128,-1,36
 126 65 126 65 160 65 c 256,37,26
 194 65 194 65 209 111.5 c 128,-1,27
EndSplineSet
EndChar

StartChar: uni0493
Encoding: 1171 1171 485
Width: 600
GlyphClass: 2
Flags: W
AnchorPoint: "Anchor-3" 364 531 basechar 0
AnchorPoint: "Anchor-2" 227 0 basechar 0
LayerCount: 2
Fore
SplineSet
547 409 m 1,0,-1
 306 409 l 1,1,-1
 306 312 l 1,2,-1
 422 312 l 1,3,-1
 422 213 l 1,4,-1
 306 213 l 1,5,-1
 306 0 l 1,6,-1
 148 0 l 1,7,-1
 148 213 l 1,8,-1
 73 213 l 1,9,-1
 73 312 l 1,10,-1
 148 312 l 1,11,-1
 148 531 l 1,12,-1
 565 531 l 1,13,-1
 547 409 l 1,0,-1
EndSplineSet
EndChar

StartChar: uni0495
Encoding: 1173 1173 486
Width: 600
GlyphClass: 2
Flags: W
AnchorPoint: "Anchor-3" 300 531 basechar 0
AnchorPoint: "Anchor-2" 300 -221 basechar 0
LayerCount: 2
Fore
SplineSet
498.5 303 m 128,-1,1
 538 260 538 260 538 178 c 2,2,-1
 538 -26 l 2,3,4
 538 -124 538 -124 487.5 -175.5 c 128,-1,5
 437 -227 437 -227 344 -227 c 0,6,7
 301 -227 301 -227 269 -215.5 c 128,-1,8
 237 -204 237 -204 208 -182 c 1,9,-1
 268 -93 l 1,10,11
 288 -102 288 -102 299.5 -106 c 128,-1,12
 311 -110 311 -110 328 -110 c 0,13,14
 354 -110 354 -110 367 -94.5 c 128,-1,15
 380 -79 380 -79 380 -43 c 2,16,-1
 380 168 l 2,17,18
 380 202 380 202 367.5 215.5 c 128,-1,19
 355 229 355 229 329 229 c 0,20,21
 282 229 282 229 240 177 c 1,22,-1
 240 0 l 1,23,-1
 82 0 l 1,24,-1
 82 531 l 1,25,-1
 467 531 l 1,26,-1
 444 416 l 1,27,-1
 240 416 l 1,28,-1
 240 283 l 1,29,30
 268 313 268 313 305.5 329.5 c 128,-1,31
 343 346 343 346 386 346 c 0,32,0
 459 346 459 346 498.5 303 c 128,-1,1
EndSplineSet
EndChar

StartChar: uni0497
Encoding: 1175 1175 487
Width: 600
Flags: W
LayerCount: 2
Fore
SplineSet
550 117 m 1,0,-1
 617 117 l 1,1,-1
 617 -174 l 1,2,-1
 518 -174 l 1,3,-1
 498 0 l 1,4,-1
 458 0 l 1,5,-1
 379 232 l 1,6,-1
 354 232 l 1,7,-1
 354 0 l 1,8,-1
 246 0 l 1,9,-1
 246 232 l 1,10,-1
 221 232 l 1,11,-1
 146 0 l 1,12,-1
 5 0 l 1,13,-1
 117 285 l 1,14,-1
 8 531 l 1,15,-1
 145 531 l 1,16,-1
 219 320 l 1,17,-1
 246 320 l 1,18,-1
 246 531 l 1,19,-1
 354 531 l 1,20,-1
 354 320 l 1,21,-1
 381 320 l 1,22,-1
 459 531 l 1,23,-1
 592 531 l 1,24,-1
 484 285 l 1,25,-1
 550 117 l 1,0,-1
EndSplineSet
EndChar

StartChar: uni0499
Encoding: 1177 1177 488
Width: 600
GlyphClass: 2
Flags: W
AnchorPoint: "Anchor-3" 286 527 basechar 0
AnchorPoint: "Anchor-2" 295 0 basechar 0
LayerCount: 2
Fore
SplineSet
478.5 39.5 m 128,-1,1
 421 -4 421 -4 325 -14 c 1,2,-1
 325 -48 l 1,3,4
 376 -54 376 -54 402 -80 c 128,-1,5
 428 -106 428 -106 428 -147 c 0,6,7
 428 -198 428 -198 387 -230 c 128,-1,8
 346 -262 346 -262 279 -262 c 0,9,10
 245 -262 245 -262 214.5 -253.5 c 128,-1,11
 184 -245 184 -245 162 -232 c 1,12,-1
 198 -159 l 1,13,14
 232 -176 232 -176 262 -176 c 0,15,16
 315 -176 315 -176 315 -145 c 0,17,18
 315 -126 315 -126 293 -119 c 128,-1,19
 271 -112 271 -112 223 -112 c 1,20,-1
 233 -16 l 1,21,22
 109 -9 109 -9 26 53 c 1,23,-1
 94 144 l 1,24,25
 136 119 136 119 177 107.5 c 128,-1,26
 218 96 218 96 266 96 c 0,27,28
 319 96 319 96 345.5 113.5 c 128,-1,29
 372 131 372 131 372 162 c 0,30,31
 372 191 372 191 347.5 207 c 128,-1,32
 323 223 323 223 275 223 c 2,33,-1
 160 223 l 1,34,-1
 169 324 l 1,35,-1
 265 324 l 2,36,37
 306 324 306 324 328 339.5 c 128,-1,38
 350 355 350 355 350 383 c 256,39,40
 350 411 350 411 327 425 c 128,-1,41
 304 439 304 439 261 439 c 0,42,43
 220 439 220 439 181.5 429 c 128,-1,44
 143 419 143 419 111 400 c 1,45,-1
 43 484 l 1,46,47
 89 516 89 516 147.5 532.5 c 128,-1,48
 206 549 206 549 271 549 c 0,49,50
 377 549 377 549 443 510 c 128,-1,51
 509 471 509 471 509 401 c 0,52,53
 509 314 509 314 382 281 c 1,54,55
 458 272 458 272 497 242 c 128,-1,56
 536 212 536 212 536 154 c 0,57,0
 536 83 536 83 478.5 39.5 c 128,-1,1
EndSplineSet
EndChar

StartChar: uni049B
Encoding: 1179 1179 489
Width: 600
GlyphClass: 2
Flags: W
AnchorPoint: "Anchor-3" 320 531 basechar 0
AnchorPoint: "Anchor-2" 300 0 basechar 0
LayerCount: 2
Fore
SplineSet
520 117 m 1,0,-1
 597 117 l 1,1,-1
 597 -174 l 1,2,-1
 478 -174 l 1,3,-1
 459 0 l 1,4,-1
 419 0 l 1,5,-1
 300 224 l 1,6,-1
 231 224 l 1,7,-1
 231 0 l 1,8,-1
 73 0 l 1,9,-1
 73 531 l 1,10,-1
 231 531 l 1,11,-1
 231 329 l 1,12,-1
 304 329 l 1,13,-1
 419 531 l 1,14,-1
 572 531 l 1,15,-1
 425 285 l 1,16,-1
 520 117 l 1,0,-1
EndSplineSet
EndChar

StartChar: uni049D
Encoding: 1181 1181 490
Width: 600
GlyphClass: 2
Flags: W
AnchorPoint: "Anchor-3" 300 531 basechar 0
AnchorPoint: "Anchor-2" 300 0 basechar 0
LayerCount: 2
Fore
SplineSet
73 0 m 1,0,-1
 73 531 l 1,1,-1
 222 531 l 1,2,-1
 222 318 l 1,3,-1
 256 318 l 1,4,-1
 256 433 l 1,5,-1
 308 433 l 1,6,-1
 308 318 l 1,7,-1
 327 318 l 1,8,-1
 420 531 l 1,9,-1
 572 531 l 1,10,-1
 450 285 l 1,11,-1
 587 0 l 1,12,-1
 422 0 l 1,13,-1
 327 234 l 1,14,-1
 308 234 l 1,15,-1
 308 117 l 1,16,-1
 256 117 l 1,17,-1
 256 234 l 1,18,-1
 222 234 l 1,19,-1
 222 0 l 1,20,-1
 73 0 l 1,0,-1
EndSplineSet
EndChar

StartChar: uni049F
Encoding: 1183 1183 491
Width: 600
Flags: W
LayerCount: 2
Fore
SplineSet
425 285 m 1,0,-1
 586 0 l 1,1,-1
 419 0 l 1,2,-1
 300 224 l 1,3,-1
 250 224 l 1,4,-1
 250 0 l 1,5,-1
 92 0 l 1,6,-1
 92 565 l 1,7,-1
 13 565 l 1,8,-1
 13 657 l 1,9,-1
 92 657 l 1,10,-1
 92 742 l 1,11,-1
 250 759 l 1,12,-1
 250 657 l 1,13,-1
 372 657 l 1,14,-1
 372 565 l 1,15,-1
 250 565 l 1,16,-1
 250 329 l 1,17,-1
 304 329 l 1,18,-1
 419 531 l 1,19,-1
 572 531 l 1,20,-1
 425 285 l 1,0,-1
EndSplineSet
EndChar

StartChar: uni04A1
Encoding: 1185 1185 492
Width: 600
Flags: W
LayerCount: 2
Fore
SplineSet
448 285 m 1,0,-1
 600 0 l 1,1,-1
 432 0 l 1,2,-1
 323 224 l 1,3,-1
 263 224 l 1,4,-1
 263 0 l 1,5,-1
 105 0 l 1,6,-1
 105 418 l 1,7,-1
 0 418 l 1,8,-1
 0 531 l 1,9,-1
 263 531 l 1,10,-1
 263 329 l 1,11,-1
 327 329 l 1,12,-1
 432 531 l 1,13,-1
 585 531 l 1,14,-1
 448 285 l 1,0,-1
EndSplineSet
EndChar

StartChar: uni04A3
Encoding: 1187 1187 493
Width: 600
Flags: W
LayerCount: 2
Fore
SplineSet
510 117 m 1,0,-1
 581 117 l 1,1,-1
 581 -174 l 1,2,-1
 462 -174 l 1,3,-1
 443 0 l 1,4,-1
 352 0 l 1,5,-1
 352 212 l 1,6,-1
 208 212 l 1,7,-1
 208 0 l 1,8,-1
 50 0 l 1,9,-1
 50 531 l 1,10,-1
 208 531 l 1,11,-1
 208 328 l 1,12,-1
 352 328 l 1,13,-1
 352 531 l 1,14,-1
 510 531 l 1,15,-1
 510 117 l 1,0,-1
EndSplineSet
EndChar

StartChar: uni04A5
Encoding: 1189 1189 494
Width: 600
Flags: W
LayerCount: 2
Fore
SplineSet
608 531 m 1,0,-1
 584 413 l 1,1,-1
 474 413 l 1,2,-1
 474 0 l 1,3,-1
 316 0 l 1,4,-1
 316 212 l 1,5,-1
 201 212 l 1,6,-1
 201 0 l 1,7,-1
 43 0 l 1,8,-1
 43 531 l 1,9,-1
 201 531 l 1,10,-1
 201 328 l 1,11,-1
 316 328 l 1,12,-1
 316 531 l 1,13,-1
 608 531 l 1,0,-1
EndSplineSet
EndChar

StartChar: uni0525
Encoding: 1317 1317 495
Width: 600
GlyphClass: 2
Flags: W
AnchorPoint: "Anchor-3" 290 531 basechar 0
AnchorPoint: "Anchor-2" 290 0 basechar 0
LayerCount: 2
Fore
SplineSet
520 117 m 1,0,-1
 591 117 l 1,1,-1
 591 -174 l 1,2,-1
 472 -174 l 1,3,-1
 453 0 l 1,4,-1
 363 0 l 1,5,-1
 363 414 l 1,6,-1
 217 414 l 1,7,-1
 217 0 l 1,8,-1
 60 0 l 1,9,-1
 60 531 l 1,10,-1
 520 531 l 1,11,-1
 520 117 l 1,0,-1
EndSplineSet
EndChar

StartChar: uni04A7
Encoding: 1191 1191 496
Width: 600
GlyphClass: 2
Flags: W
AnchorPoint: "Anchor-3" 300 531 basechar 0
AnchorPoint: "Anchor-2" 300 -221 basechar 0
LayerCount: 2
Fore
SplineSet
568.5 304 m 128,-1,1
 605 262 605 262 605 189 c 2,2,-1
 605 -36 l 2,3,4
 605 -126 605 -126 557 -176.5 c 128,-1,5
 509 -227 509 -227 430 -227 c 0,6,7
 389 -227 389 -227 358 -215.5 c 128,-1,8
 327 -204 327 -204 298 -182 c 1,9,-1
 353 -101 l 1,10,11
 371 -112 371 -112 384 -116.5 c 128,-1,12
 397 -121 397 -121 418 -121 c 0,13,14
 441 -121 441 -121 454 -106 c 128,-1,15
 467 -91 467 -91 467 -60 c 2,16,-1
 467 189 l 2,17,18
 467 237 467 237 427 237 c 0,19,20
 404 237 404 237 382 223 c 1,21,-1
 382 0 l 1,22,-1
 245 0 l 1,23,-1
 245 421 l 1,24,-1
 156 421 l 1,25,-1
 156 0 l 1,26,-1
 18 0 l 1,27,-1
 18 531 l 1,28,-1
 382 531 l 1,29,-1
 382 316 l 1,30,31
 421 346 421 346 474 346 c 0,32,0
 532 346 532 346 568.5 304 c 128,-1,1
EndSplineSet
EndChar

StartChar: uni04A9
Encoding: 1193 1193 497
Width: 600
GlyphClass: 2
Flags: W
AnchorPoint: "Anchor-3" 300 531 basechar 0
AnchorPoint: "Anchor-2" 300 -221 basechar 0
LayerCount: 2
Fore
SplineSet
547.5 109 m 128,-1,1
 520 59 520 59 471 27 c 1,2,3
 504 -21 504 -21 559 -92 c 1,4,-1
 492 -148 l 1,5,6
 428 -72 428 -72 384 -10 c 1,7,8
 356 -17 356 -17 318 -17 c 0,9,10
 234 -17 234 -17 172 18 c 128,-1,11
 110 53 110 53 77 116 c 128,-1,12
 44 179 44 179 44 262 c 256,13,14
 44 345 44 345 78 410 c 128,-1,15
 112 475 112 475 174.5 512 c 128,-1,16
 237 549 237 549 319 549 c 0,17,18
 391 549 391 549 451 516 c 1,19,-1
 399 408 l 1,20,21
 363 427 363 427 326 427 c 0,22,23
 271 427 271 427 239 387.5 c 128,-1,24
 207 348 207 348 207 262 c 0,25,26
 207 184 207 184 235 148 c 128,-1,27
 263 112 263 112 313 108 c 1,28,29
 286 170 286 170 286 217 c 0,30,31
 286 281 286 281 324.5 317.5 c 128,-1,32
 363 354 363 354 430 354 c 0,33,34
 495 354 495 354 535 317.5 c 128,-1,35
 575 281 575 281 575 211 c 0,36,0
 575 159 575 159 547.5 109 c 128,-1,1
403.5 253 m 128,-1,38
 395 241 395 241 395 220 c 0,39,40
 395 175 395 175 414 129 c 1,41,42
 461 159 461 159 461 221 c 0,43,44
 461 265 461 265 428 265 c 0,45,37
 412 265 412 265 403.5 253 c 128,-1,38
EndSplineSet
EndChar

StartChar: uni04AB
Encoding: 1195 1195 498
Width: 600
GlyphClass: 2
Flags: W
AnchorPoint: "Anchor-3" 344 518 basechar 0
AnchorPoint: "Anchor-2" 339 0 basechar 0
LayerCount: 2
Fore
SplineSet
540 53 m 1,0,1
 479 0 479 0 392 -13 c 1,2,3
 431 -35 431 -35 450.5 -65 c 128,-1,4
 470 -95 470 -95 470 -136 c 0,5,6
 470 -192 470 -192 429 -225 c 128,-1,7
 388 -258 388 -258 317 -258 c 0,8,9
 259 -258 259 -258 212 -233 c 1,10,-1
 243 -154 l 1,11,12
 271 -168 271 -168 306 -168 c 0,13,14
 334 -168 334 -168 348 -154.5 c 128,-1,15
 362 -141 362 -141 362 -119 c 0,16,17
 362 -61 362 -61 292 -13 c 1,18,19
 187 2 187 2 128 75.5 c 128,-1,20
 69 149 69 149 69 262 c 0,21,22
 69 345 69 345 103 410 c 128,-1,23
 137 475 137 475 199.5 512 c 128,-1,24
 262 549 262 549 346 549 c 0,25,26
 405 549 405 549 452 532.5 c 128,-1,27
 499 516 499 516 540 482 c 1,28,-1
 472 387 l 1,29,30
 414 427 414 427 353 427 c 0,31,32
 234 427 234 427 234 262 c 0,33,34
 234 179 234 179 265 143.5 c 128,-1,35
 296 108 296 108 352 108 c 0,36,37
 382 108 382 108 410 119.5 c 128,-1,38
 438 131 438 131 470 153 c 1,39,-1
 540 53 l 1,0,1
EndSplineSet
EndChar

StartChar: uni04AD
Encoding: 1197 1197 499
Width: 600
GlyphClass: 2
Flags: W
AnchorPoint: "Anchor-3" 300 531 basechar 0
AnchorPoint: "Anchor-2" 300 0 basechar 0
LayerCount: 2
Fore
SplineSet
545 414 m 1,0,-1
 379 414 l 1,1,-1
 379 117 l 1,2,-1
 449 117 l 1,3,-1
 449 -174 l 1,4,-1
 330 -174 l 1,5,-1
 311 0 l 1,6,-1
 221 0 l 1,7,-1
 221 414 l 1,8,-1
 43 414 l 1,9,-1
 43 531 l 1,10,-1
 563 531 l 1,11,-1
 545 414 l 1,0,-1
EndSplineSet
EndChar

